<?xml version='1.0' encoding='ASCII' standalone='yes'?>
<svg xmlns="http://www.w3.org/2000/svg" xmlns:xlink="http://www.w3.org/1999/xlink" width="235.875" height="270.875" viewBox="-47.175 -28.575 94.35 108.35">
<defs>
<style type="text/css">
.l64d44 {stroke: #E25822; fill: #E25822; fill-opacity: 0.5;}
.l67d44 {stroke: #875692; fill: #875692; fill-opacity: 0.5;}
.l66d44 {stroke: #F3C300; fill: #F3C300; fill-opacity: 0.5;}
.l95d20 {stroke: #654522; fill: #654522; fill-opacity: 0.5;}
.l94d20 {stroke: #8DB600; fill: #8DB600; fill-opacity: 0.5;}
.l65d20 {stroke: #008856; fill: #008856; fill-opacity: 0.5;}
.l67d20 {stroke: #0067A5; fill: #0067A5; fill-opacity: 0.5;}
.l66d20 {stroke: #E68FAC; fill: #E68FAC; fill-opacity: 0.5;}
.l93d44 {stroke: #008856; fill: #008856; fill-opacity: 0.5;}
.l68d20 {stroke: #F99379; fill: #F99379; fill-opacity: 0.5;}
</style>
<g id="straight_route_c66cf5ed">
<polygon id="0000024F190C61E0" class="l68d20" points="-11.65,-44.35 11.65,-44.35 11.65,6.85 -11.65,6.85"/>
</g>
<g id="Unnamed_2f048c08">
<polygon id="0000024F190C6100" class="l64d44" points="-42.25,-23.65 42.25,-23.65 42.25,23.65 -42.25,23.65"/>
<polygon id="0000024F190C6790" class="l66d20" points="-8.55,-3.6 -8.55,5 -6.75,5 -6.75,-3.6"/>
<polygon id="0000024F190C6090" class="l66d44" points="-5.95,-0.15 -5.95,1.55 -4.25,1.55 -4.25,-0.15"/>
<polygon id="0000024F190C5FB0" class="l67d20" points="-6.75,-0.95 -6.75,2.35 -3.45,2.35 -3.45,-0.95"/>
<polygon id="0000024F190C69C0" class="l67d20" points="-6.75,-1.1 -6.75,2.5 -3.45,2.5 -3.45,-1.1"/>
<polygon id="0000024F190C62C0" class="l67d44" points="-5.95,-0.15 -5.95,1.55 -4.25,1.55 -4.25,-0.15"/>
<polygon id="0000024F190C66B0" class="l68d20" points="-6.55,-0.75 -6.55,2.15 -3.65,2.15 -3.65,-0.75"/>
<polygon id="0000024F190C6BF0" class="l67d20" points="-5.95,-0.15 -5.95,1.55 -4.25,1.55 -4.25,-0.15"/>
<polygon id="0000024F190C6800" class="l68d20" points="-6.55,-1.1 -6.55,2.5 -3.65,2.5 -3.65,-1.1"/>
<polygon id="0000024F190C6950" class="l67d20" points="-5.95,-0.15 -5.95,1.55 -4.25,1.55 -4.25,-0.15"/>
<polygon id="0000024F190C64F0" class="l66d20" points="6.75,-3.6 6.75,5 8.55,5 8.55,-3.6"/>
<polygon id="0000024F190C6CD0" class="l66d44" points="9.35,-0.15 9.35,1.55 11.05,1.55 11.05,-0.15"/>
<polygon id="0000024F190C6C60" class="l67d20" points="8.55,-0.95 8.55,2.35 11.85,2.35 11.85,-0.95"/>
<polygon id="0000024F190C6330" class="l67d20" points="8.55,-1.1 8.55,2.5 11.85,2.5 11.85,-1.1"/>
<polygon id="0000024F190C68E0" class="l67d44" points="9.35,-0.15 9.35,1.55 11.05,1.55 11.05,-0.15"/>
<polygon id="0000024F190C6170" class="l68d20" points="8.75,-0.75 8.75,2.15 11.65,2.15 11.65,-0.75"/>
<polygon id="0000024F190C6020" class="l67d20" points="9.35,-0.15 9.35,1.55 11.05,1.55 11.05,-0.15"/>
<polygon id="0000024F190C6D40" class="l68d20" points="8.75,-1.1 8.75,2.5 11.65,2.5 11.65,-1.1"/>
<polygon id="0000024F190C6250" class="l67d20" points="9.35,-0.15 9.35,1.55 11.05,1.55 11.05,-0.15"/>
<polygon id="0000024F190C6640" class="l66d20" points="1.65,-3.6 1.65,5 3.45,5 3.45,-3.6"/>
<polygon id="0000024F190C6480" class="l66d44" points="4.25,-0.15 4.25,1.55 5.95,1.55 5.95,-0.15"/>
<polygon id="0000024F190C6B80" class="l67d20" points="3.45,-0.95 3.45,2.35 6.75,2.35 6.75,-0.95"/>
<polygon id="0000024F190C6720" class="l67d20" points="3.45,-1.1 3.45,2.5 6.75,2.5 6.75,-1.1"/>
<polygon id="0000024F190C6AA0" class="l67d44" points="4.25,-0.15 4.25,1.55 5.95,1.55 5.95,-0.15"/>
<polygon id="0000024F190C6A30" class="l68d20" points="3.65,-0.75 3.65,2.15 6.55,2.15 6.55,-0.75"/>
<polygon id="0000024F190C6FE0" class="l67d20" points="4.25,-0.15 4.25,1.55 5.95,1.55 5.95,-0.15"/>
<polygon id="0000024F190C7AD0" class="l68d20" points="3.65,-1.1 3.65,2.5 6.55,2.5 6.55,-1.1"/>
<polygon id="0000024F190C6F70" class="l67d20" points="4.25,-0.15 4.25,1.55 5.95,1.55 5.95,-0.15"/>
<polygon id="0000024F190C58B0" class="l66d20" points="-3.45,-3.6 -3.45,5 -1.65,5 -1.65,-3.6"/>
<polygon id="0000024F190C5370" class="l66d44" points="-0.85,-0.15 -0.85,1.55 0.85,1.55 0.85,-0.15"/>
<polygon id="0000024F190C5A00" class="l67d20" points="-1.65,-0.95 -1.65,2.35 1.65,2.35 1.65,-0.95"/>
<polygon id="0000024F190C5D80" class="l67d20" points="-1.65,-1.1 -1.65,2.5 1.65,2.5 1.65,-1.1"/>
<polygon id="0000024F190C5E60" class="l67d44" points="-0.85,-0.15 -0.85,1.55 0.85,1.55 0.85,-0.15"/>
<polygon id="0000024F190C5760" class="l68d20" points="-1.45,-0.75 -1.45,2.15 1.45,2.15 1.45,-0.75"/>
<polygon id="0000024F190C5220" class="l67d20" points="-0.85,-0.15 -0.85,1.55 0.85,1.55 0.85,-0.15"/>
<polygon id="0000024F190C5450" class="l68d20" points="-1.45,-1.1 -1.45,2.5 1.45,2.5 1.45,-1.1"/>
<polygon id="0000024F190C53E0" class="l67d20" points="-0.85,-0.15 -0.85,1.55 0.85,1.55 0.85,-0.15"/>
<polygon id="0000024F190C5DF0" class="l66d44" points="-11.05,-0.15 -11.05,1.55 -9.35,1.55 -9.35,-0.15"/>
<polygon id="0000024F190C55A0" class="l67d20" points="-11.85,-0.95 -11.85,2.35 -8.55,2.35 -8.55,-0.95"/>
<polygon id="0000024F190C5A70" class="l67d20" points="-11.85,-1.1 -11.85,2.5 -8.55,2.5 -8.55,-1.1"/>
<polygon id="0000024F190C5530" class="l67d44" points="-11.05,-0.15 -11.05,1.55 -9.35,1.55 -9.35,-0.15"/>
<polygon id="0000024F190C51B0" class="l68d20" points="-11.65,-0.75 -11.65,2.15 -8.75,2.15 -8.75,-0.75"/>
<polygon id="0000024F190C5300" class="l67d20" points="-11.05,-0.15 -11.05,1.55 -9.35,1.55 -9.35,-0.15"/>
<polygon id="0000024F190C5AE0" class="l68d20" points="-11.65,-1.1 -11.65,2.5 -8.75,2.5 -8.75,-1.1"/>
<polygon id="0000024F190C5990" class="l67d20" points="-11.05,-0.15 -11.05,1.55 -9.35,1.55 -9.35,-0.15"/>
<polygon id="0000024F190C5BC0" class="l93d44" points="-13.75,-2.4 -13.75,3.8 13.75,3.8 13.75,-2.4"/>
<polygon id="0000024F190C5D10" class="l65d20" points="-12.45,-1.1 -12.45,2.5 12.45,2.5 12.45,-1.1"/>
<polygon id="0000024F190C5CA0" class="l67d44" points="-11.05,4.55 -11.05,6.25 -9.35,6.25 -9.35,4.55"/>
<polygon id="0000024F190C5290" class="l68d20" points="-11.65,3.95 -11.65,6.85 -8.75,6.85 -8.75,3.95"/>
<polygon id="0000024F190C5920" class="l67d20" points="-11.05,4.55 -11.05,6.25 -9.35,6.25 -9.35,4.55"/>
<polygon id="0000024F190C63A0" class="l66d20" points="22.75,-3.6 22.75,5 24.55,5 24.55,-3.6"/>
<polygon id="0000024F190C6560" class="l66d44" points="25.35,-0.15 25.35,1.55 27.05,1.55 27.05,-0.15"/>
<polygon id="0000024F190C6410" class="l67d20" points="24.55,-0.95 24.55,2.35 27.85,2.35 27.85,-0.95"/>
<polygon id="0000024F190C6870" class="l67d20" points="24.55,-1.1 24.55,2.5 27.85,2.5 27.85,-1.1"/>
<polygon id="0000024F190C65D0" class="l66d44" points="20.25,-0.15 20.25,1.55 21.95,1.55 21.95,-0.15"/>
<polygon id="0000024F190C6B10" class="l67d20" points="19.45,-0.95 19.45,2.35 22.75,2.35 22.75,-0.95"/>
<polygon id="0000024F18ED9430" class="l67d20" points="19.45,-1.1 19.45,2.5 22.75,2.5 22.75,-1.1"/>
<polygon id="0000024F18ED9740" class="l93d44" points="17.55,-2.4 17.55,3.8 29.75,3.8 29.75,-2.4"/>
<polygon id="0000024F18ED9040" class="l65d20" points="18.85,-1.1 18.85,2.5 28.45,2.5 28.45,-1.1"/>
<polygon id="0000024F18ED8F60" class="l66d44" points="22.8,-6.1 22.8,-4.4 24.5,-4.4 24.5,-6.1"/>
<polygon id="0000024F18ED9350" class="l66d20" points="22,-6.9 22,-3.6 25.3,-3.6 25.3,-6.9"/>
<polygon id="0000024F18ED9190" class="l67d20" points="22,-6.9 22,-3.6 25.3,-3.6 25.3,-6.9"/>
<polygon id="0000024F18ED97B0" class="l66d20" points="22,-6.9 22,-3.6 25.3,-3.6 25.3,-6.9"/>
<polygon id="0000024F18ED93C0" class="l95d20" points="21.8,-7.1 25.5,-7.1 25.5,-3.4 21.8,-3.4"/>
<polygon id="0000024F18ED9270" class="l67d20" points="19.45,-6.9 22,-6.9 22,-3.6 19.45,-3.6"/>
<polygon id="0000024F18ED8EF0" class="l67d20" points="19.45,-6.9 22.75,-6.9 22.75,-1.1 19.45,-1.1"/>
<polygon id="0000024F18ED9890" class="l67d20" points="25.3,-6.9 27.85,-6.9 27.85,-3.6 25.3,-3.6"/>
<polygon id="0000024F18ED96D0" class="l67d20" points="24.55,-6.9 27.85,-6.9 27.85,-1.1 24.55,-1.1"/>
<polygon id="0000024F18ED8B70" class="l66d20" points="-24.55,-3.6 -24.55,5 -22.75,5 -22.75,-3.6"/>
<polygon id="0000024F18ED94A0" class="l66d44" points="-21.95,-0.15 -21.95,1.55 -20.25,1.55 -20.25,-0.15"/>
<polygon id="0000024F18ED8E10" class="l67d20" points="-22.75,-0.95 -22.75,2.35 -19.45,2.35 -19.45,-0.95"/>
<polygon id="0000024F18ED8B00" class="l67d20" points="-22.75,-1.1 -22.75,2.5 -19.45,2.5 -19.45,-1.1"/>
<polygon id="0000024F18ED9510" class="l66d44" points="-27.05,-0.15 -27.05,1.55 -25.35,1.55 -25.35,-0.15"/>
<polygon id="0000024F18ED8D30" class="l67d20" points="-27.85,-0.95 -27.85,2.35 -24.55,2.35 -24.55,-0.95"/>
<polygon id="0000024F18ED8C50" class="l67d20" points="-27.85,-1.1 -27.85,2.5 -24.55,2.5 -24.55,-1.1"/>
<polygon id="0000024F18ED9120" class="l93d44" points="-29.75,-2.4 -29.75,3.8 -17.55,3.8 -17.55,-2.4"/>
<polygon id="0000024F18ED8DA0" class="l65d20" points="-28.45,-1.1 -28.45,2.5 -18.85,2.5 -18.85,-1.1"/>
<polygon id="0000024F18EDA230" class="l66d44" points="-24.5,-6.1 -24.5,-4.4 -22.8,-4.4 -22.8,-6.1"/>
<polygon id="0000024F18ED9AC0" class="l66d20" points="-25.3,-6.9 -25.3,-3.6 -22,-3.6 -22,-6.9"/>
<polygon id="0000024F18ED99E0" class="l67d20" points="-25.3,-6.9 -25.3,-3.6 -22,-3.6 -22,-6.9"/>
<polygon id="0000024F18ED9C80" class="l66d20" points="-25.3,-6.9 -25.3,-3.6 -22,-3.6 -22,-6.9"/>
<polygon id="0000024F18EDA5B0" class="l95d20" points="-25.5,-7.1 -21.8,-7.1 -21.8,-3.4 -25.5,-3.4"/>
<polygon id="0000024F18ED9C10" class="l67d20" points="-27.85,-6.9 -25.3,-6.9 -25.3,-3.6 -27.85,-3.6"/>
<polygon id="0000024F18ED9B30" class="l67d20" points="-27.85,-6.9 -24.55,-6.9 -24.55,-1.1 -27.85,-1.1"/>
<polygon id="0000024F18EDA460" class="l67d20" points="-22,-6.9 -19.45,-6.9 -19.45,-3.6 -22,-3.6"/>
<polygon id="0000024F18ED9900" class="l67d20" points="-22.75,-6.9 -19.45,-6.9 -19.45,-1.1 -22.75,-1.1"/>
<polygon id="0000024F18ED9DD0" class="l68d20" points="-11.65,8.25 -11.65,11.15 11.65,11.15 11.65,8.25"/>
<polygon id="0000024F18EDA380" class="l68d20" points="-11.65,3.95 -11.65,6.85 11.65,6.85 11.65,3.95"/>
<polygon id="0000024F18ED9EB0" class="l66d44" points="-5.85,-10.2 -5.85,-8.5 -4.15,-8.5 -4.15,-10.2"/>
<polygon id="0000024F18ED9A50" class="l68d20" points="-6.45,-10.8 -6.45,-7.9 -3.55,-7.9 -3.55,-10.8"/>
<polygon id="0000024F18EDE130" class="l67d20" points="-6.65,-11 -6.65,-7.7 -3.35,-7.7 -3.35,-11"/>
<polygon id="0000024F18EDE910" class="l67d44" points="-5.85,-10.2 -5.85,-8.5 -4.15,-8.5 -4.15,-10.2"/>
<polygon id="0000024F18EDE0C0" class="l66d20" points="-6.65,-11 -6.65,-7.7 -3.35,-7.7 -3.35,-11"/>
<polygon id="0000024F18EDE9F0" class="l66d44" points="4.15,-10.2 4.15,-8.5 5.85,-8.5 5.85,-10.2"/>
<polygon id="0000024F18EDE7C0" class="l68d20" points="3.55,-10.8 3.55,-7.9 6.45,-7.9 6.45,-10.8"/>
<polygon id="0000024F18EDE520" class="l67d20" points="3.35,-11 3.35,-7.7 6.65,-7.7 6.65,-11"/>
<polygon id="0000024F18EDE3D0" class="l67d44" points="4.15,-10.2 4.15,-8.5 5.85,-8.5 5.85,-10.2"/>
<polygon id="0000024F18EDEA60" class="l66d20" points="3.35,-11 3.35,-7.7 6.65,-7.7 6.65,-11"/>
<polygon id="0000024F18EDE050" class="l66d44" points="-0.85,-10.2 -0.85,-8.5 0.85,-8.5 0.85,-10.2"/>
<polygon id="0000024F18EDE8A0" class="l68d20" points="-1.45,-10.8 -1.45,-7.9 1.45,-7.9 1.45,-10.8"/>
<polygon id="0000024F18EDE440" class="l67d20" points="-1.65,-11 -1.65,-7.7 1.65,-7.7 1.65,-11"/>
<polygon id="0000024F18EDDF70" class="l67d44" points="-0.85,-10.2 -0.85,-8.5 0.85,-8.5 0.85,-10.2"/>
<polygon id="0000024F18EDDFE0" class="l66d20" points="-1.65,-11 -1.65,-7.7 1.65,-7.7 1.65,-11"/>
<polygon id="0000024F18EDDF00" class="l68d20" points="-8.55,-11 -8.55,-7.7 8.55,-7.7 8.55,-11"/>
<polygon id="0000024F18EDEC20" class="l66d20" points="-8.55,-11 -8.55,-7.7 8.55,-7.7 8.55,-11"/>
<polygon id="0000024F18EDEE50" class="l95d20" points="-1.85,-11.2 1.85,-11.2 1.85,-7.5 -1.85,-7.5"/>
<polygon id="0000024F18EDEEC0" class="l95d20" points="3.15,-11.2 6.85,-11.2 6.85,-7.5 3.15,-7.5"/>
<polygon id="0000024F18EDF4E0" class="l95d20" points="-6.85,-11.2 -3.15,-11.2 -3.15,-7.5 -6.85,-7.5"/>
<polygon id="0000024F18EDF320" class="l95d20" points="-1.85,-11.2 6.85,-11.2 6.85,-7.5 -1.85,-7.5"/>
<polygon id="0000024F18EDF7F0" class="l95d20" points="-6.85,-11.2 1.85,-11.2 1.85,-7.5 -6.85,-7.5"/>
<polygon id="0000024F18EDF8D0" class="l95d20" points="-1.85,-11.2 6.85,-11.2 6.85,-7.5 -1.85,-7.5"/>
<polygon id="0000024F18EDF2B0" class="l95d20" points="-6.85,-11.2 1.85,-11.2 1.85,-7.5 -6.85,-7.5"/>
<polygon id="0000024F18EDF6A0" class="l67d20" points="8.55,2.5 11.85,2.5 11.85,6.25 8.55,6.25"/>
<polygon id="0000024F18EDED70" class="l67d44" points="9.35,4.55 9.35,6.25 11.05,6.25 11.05,4.55"/>
<polygon id="0000024F18EDF400" class="l68d20" points="8.75,3.95 8.75,6.85 11.65,6.85 11.65,3.95"/>
<polygon id="0000024F18EDEF30" class="l67d20" points="9.35,4.55 9.35,6.25 11.05,6.25 11.05,4.55"/>
<polygon id="0000024F18EDF1D0" class="l66d20" points="6.75,-7.7 8.55,-7.7 8.55,-3.6 6.75,-3.6"/>
<polygon id="0000024F18EDF630" class="l67d20" points="3.45,2.5 6.75,2.5 6.75,10.55 3.45,10.55"/>
<polygon id="0000024F18EDED00" class="l67d44" points="4.25,8.85 4.25,10.55 5.95,10.55 5.95,8.85"/>
<polygon id="0000024F18EDF0F0" class="l68d20" points="3.65,8.25 3.65,11.15 6.55,11.15 6.55,8.25"/>
<polygon id="0000024F18EDF860" class="l67d20" points="4.25,8.85 4.25,10.55 5.95,10.55 5.95,8.85"/>
<polygon id="0000024F18EDF390" class="l66d20" points="1.65,-7.7 3.45,-7.7 3.45,-3.6 1.65,-3.6"/>
<polygon id="0000024F18EDF550" class="l67d20" points="-1.65,2.5 1.65,2.5 1.65,6.25 -1.65,6.25"/>
<polygon id="0000024F18EDF160" class="l67d44" points="-0.85,4.55 -0.85,6.25 0.85,6.25 0.85,4.55"/>
<polygon id="0000024F18EDF240" class="l68d20" points="-1.45,3.95 -1.45,6.85 1.45,6.85 1.45,3.95"/>
<polygon id="0000024F18EDF710" class="l67d20" points="-0.85,4.55 -0.85,6.25 0.85,6.25 0.85,4.55"/>
<polygon id="0000024F18EDF080" class="l66d20" points="-3.45,-7.7 -1.65,-7.7 -1.65,-3.6 -3.45,-3.6"/>
<polygon id="0000024F18EDFBE0" class="l67d20" points="-6.75,2.5 -3.45,2.5 -3.45,10.55 -6.75,10.55"/>
<polygon id="0000024F18EE0200" class="l67d44" points="-5.95,8.85 -5.95,10.55 -4.25,10.55 -4.25,8.85"/>
<polygon id="0000024F18EDFCC0" class="l68d20" points="-6.55,8.25 -6.55,11.15 -3.65,11.15 -3.65,8.25"/>
<polygon id="0000024F18EDFFD0" class="l67d20" points="-5.95,8.85 -5.95,10.55 -4.25,10.55 -4.25,8.85"/>
<polygon id="0000024F18EE0740" class="l66d20" points="-8.55,-7.7 -6.75,-7.7 -6.75,-3.6 -8.55,-3.6"/>
<polygon id="0000024F18EDFB70" class="l67d20" points="-11.85,2.5 -8.55,2.5 -8.55,6.25 -11.85,6.25"/>
<polygon id="0000024F180DA4F0" class="l67d20" points="22,-6.9 39.15,-6.9 39.15,-3.6 22,-3.6"/>
<polygon id="0000024F180DA3A0" class="l67d20" points="-39.15,-6.9 -25.3,-6.9 -25.3,-3.6 -39.15,-3.6"/>
<polygon id="0000024F180DA250" class="l65d20" points="39.15,20.55 -39.15,20.55 -39.15,-16.45 -35.05,-16.45 -35.05,16.45 35.05,16.45 35.05,-16.45 -35.05,-16.45 -39.15,-16.45 -39.15,-20.55 39.15,-20.55"/>
<polygon id="0000024F180DA480" class="l68d20" points="35.05,-20.55 39.15,-20.55 39.15,-16.45 35.05,-16.45"/>
<polygon id="0000024F180D9D10" class="l67d44" points="36.25,-19.35 36.25,-17.65 37.95,-17.65 37.95,-19.35"/>
<polygon id="0000024F180D9F40" class="l68d20" points="35.65,-19.95 35.65,-17.05 38.55,-17.05 38.55,-19.95"/>
<polygon id="0000024F180D9BC0" class="l67d20" points="36.25,-19.35 36.25,-17.65 37.95,-17.65 37.95,-19.35"/>
<polygon id="0000024F180DAF00" class="l68d20" points="35.05,-20.55 35.05,-16.45 39.15,-16.45 39.15,-20.55"/>
<polygon id="0000024F180DACD0" class="l67d20" points="36.25,-19.35 36.25,-17.65 37.95,-17.65 37.95,-19.35"/>
<polygon id="0000024F180DA8E0" class="l67d20" points="35.05,-20.55 39.15,-20.55 39.15,-16.45 35.05,-16.45"/>
<polygon id="0000024F180DAD40" class="l68d20" points="-39.15,-20.55 -35.05,-20.55 -35.05,-16.45 -39.15,-16.45"/>
<polygon id="0000024F180DAB10" class="l67d44" points="-37.95,-19.35 -37.95,-17.65 -36.25,-17.65 -36.25,-19.35"/>
<polygon id="0000024F180DA870" class="l68d20" points="-38.55,-19.95 -38.55,-17.05 -35.65,-17.05 -35.65,-19.95"/>
<polygon id="0000024F180DABF0" class="l67d20" points="-37.95,-19.35 -37.95,-17.65 -36.25,-17.65 -36.25,-19.35"/>
<polygon id="0000024F180DAF70" class="l68d20" points="-39.15,-20.55 -39.15,-16.45 -35.05,-16.45 -35.05,-20.55"/>
<polygon id="0000024F180D8650" class="l67d20" points="-37.95,-19.35 -37.95,-17.65 -36.25,-17.65 -36.25,-19.35"/>
<polygon id="0000024F180D85E0" class="l67d20" points="-39.15,-20.55 -35.05,-20.55 -35.05,-16.45 -39.15,-16.45"/>
<polygon id="0000024F180D86C0" class="l68d20" points="35.05,16.45 39.15,16.45 39.15,20.55 35.05,20.55"/>
<polygon id="0000024F180D88F0" class="l67d44" points="36.25,17.65 36.25,19.35 37.95,19.35 37.95,17.65"/>
<polygon id="0000024F180D8B20" class="l68d20" points="35.65,17.05 35.65,19.95 38.55,19.95 38.55,17.05"/>
<polygon id="0000024F180D8110" class="l67d20" points="36.25,17.65 36.25,19.35 37.95,19.35 37.95,17.65"/>
<polygon id="0000024F180D8260" class="l68d20" points="35.05,16.45 35.05,20.55 39.15,20.55 39.15,16.45"/>
<polygon id="0000024F180D8F10" class="l67d20" points="36.25,17.65 36.25,19.35 37.95,19.35 37.95,17.65"/>
<polygon id="0000024F180D8C70" class="l67d20" points="35.05,16.45 39.15,16.45 39.15,20.55 35.05,20.55"/>
<polygon id="0000024F180D9680" class="l68d20" points="-39.15,16.45 -35.05,16.45 -35.05,20.55 -39.15,20.55"/>
<polygon id="0000024F180D9140" class="l67d44" points="-37.95,17.65 -37.95,19.35 -36.25,19.35 -36.25,17.65"/>
<polygon id="0000024F180D8CE0" class="l68d20" points="-38.55,17.05 -38.55,19.95 -35.65,19.95 -35.65,17.05"/>
<polygon id="0000024F180D9920" class="l67d20" points="-37.95,17.65 -37.95,19.35 -36.25,19.35 -36.25,17.65"/>
<polygon id="0000024F180D96F0" class="l68d20" points="-39.15,16.45 -39.15,20.55 -35.05,20.55 -35.05,16.45"/>
<polygon id="0000024F180D9300" class="l67d20" points="-37.95,17.65 -37.95,19.35 -36.25,19.35 -36.25,17.65"/>
<polygon id="0000024F180D8D50" class="l67d20" points="-39.15,16.45 -35.05,16.45 -35.05,20.55 -39.15,20.55"/>
<polygon id="0000024F180D9610" class="l66d44" points="-37.95,-12.75 -37.95,-11.05 -36.25,-11.05 -36.25,-12.75"/>
<polygon id="0000024F180D91B0" class="l67d20" points="-38.75,-13.55 -38.75,-10.25 -35.45,-10.25 -35.45,-13.55"/>
<polygon id="0000024F180D90D0" class="l65d20" points="-39.15,-13.95 -39.15,-9.85 -35.05,-9.85 -35.05,-13.95"/>
<polygon id="0000024F180D94C0" class="l66d44" points="-37.95,11.05 -37.95,12.75 -36.25,12.75 -36.25,11.05"/>
<polygon id="0000024F180D9840" class="l67d20" points="-38.75,10.25 -38.75,13.55 -35.45,13.55 -35.45,10.25"/>
<polygon id="0000024F180D8EA0" class="l65d20" points="-39.15,9.85 -39.15,13.95 -35.05,13.95 -35.05,9.85"/>
<polygon id="0000024F180D9450" class="l66d44" points="-37.95,7.65 -37.95,9.35 -36.25,9.35 -36.25,7.65"/>
<polygon id="0000024F180D9370" class="l67d20" points="-38.75,6.85 -38.75,10.15 -35.45,10.15 -35.45,6.85"/>
<polygon id="0000024F180D8F80" class="l65d20" points="-39.15,6.45 -39.15,10.55 -35.05,10.55 -35.05,6.45"/>
<polygon id="0000024F180D9530" class="l66d44" points="-37.95,4.25 -37.95,5.95 -36.25,5.95 -36.25,4.25"/>
<polygon id="0000024F12D4B380" class="l67d20" points="-38.75,3.45 -38.75,6.75 -35.45,6.75 -35.45,3.45"/>
<polygon id="0000024F12D4BA80" class="l65d20" points="-39.15,3.05 -39.15,7.15 -35.05,7.15 -35.05,3.05"/>
<polygon id="0000024F12D4C880" class="l66d44" points="-37.95,0.85 -37.95,2.55 -36.25,2.55 -36.25,0.85"/>
<polygon id="0000024F12D4CAB0" class="l67d20" points="-38.75,0.05 -38.75,3.35 -35.45,3.35 -35.45,0.05"/>
<polygon id="0000024F12D4DBC0" class="l65d20" points="-39.15,-0.35 -39.15,3.75 -35.05,3.75 -35.05,-0.35"/>
<polygon id="0000024F12D4DFB0" class="l66d44" points="-37.95,-2.55 -37.95,-0.85 -36.25,-0.85 -36.25,-2.55"/>
<polygon id="0000024F12D4DB50" class="l67d20" points="-38.75,-3.35 -38.75,-0.05 -35.45,-0.05 -35.45,-3.35"/>
<polygon id="0000024F12D4DE60" class="l65d20" points="-39.15,-3.75 -39.15,0.35 -35.05,0.35 -35.05,-3.75"/>
<polygon id="0000024F12D4E560" class="l66d44" points="-37.95,-5.95 -37.95,-4.25 -36.25,-4.25 -36.25,-5.95"/>
<polygon id="0000024F12D4EE20" class="l67d20" points="-38.75,-6.75 -38.75,-3.45 -35.45,-3.45 -35.45,-6.75"/>
<polygon id="0000024F12D4EAA0" class="l65d20" points="-39.15,-7.15 -39.15,-3.05 -35.05,-3.05 -35.05,-7.15"/>
<polygon id="0000024F12D4EE90" class="l66d44" points="-37.95,-9.35 -37.95,-7.65 -36.25,-7.65 -36.25,-9.35"/>
<polygon id="0000024F12D4E9C0" class="l67d20" points="-38.75,-10.15 -38.75,-6.85 -35.45,-6.85 -35.45,-10.15"/>
<polygon id="0000024F184A27E0" class="l65d20" points="-39.15,-10.55 -39.15,-6.45 -35.05,-6.45 -35.05,-10.55"/>
<polygon id="0000024F184A2FC0" class="l67d20" points="-39.15,-16.45 -39.15,16.45 -35.05,16.45 -35.05,-16.45"/>
<polygon id="0000024F184A2B60" class="l65d20" points="-39.15,-13.95 -39.15,13.95 -35.05,13.95 -35.05,-13.95"/>
<polygon id="0000024F184A2F50" class="l66d44" points="-28.35,-19.35 -28.35,-17.65 -26.65,-17.65 -26.65,-19.35"/>
<polygon id="0000024F184A33B0" class="l68d20" points="-28.95,-19.95 -28.95,-17.05 -26.05,-17.05 -26.05,-19.95"/>
<polygon id="0000024F184A30A0" class="l67d20" points="-29.15,-20.15 -29.15,-16.85 -25.85,-16.85 -25.85,-20.15"/>
<polygon id="0000024F184A3340" class="l67d44" points="-28.35,-19.35 -28.35,-17.65 -26.65,-17.65 -26.65,-19.35"/>
<polygon id="0000024F184A2CB0" class="l65d20" points="-29.55,-20.55 -29.55,-16.45 -25.45,-16.45 -25.45,-20.55"/>
<polygon id="0000024F184A2A80" class="l66d44" points="26.65,-19.35 26.65,-17.65 28.35,-17.65 28.35,-19.35"/>
<polygon id="0000024F184A28C0" class="l68d20" points="26.05,-19.95 26.05,-17.05 28.95,-17.05 28.95,-19.95"/>
<polygon id="0000024F184A3260" class="l67d20" points="25.85,-20.15 25.85,-16.85 29.15,-16.85 29.15,-20.15"/>
<polygon id="0000024F184A29A0" class="l67d44" points="26.65,-19.35 26.65,-17.65 28.35,-17.65 28.35,-19.35"/>
<polygon id="0000024F184A2D20" class="l65d20" points="25.45,-20.55 25.45,-16.45 29.55,-16.45 29.55,-20.55"/>
<polygon id="0000024F184A2A10" class="l66d44" points="21.65,-19.35 21.65,-17.65 23.35,-17.65 23.35,-19.35"/>
<polygon id="0000024F184A2BD0" class="l68d20" points="21.05,-19.95 21.05,-17.05 23.95,-17.05 23.95,-19.95"/>
<polygon id="0000024F184A3420" class="l67d20" points="20.85,-20.15 20.85,-16.85 24.15,-16.85 24.15,-20.15"/>
<polygon id="0000024F184A3490" class="l67d44" points="21.65,-19.35 21.65,-17.65 23.35,-17.65 23.35,-19.35"/>
<polygon id="0000024F184A2770" class="l65d20" points="20.45,-20.55 20.45,-16.45 24.55,-16.45 24.55,-20.55"/>
<polygon id="0000024F184A2AF0" class="l66d44" points="16.65,-19.35 16.65,-17.65 18.35,-17.65 18.35,-19.35"/>
<polygon id="0000024F184A22A0" class="l68d20" points="16.05,-19.95 16.05,-17.05 18.95,-17.05 18.95,-19.95"/>
<polygon id="0000024F184A2150" class="l67d20" points="15.85,-20.15 15.85,-16.85 19.15,-16.85 19.15,-20.15"/>
<polygon id="0000024F184A1C80" class="l67d44" points="16.65,-19.35 16.65,-17.65 18.35,-17.65 18.35,-19.35"/>
<polygon id="0000024F184A1D60" class="l65d20" points="15.45,-20.55 15.45,-16.45 19.55,-16.45 19.55,-20.55"/>
<polygon id="0000024F184A2690" class="l66d44" points="11.65,-19.35 11.65,-17.65 13.35,-17.65 13.35,-19.35"/>
<polygon id="0000024F194C5D80" class="l68d20" points="11.05,-19.95 11.05,-17.05 13.95,-17.05 13.95,-19.95"/>
<polygon id="0000024F194C5E60" class="l67d20" points="10.85,-20.15 10.85,-16.85 14.15,-16.85 14.15,-20.15"/>
<polygon id="0000024F194C5B50" class="l67d44" points="11.65,-19.35 11.65,-17.65 13.35,-17.65 13.35,-19.35"/>
<polygon id="0000024F194C5F40" class="l65d20" points="10.45,-20.55 10.45,-16.45 14.55,-16.45 14.55,-20.55"/>
<polygon id="0000024F194C51B0" class="l66d44" points="6.65,-19.35 6.65,-17.65 8.35,-17.65 8.35,-19.35"/>
<polygon id="0000024F194C5530" class="l68d20" points="6.05,-19.95 6.05,-17.05 8.95,-17.05 8.95,-19.95"/>
<polygon id="0000024F194C5290" class="l67d20" points="5.85,-20.15 5.85,-16.85 9.15,-16.85 9.15,-20.15"/>
<polygon id="0000024F194C5DF0" class="l67d44" points="6.65,-19.35 6.65,-17.65 8.35,-17.65 8.35,-19.35"/>
<polygon id="0000024F194C5A70" class="l65d20" points="5.45,-20.55 5.45,-16.45 9.55,-16.45 9.55,-20.55"/>
<polygon id="0000024F194C5AE0" class="l66d44" points="1.65,-19.35 1.65,-17.65 3.35,-17.65 3.35,-19.35"/>
<polygon id="0000024F194C54C0" class="l68d20" points="1.05,-19.95 1.05,-17.05 3.95,-17.05 3.95,-19.95"/>
<polygon id="0000024F194C5A00" class="l67d20" points="0.85,-20.15 0.85,-16.85 4.15,-16.85 4.15,-20.15"/>
<polygon id="0000024F194C5680" class="l67d44" points="1.65,-19.35 1.65,-17.65 3.35,-17.65 3.35,-19.35"/>
<polygon id="0000024F194C5C30" class="l65d20" points="0.45,-20.55 0.45,-16.45 4.55,-16.45 4.55,-20.55"/>
<polygon id="0000024F194C5CA0" class="l66d44" points="-3.35,-19.35 -3.35,-17.65 -1.65,-17.65 -1.65,-19.35"/>
<polygon id="0000024F194C58B0" class="l68d20" points="-3.95,-19.95 -3.95,-17.05 -1.05,-17.05 -1.05,-19.95"/>
<polygon id="0000024F194C56F0" class="l67d20" points="-4.15,-20.15 -4.15,-16.85 -0.85,-16.85 -0.85,-20.15"/>
<polygon id="0000024F194C5ED0" class="l67d44" points="-3.35,-19.35 -3.35,-17.65 -1.65,-17.65 -1.65,-19.35"/>
<polygon id="0000024F194C5920" class="l65d20" points="-4.55,-20.55 -4.55,-16.45 -0.45,-16.45 -0.45,-20.55"/>
<polygon id="0000024F194C5BC0" class="l66d44" points="-8.35,-19.35 -8.35,-17.65 -6.65,-17.65 -6.65,-19.35"/>
<polygon id="0000024F194C5220" class="l68d20" points="-8.95,-19.95 -8.95,-17.05 -6.05,-17.05 -6.05,-19.95"/>
<polygon id="0000024F194C53E0" class="l67d20" points="-9.15,-20.15 -9.15,-16.85 -5.85,-16.85 -5.85,-20.15"/>
<polygon id="0000024F194C5760" class="l67d44" points="-8.35,-19.35 -8.35,-17.65 -6.65,-17.65 -6.65,-19.35"/>
<polygon id="0000024F194C5990" class="l65d20" points="-9.55,-20.55 -9.55,-16.45 -5.45,-16.45 -5.45,-20.55"/>
<polygon id="0000024F194C5D10" class="l66d44" points="-13.35,-19.35 -13.35,-17.65 -11.65,-17.65 -11.65,-19.35"/>
<polygon id="0000024F194C5840" class="l68d20" points="-13.95,-19.95 -13.95,-17.05 -11.05,-17.05 -11.05,-19.95"/>
<polygon id="0000024F194C5450" class="l67d20" points="-14.15,-20.15 -14.15,-16.85 -10.85,-16.85 -10.85,-20.15"/>
<polygon id="0000024F194C5610" class="l67d44" points="-13.35,-19.35 -13.35,-17.65 -11.65,-17.65 -11.65,-19.35"/>
<polygon id="0000024F194C5300" class="l65d20" points="-14.55,-20.55 -14.55,-16.45 -10.45,-16.45 -10.45,-20.55"/>
<polygon id="0000024F194C55A0" class="l66d44" points="-18.35,-19.35 -18.35,-17.65 -16.65,-17.65 -16.65,-19.35"/>
<polygon id="0000024F194C5370" class="l68d20" points="-18.95,-19.95 -18.95,-17.05 -16.05,-17.05 -16.05,-19.95"/>
<polygon id="0000024F194C57D0" class="l67d20" points="-19.15,-20.15 -19.15,-16.85 -15.85,-16.85 -15.85,-20.15"/>
<polygon id="0000024F194C6950" class="l67d44" points="-18.35,-19.35 -18.35,-17.65 -16.65,-17.65 -16.65,-19.35"/>
<polygon id="0000024F194C6090" class="l65d20" points="-19.55,-20.55 -19.55,-16.45 -15.45,-16.45 -15.45,-20.55"/>
<polygon id="0000024F194C6720" class="l66d44" points="-23.35,-19.35 -23.35,-17.65 -21.65,-17.65 -21.65,-19.35"/>
<polygon id="0000024F194C6100" class="l68d20" points="-23.95,-19.95 -23.95,-17.05 -21.05,-17.05 -21.05,-19.95"/>
<polygon id="0000024F194C6B80" class="l67d20" points="-24.15,-20.15 -24.15,-16.85 -20.85,-16.85 -20.85,-20.15"/>
<polygon id="0000024F194C6AA0" class="l67d44" points="-23.35,-19.35 -23.35,-17.65 -21.65,-17.65 -21.65,-19.35"/>
<polygon id="0000024F194C65D0" class="l65d20" points="-24.55,-20.55 -24.55,-16.45 -20.45,-16.45 -20.45,-20.55"/>
<polygon id="0000024F194C6020" class="l67d20" points="-29.15,-20.15 -29.15,-16.85 29.15,-16.85 29.15,-20.15"/>
<polygon id="0000024F194C6CD0" class="l68d20" points="-35.05,-20.55 -35.05,-16.45 35.05,-16.45 35.05,-20.55"/>
<polygon id="0000024F194C64F0" class="l65d20" points="-29.55,-20.55 -29.55,-16.45 29.55,-16.45 29.55,-20.55"/>
<polygon id="0000024F194C6BF0" class="l66d44" points="36.25,-12.75 36.25,-11.05 37.95,-11.05 37.95,-12.75"/>
<polygon id="0000024F194C66B0" class="l67d20" points="35.45,-13.55 35.45,-10.25 38.75,-10.25 38.75,-13.55"/>
<polygon id="0000024F194C6410" class="l65d20" points="35.05,-13.95 35.05,-9.85 39.15,-9.85 39.15,-13.95"/>
<polygon id="0000024F194C6480" class="l66d44" points="36.25,11.05 36.25,12.75 37.95,12.75 37.95,11.05"/>
<polygon id="0000024F194C6B10" class="l67d20" points="35.45,10.25 35.45,13.55 38.75,13.55 38.75,10.25"/>
<polygon id="0000024F194C6D40" class="l65d20" points="35.05,9.85 35.05,13.95 39.15,13.95 39.15,9.85"/>
<polygon id="0000024F194C68E0" class="l66d44" points="36.25,7.65 36.25,9.35 37.95,9.35 37.95,7.65"/>
<polygon id="0000024F194C6870" class="l67d20" points="35.45,6.85 35.45,10.15 38.75,10.15 38.75,6.85"/>
<polygon id="0000024F194C6170" class="l65d20" points="35.05,6.45 35.05,10.55 39.15,10.55 39.15,6.45"/>
<polygon id="0000024F194C69C0" class="l66d44" points="36.25,4.25 36.25,5.95 37.95,5.95 37.95,4.25"/>
<polygon id="0000024F194C5FB0" class="l67d20" points="35.45,3.45 35.45,6.75 38.75,6.75 38.75,3.45"/>
<polygon id="0000024F194C6560" class="l65d20" points="35.05,3.05 35.05,7.15 39.15,7.15 39.15,3.05"/>
<polygon id="0000024F194C6C60" class="l66d44" points="36.25,0.85 36.25,2.55 37.95,2.55 37.95,0.85"/>
<polygon id="0000024F194C63A0" class="l67d20" points="35.45,0.05 35.45,3.35 38.75,3.35 38.75,0.05"/>
<polygon id="0000024F194C6250" class="l65d20" points="35.05,-0.35 35.05,3.75 39.15,3.75 39.15,-0.35"/>
<polygon id="0000024F194C6A30" class="l66d44" points="36.25,-2.55 36.25,-0.85 37.95,-0.85 37.95,-2.55"/>
<polygon id="0000024F194C61E0" class="l67d20" points="35.45,-3.35 35.45,-0.05 38.75,-0.05 38.75,-3.35"/>
<polygon id="0000024F194C6790" class="l65d20" points="35.05,-3.75 35.05,0.35 39.15,0.35 39.15,-3.75"/>
<polygon id="0000024F194C62C0" class="l66d44" points="36.25,-5.95 36.25,-4.25 37.95,-4.25 37.95,-5.95"/>
<polygon id="0000024F194C6330" class="l67d20" points="35.45,-6.75 35.45,-3.45 38.75,-3.45 38.75,-6.75"/>
<polygon id="0000024F194C6800" class="l65d20" points="35.05,-7.15 35.05,-3.05 39.15,-3.05 39.15,-7.15"/>
<polygon id="0000024F194C6640" class="l66d44" points="36.25,-9.35 36.25,-7.65 37.95,-7.65 37.95,-9.35"/>
<polygon id="0000024F194C78A0" class="l67d20" points="35.45,-10.15 35.45,-6.85 38.75,-6.85 38.75,-10.15"/>
<polygon id="0000024F194C6FE0" class="l65d20" points="35.05,-10.55 35.05,-6.45 39.15,-6.45 39.15,-10.55"/>
<polygon id="0000024F194C7910" class="l67d20" points="35.05,-16.45 35.05,16.45 39.15,16.45 39.15,-16.45"/>
<polygon id="0000024F194C7A60" class="l65d20" points="35.05,-13.95 35.05,13.95 39.15,13.95 39.15,-13.95"/>
<polygon id="0000024F194C79F0" class="l66d44" points="-28.35,17.65 -28.35,19.35 -26.65,19.35 -26.65,17.65"/>
<polygon id="0000024F194C7600" class="l68d20" points="-28.95,17.05 -28.95,19.95 -26.05,19.95 -26.05,17.05"/>
<polygon id="0000024F194C76E0" class="l67d20" points="-29.15,16.85 -29.15,20.15 -25.85,20.15 -25.85,16.85"/>
<polygon id="0000024F194C6E20" class="l67d44" points="-28.35,17.65 -28.35,19.35 -26.65,19.35 -26.65,17.65"/>
<polygon id="0000024F194C7830" class="l65d20" points="-29.55,16.45 -29.55,20.55 -25.45,20.55 -25.45,16.45"/>
<polygon id="0000024F194C7520" class="l66d44" points="26.65,17.65 26.65,19.35 28.35,19.35 28.35,17.65"/>
<polygon id="0000024F194C71A0" class="l68d20" points="26.05,17.05 26.05,19.95 28.95,19.95 28.95,17.05"/>
<polygon id="0000024F194C7360" class="l67d20" points="25.85,16.85 25.85,20.15 29.15,20.15 29.15,16.85"/>
<polygon id="0000024F194C6E90" class="l67d44" points="26.65,17.65 26.65,19.35 28.35,19.35 28.35,17.65"/>
<polygon id="0000024F194C6DB0" class="l65d20" points="25.45,16.45 25.45,20.55 29.55,20.55 29.55,16.45"/>
<polygon id="0000024F194C7050" class="l66d44" points="21.65,17.65 21.65,19.35 23.35,19.35 23.35,17.65"/>
<polygon id="0000024F194C77C0" class="l68d20" points="21.05,17.05 21.05,19.95 23.95,19.95 23.95,17.05"/>
<polygon id="0000024F194C7210" class="l67d20" points="20.85,16.85 20.85,20.15 24.15,20.15 24.15,16.85"/>
<polygon id="0000024F194C7440" class="l67d44" points="21.65,17.65 21.65,19.35 23.35,19.35 23.35,17.65"/>
<polygon id="0000024F194C70C0" class="l65d20" points="20.45,16.45 20.45,20.55 24.55,20.55 24.55,16.45"/>
<polygon id="0000024F194C7B40" class="l66d44" points="16.65,17.65 16.65,19.35 18.35,19.35 18.35,17.65"/>
<polygon id="0000024F194C7280" class="l68d20" points="16.05,17.05 16.05,19.95 18.95,19.95 18.95,17.05"/>
<polygon id="0000024F194C7590" class="l67d20" points="15.85,16.85 15.85,20.15 19.15,20.15 19.15,16.85"/>
<polygon id="0000024F194C72F0" class="l67d44" points="16.65,17.65 16.65,19.35 18.35,19.35 18.35,17.65"/>
<polygon id="0000024F194C6F70" class="l65d20" points="15.45,16.45 15.45,20.55 19.55,20.55 19.55,16.45"/>
<polygon id="0000024F194C6F00" class="l66d44" points="11.65,17.65 11.65,19.35 13.35,19.35 13.35,17.65"/>
<polygon id="0000024F194C7750" class="l68d20" points="11.05,17.05 11.05,19.95 13.95,19.95 13.95,17.05"/>
<polygon id="0000024F194C7130" class="l67d20" points="10.85,16.85 10.85,20.15 14.15,20.15 14.15,16.85"/>
<polygon id="0000024F194C7AD0" class="l67d44" points="11.65,17.65 11.65,19.35 13.35,19.35 13.35,17.65"/>
<polygon id="0000024F194C74B0" class="l65d20" points="10.45,16.45 10.45,20.55 14.55,20.55 14.55,16.45"/>
<polygon id="0000024F194C7980" class="l66d44" points="6.65,17.65 6.65,19.35 8.35,19.35 8.35,17.65"/>
<polygon id="0000024F194C73D0" class="l68d20" points="6.05,17.05 6.05,19.95 8.95,19.95 8.95,17.05"/>
<polygon id="0000024F194C7670" class="l67d20" points="5.85,16.85 5.85,20.15 9.15,20.15 9.15,16.85"/>
<polygon id="0000024F194C7E50" class="l67d44" points="6.65,17.65 6.65,19.35 8.35,19.35 8.35,17.65"/>
<polygon id="0000024F194C8010" class="l65d20" points="5.45,16.45 5.45,20.55 9.55,20.55 9.55,16.45"/>
<polygon id="0000024F194C87F0" class="l66d44" points="1.65,17.65 1.65,19.35 3.35,19.35 3.35,17.65"/>
<polygon id="0000024F194C7D00" class="l68d20" points="1.05,17.05 1.05,19.95 3.95,19.95 3.95,17.05"/>
<polygon id="0000024F194C8390" class="l67d20" points="0.85,16.85 0.85,20.15 4.15,20.15 4.15,16.85"/>
<polygon id="0000024F194C88D0" class="l67d44" points="1.65,17.65 1.65,19.35 3.35,19.35 3.35,17.65"/>
<polygon id="0000024F194C7F30" class="l65d20" points="0.45,16.45 0.45,20.55 4.55,20.55 4.55,16.45"/>
<polygon id="0000024F194C85C0" class="l66d44" points="-3.35,17.65 -3.35,19.35 -1.65,19.35 -1.65,17.65"/>
<polygon id="0000024F194C8160" class="l68d20" points="-3.95,17.05 -3.95,19.95 -1.05,19.95 -1.05,17.05"/>
<polygon id="0000024F194C7C20" class="l67d20" points="-4.15,16.85 -4.15,20.15 -0.85,20.15 -0.85,16.85"/>
<polygon id="0000024F194C7D70" class="l67d44" points="-3.35,17.65 -3.35,19.35 -1.65,19.35 -1.65,17.65"/>
<polygon id="0000024F194C8550" class="l65d20" points="-4.55,16.45 -4.55,20.55 -0.45,20.55 -0.45,16.45"/>
<polygon id="0000024F194C8240" class="l66d44" points="-8.35,17.65 -8.35,19.35 -6.65,19.35 -6.65,17.65"/>
<polygon id="0000024F194C8940" class="l68d20" points="-8.95,17.05 -8.95,19.95 -6.05,19.95 -6.05,17.05"/>
<polygon id="0000024F194C7BB0" class="l67d20" points="-9.15,16.85 -9.15,20.15 -5.85,20.15 -5.85,16.85"/>
<polygon id="0000024F194C7FA0" class="l67d44" points="-8.35,17.65 -8.35,19.35 -6.65,19.35 -6.65,17.65"/>
<polygon id="0000024F194C7DE0" class="l65d20" points="-9.55,16.45 -9.55,20.55 -5.45,20.55 -5.45,16.45"/>
<polygon id="0000024F194C8630" class="l66d44" points="-13.35,17.65 -13.35,19.35 -11.65,19.35 -11.65,17.65"/>
<polygon id="0000024F194C8080" class="l68d20" points="-13.95,17.05 -13.95,19.95 -11.05,19.95 -11.05,17.05"/>
<polygon id="0000024F194C86A0" class="l67d20" points="-14.15,16.85 -14.15,20.15 -10.85,20.15 -10.85,16.85"/>
<polygon id="0000024F194C80F0" class="l67d44" points="-13.35,17.65 -13.35,19.35 -11.65,19.35 -11.65,17.65"/>
<polygon id="0000024F194C7C90" class="l65d20" points="-14.55,16.45 -14.55,20.55 -10.45,20.55 -10.45,16.45"/>
<polygon id="0000024F194C7EC0" class="l66d44" points="-18.35,17.65 -18.35,19.35 -16.65,19.35 -16.65,17.65"/>
<polygon id="0000024F194C84E0" class="l68d20" points="-18.95,17.05 -18.95,19.95 -16.05,19.95 -16.05,17.05"/>
<polygon id="0000024F194C81D0" class="l67d20" points="-19.15,16.85 -19.15,20.15 -15.85,20.15 -15.85,16.85"/>
<polygon id="0000024F194C8320" class="l67d44" points="-18.35,17.65 -18.35,19.35 -16.65,19.35 -16.65,17.65"/>
<polygon id="0000024F194C8710" class="l65d20" points="-19.55,16.45 -19.55,20.55 -15.45,20.55 -15.45,16.45"/>
<polygon id="0000024F194C8470" class="l66d44" points="-23.35,17.65 -23.35,19.35 -21.65,19.35 -21.65,17.65"/>
<polygon id="0000024F194C82B0" class="l68d20" points="-23.95,17.05 -23.95,19.95 -21.05,19.95 -21.05,17.05"/>
<polygon id="0000024F194C8400" class="l67d20" points="-24.15,16.85 -24.15,20.15 -20.85,20.15 -20.85,16.85"/>
<polygon id="0000024F194C8860" class="l67d44" points="-23.35,17.65 -23.35,19.35 -21.65,19.35 -21.65,17.65"/>
<polygon id="0000024F194C8780" class="l65d20" points="-24.55,16.45 -24.55,20.55 -20.45,20.55 -20.45,16.45"/>
<polygon id="0000024F194C93C0" class="l67d20" points="-29.15,16.85 -29.15,20.15 29.15,20.15 29.15,16.85"/>
<polygon id="0000024F194C8B70" class="l68d20" points="-35.05,16.45 -35.05,20.55 35.05,20.55 35.05,16.45"/>
<polygon id="0000024F194C8A90" class="l65d20" points="-29.55,16.45 -29.55,20.55 29.55,20.55 29.55,16.45"/>
<polygon id="0000024F194C9270" class="l94d20" points="40.45,21.85 -40.45,21.85 -40.45,-15.15 -33.75,-15.15 -33.75,15.15 33.75,15.15 33.75,-15.15 -33.75,-15.15 -40.45,-15.15 -40.45,-21.85 40.45,-21.85"/>
</g>
<g id="Unnamed_eec33363">
<polygon id="0000024F194C8EF0" class="l64d44" points="-42.25,-23.65 42.25,-23.65 42.25,23.65 -42.25,23.65"/>
<polygon id="0000024F194C9200" class="l66d20" points="-8.55,-3.6 -8.55,5 -6.75,5 -6.75,-3.6"/>
<polygon id="0000024F194C8A20" class="l66d44" points="-5.95,-0.15 -5.95,1.55 -4.25,1.55 -4.25,-0.15"/>
<polygon id="0000024F194C9350" class="l67d20" points="-6.75,-0.95 -6.75,2.35 -3.45,2.35 -3.45,-0.95"/>
<polygon id="0000024F194C9510" class="l67d20" points="-6.75,-1.1 -6.75,2.5 -3.45,2.5 -3.45,-1.1"/>
<polygon id="0000024F194C8F60" class="l67d44" points="-5.95,-0.15 -5.95,1.55 -4.25,1.55 -4.25,-0.15"/>
<polygon id="0000024F194C92E0" class="l68d20" points="-6.55,-0.75 -6.55,2.15 -3.65,2.15 -3.65,-0.75"/>
<polygon id="0000024F194C94A0" class="l67d20" points="-5.95,-0.15 -5.95,1.55 -4.25,1.55 -4.25,-0.15"/>
<polygon id="0000024F194C95F0" class="l68d20" points="-6.55,-1.1 -6.55,2.5 -3.65,2.5 -3.65,-1.1"/>
<polygon id="0000024F194C8E10" class="l67d20" points="-5.95,-0.15 -5.95,1.55 -4.25,1.55 -4.25,-0.15"/>
<polygon id="0000024F194C90B0" class="l66d20" points="6.75,-3.6 6.75,5 8.55,5 8.55,-3.6"/>
<polygon id="0000024F194C8B00" class="l66d44" points="9.35,-0.15 9.35,1.55 11.05,1.55 11.05,-0.15"/>
<polygon id="0000024F194C96D0" class="l67d20" points="8.55,-0.95 8.55,2.35 11.85,2.35 11.85,-0.95"/>
<polygon id="0000024F194C8BE0" class="l67d20" points="8.55,-1.1 8.55,2.5 11.85,2.5 11.85,-1.1"/>
<polygon id="0000024F194C8DA0" class="l67d44" points="9.35,-0.15 9.35,1.55 11.05,1.55 11.05,-0.15"/>
<polygon id="0000024F194C8D30" class="l68d20" points="8.75,-0.75 8.75,2.15 11.65,2.15 11.65,-0.75"/>
<polygon id="0000024F194C9190" class="l67d20" points="9.35,-0.15 9.35,1.55 11.05,1.55 11.05,-0.15"/>
<polygon id="0000024F194C8C50" class="l68d20" points="8.75,-1.1 8.75,2.5 11.65,2.5 11.65,-1.1"/>
<polygon id="0000024F194C9120" class="l67d20" points="9.35,-0.15 9.35,1.55 11.05,1.55 11.05,-0.15"/>
<polygon id="0000024F194C8E80" class="l66d20" points="1.65,-3.6 1.65,5 3.45,5 3.45,-3.6"/>
<polygon id="0000024F194C9040" class="l66d44" points="4.25,-0.15 4.25,1.55 5.95,1.55 5.95,-0.15"/>
<polygon id="0000024F194C8CC0" class="l67d20" points="3.45,-0.95 3.45,2.35 6.75,2.35 6.75,-0.95"/>
<polygon id="0000024F194C8FD0" class="l67d20" points="3.45,-1.1 3.45,2.5 6.75,2.5 6.75,-1.1"/>
<polygon id="0000024F194C9660" class="l67d44" points="4.25,-0.15 4.25,1.55 5.95,1.55 5.95,-0.15"/>
<polygon id="0000024F194C89B0" class="l68d20" points="3.65,-0.75 3.65,2.15 6.55,2.15 6.55,-0.75"/>
<polygon id="0000024F194C9580" class="l67d20" points="4.25,-0.15 4.25,1.55 5.95,1.55 5.95,-0.15"/>
<polygon id="0000024F194C9430" class="l68d20" points="3.65,-1.1 3.65,2.5 6.55,2.5 6.55,-1.1"/>
<polygon id="0000024F194C9740" class="l67d20" points="4.25,-0.15 4.25,1.55 5.95,1.55 5.95,-0.15"/>
<polygon id="0000024F194CA2A0" class="l66d20" points="-3.45,-3.6 -3.45,5 -1.65,5 -1.65,-3.6"/>
<polygon id="0000024F194CA310" class="l66d44" points="-0.85,-0.15 -0.85,1.55 0.85,1.55 0.85,-0.15"/>
<polygon id="0000024F194CA3F0" class="l67d20" points="-1.65,-0.95 -1.65,2.35 1.65,2.35 1.65,-0.95"/>
<polygon id="0000024F194CA000" class="l67d20" points="-1.65,-1.1 -1.65,2.5 1.65,2.5 1.65,-1.1"/>
<polygon id="0000024F194CA1C0" class="l67d44" points="-0.85,-0.15 -0.85,1.55 0.85,1.55 0.85,-0.15"/>
<polygon id="0000024F194C9DD0" class="l68d20" points="-1.45,-0.75 -1.45,2.15 1.45,2.15 1.45,-0.75"/>
<polygon id="0000024F194C9C10" class="l67d20" points="-0.85,-0.15 -0.85,1.55 0.85,1.55 0.85,-0.15"/>
<polygon id="0000024F194CA070" class="l68d20" points="-1.45,-1.1 -1.45,2.5 1.45,2.5 1.45,-1.1"/>
<polygon id="0000024F194C9970" class="l67d20" points="-0.85,-0.15 -0.85,1.55 0.85,1.55 0.85,-0.15"/>
<polygon id="0000024F194CA0E0" class="l66d44" points="-11.05,-0.15 -11.05,1.55 -9.35,1.55 -9.35,-0.15"/>
<polygon id="0000024F194C9CF0" class="l67d20" points="-11.85,-0.95 -11.85,2.35 -8.55,2.35 -8.55,-0.95"/>
<polygon id="0000024F194C9890" class="l67d20" points="-11.85,-1.1 -11.85,2.5 -8.55,2.5 -8.55,-1.1"/>
<polygon id="0000024F194C9E40" class="l67d44" points="-11.05,-0.15 -11.05,1.55 -9.35,1.55 -9.35,-0.15"/>
<polygon id="0000024F194CA460" class="l68d20" points="-11.65,-0.75 -11.65,2.15 -8.75,2.15 -8.75,-0.75"/>
<polygon id="0000024F194C97B0" class="l67d20" points="-11.05,-0.15 -11.05,1.55 -9.35,1.55 -9.35,-0.15"/>
<polygon id="0000024F194C9C80" class="l68d20" points="-11.65,-1.1 -11.65,2.5 -8.75,2.5 -8.75,-1.1"/>
<polygon id="0000024F194C9EB0" class="l67d20" points="-11.05,-0.15 -11.05,1.55 -9.35,1.55 -9.35,-0.15"/>
<polygon id="0000024F194C9820" class="l93d44" points="-13.75,-2.4 -13.75,3.8 13.75,3.8 13.75,-2.4"/>
<polygon id="0000024F194CA150" class="l65d20" points="-12.45,-1.1 -12.45,2.5 12.45,2.5 12.45,-1.1"/>
<polygon id="0000024F194CA230" class="l67d44" points="-11.05,4.55 -11.05,6.25 -9.35,6.25 -9.35,4.55"/>
<polygon id="0000024F194C9AC0" class="l68d20" points="-11.65,3.95 -11.65,6.85 -8.75,6.85 -8.75,3.95"/>
<polygon id="0000024F194C9D60" class="l67d20" points="-11.05,4.55 -11.05,6.25 -9.35,6.25 -9.35,4.55"/>
<polygon id="0000024F194C9B30" class="l66d20" points="22.75,-3.6 22.75,5 24.55,5 24.55,-3.6"/>
<polygon id="0000024F194C9F90" class="l66d44" points="25.35,-0.15 25.35,1.55 27.05,1.55 27.05,-0.15"/>
<polygon id="0000024F194C9A50" class="l67d20" points="24.55,-0.95 24.55,2.35 27.85,2.35 27.85,-0.95"/>
<polygon id="0000024F194C99E0" class="l67d20" points="24.55,-1.1 24.55,2.5 27.85,2.5 27.85,-1.1"/>
<polygon id="0000024F194CA4D0" class="l66d44" points="20.25,-0.15 20.25,1.55 21.95,1.55 21.95,-0.15"/>
<polygon id="0000024F194C9BA0" class="l67d20" points="19.45,-0.95 19.45,2.35 22.75,2.35 22.75,-0.95"/>
<polygon id="0000024F194C9F20" class="l67d20" points="19.45,-1.1 19.45,2.5 22.75,2.5 22.75,-1.1"/>
<polygon id="0000024F194C9900" class="l93d44" points="17.55,-2.4 17.55,3.8 29.75,3.8 29.75,-2.4"/>
<polygon id="0000024F194CA540" class="l65d20" points="18.85,-1.1 18.85,2.5 28.45,2.5 28.45,-1.1"/>
<polygon id="0000024F194CA380" class="l66d44" points="22.8,-6.1 22.8,-4.4 24.5,-4.4 24.5,-6.1"/>
<polygon id="0000024F194CA930" class="l66d20" points="22,-6.9 22,-3.6 25.3,-3.6 25.3,-6.9"/>
<polygon id="0000024F194CACB0" class="l67d20" points="22,-6.9 22,-3.6 25.3,-3.6 25.3,-6.9"/>
<polygon id="0000024F194CAFC0" class="l66d20" points="22,-6.9 22,-3.6 25.3,-3.6 25.3,-6.9"/>
<polygon id="0000024F194CA9A0" class="l95d20" points="21.8,-7.1 25.5,-7.1 25.5,-3.4 21.8,-3.4"/>
<polygon id="0000024F194CAB60" class="l67d20" points="19.45,-6.9 22,-6.9 22,-3.6 19.45,-3.6"/>
<polygon id="0000024F194CAA10" class="l67d20" points="19.45,-6.9 22.75,-6.9 22.75,-1.1 19.45,-1.1"/>
<polygon id="0000024F194CA770" class="l67d20" points="25.3,-6.9 27.85,-6.9 27.85,-3.6 25.3,-3.6"/>
<polygon id="0000024F194CAF50" class="l67d20" points="24.55,-6.9 27.85,-6.9 27.85,-1.1 24.55,-1.1"/>
<polygon id="0000024F194CA8C0" class="l66d20" points="-24.55,-3.6 -24.55,5 -22.75,5 -22.75,-3.6"/>
<polygon id="0000024F194CA700" class="l66d44" points="-21.95,-0.15 -21.95,1.55 -20.25,1.55 -20.25,-0.15"/>
<polygon id="0000024F194CA690" class="l67d20" points="-22.75,-0.95 -22.75,2.35 -19.45,2.35 -19.45,-0.95"/>
<polygon id="0000024F194CA7E0" class="l67d20" points="-22.75,-1.1 -22.75,2.5 -19.45,2.5 -19.45,-1.1"/>
<polygon id="0000024F194CAA80" class="l66d44" points="-27.05,-0.15 -27.05,1.55 -25.35,1.55 -25.35,-0.15"/>
<polygon id="0000024F194CABD0" class="l67d20" points="-27.85,-0.95 -27.85,2.35 -24.55,2.35 -24.55,-0.95"/>
<polygon id="0000024F194CB2D0" class="l67d20" points="-27.85,-1.1 -27.85,2.5 -24.55,2.5 -24.55,-1.1"/>
<polygon id="0000024F194CA5B0" class="l93d44" points="-29.75,-2.4 -29.75,3.8 -17.55,3.8 -17.55,-2.4"/>
<polygon id="0000024F194CB180" class="l65d20" points="-28.45,-1.1 -28.45,2.5 -18.85,2.5 -18.85,-1.1"/>
<polygon id="0000024F194CB340" class="l66d44" points="-24.5,-6.1 -24.5,-4.4 -22.8,-4.4 -22.8,-6.1"/>
<polygon id="0000024F194CAAF0" class="l66d20" points="-25.3,-6.9 -25.3,-3.6 -22,-3.6 -22,-6.9"/>
<polygon id="0000024F194CB1F0" class="l67d20" points="-25.3,-6.9 -25.3,-3.6 -22,-3.6 -22,-6.9"/>
<polygon id="0000024F194CAD20" class="l66d20" points="-25.3,-6.9 -25.3,-3.6 -22,-3.6 -22,-6.9"/>
<polygon id="0000024F194CAE00" class="l95d20" points="-25.5,-7.1 -21.8,-7.1 -21.8,-3.4 -25.5,-3.4"/>
<polygon id="0000024F194CAEE0" class="l67d20" points="-27.85,-6.9 -25.3,-6.9 -25.3,-3.6 -27.85,-3.6"/>
<polygon id="0000024F194CB110" class="l67d20" points="-27.85,-6.9 -24.55,-6.9 -24.55,-1.1 -27.85,-1.1"/>
<polygon id="0000024F194CB030" class="l67d20" points="-22,-6.9 -19.45,-6.9 -19.45,-3.6 -22,-3.6"/>
<polygon id="0000024F194CAC40" class="l67d20" points="-22.75,-6.9 -19.45,-6.9 -19.45,-1.1 -22.75,-1.1"/>
<polygon id="0000024F194CAE70" class="l68d20" points="-11.65,8.25 -11.65,11.15 11.65,11.15 11.65,8.25"/>
<polygon id="0000024F194CAD90" class="l68d20" points="-11.65,3.95 -11.65,6.85 11.65,6.85 11.65,3.95"/>
<polygon id="0000024F194CA620" class="l66d44" points="-5.85,-10.2 -5.85,-8.5 -4.15,-8.5 -4.15,-10.2"/>
<polygon id="0000024F194CB0A0" class="l68d20" points="-6.45,-10.8 -6.45,-7.9 -3.55,-7.9 -3.55,-10.8"/>
<polygon id="0000024F194CA850" class="l67d20" points="-6.65,-11 -6.65,-7.7 -3.35,-7.7 -3.35,-11"/>
<polygon id="0000024F194CB260" class="l67d44" points="-5.85,-10.2 -5.85,-8.5 -4.15,-8.5 -4.15,-10.2"/>
<polygon id="0000024F194CBD50" class="l66d20" points="-6.65,-11 -6.65,-7.7 -3.35,-7.7 -3.35,-11"/>
<polygon id="0000024F194CC140" class="l66d44" points="4.15,-10.2 4.15,-8.5 5.85,-8.5 5.85,-10.2"/>
<polygon id="0000024F194CB9D0" class="l68d20" points="3.55,-10.8 3.55,-7.9 6.45,-7.9 6.45,-10.8"/>
<polygon id="0000024F194CBF10" class="l67d20" points="3.35,-11 3.35,-7.7 6.65,-7.7 6.65,-11"/>
<polygon id="0000024F194CBB20" class="l67d44" points="4.15,-10.2 4.15,-8.5 5.85,-8.5 5.85,-10.2"/>
<polygon id="0000024F194CB730" class="l66d20" points="3.35,-11 3.35,-7.7 6.65,-7.7 6.65,-11"/>
<polygon id="0000024F194CBFF0" class="l66d44" points="-0.85,-10.2 -0.85,-8.5 0.85,-8.5 0.85,-10.2"/>
<polygon id="0000024F194CB3B0" class="l68d20" points="-1.45,-10.8 -1.45,-7.9 1.45,-7.9 1.45,-10.8"/>
<polygon id="0000024F194CB500" class="l67d20" points="-1.65,-11 -1.65,-7.7 1.65,-7.7 1.65,-11"/>
<polygon id="0000024F194CB8F0" class="l67d44" points="-0.85,-10.2 -0.85,-8.5 0.85,-8.5 0.85,-10.2"/>
<polygon id="0000024F194CC0D0" class="l66d20" points="-1.65,-11 -1.65,-7.7 1.65,-7.7 1.65,-11"/>
<polygon id="0000024F194CC060" class="l68d20" points="-8.55,-11 -8.55,-7.7 8.55,-7.7 8.55,-11"/>
<polygon id="0000024F194CB880" class="l66d20" points="-8.55,-11 -8.55,-7.7 8.55,-7.7 8.55,-11"/>
<polygon id="0000024F194CBC00" class="l95d20" points="-1.85,-11.2 1.85,-11.2 1.85,-7.5 -1.85,-7.5"/>
<polygon id="0000024F194CBF80" class="l95d20" points="3.15,-11.2 6.85,-11.2 6.85,-7.5 3.15,-7.5"/>
<polygon id="0000024F194CB5E0" class="l95d20" points="-6.85,-11.2 -3.15,-11.2 -3.15,-7.5 -6.85,-7.5"/>
<polygon id="0000024F194CBE30" class="l95d20" points="-1.85,-11.2 6.85,-11.2 6.85,-7.5 -1.85,-7.5"/>
<polygon id="0000024F194CB490" class="l95d20" points="-6.85,-11.2 1.85,-11.2 1.85,-7.5 -6.85,-7.5"/>
<polygon id="0000024F194CB570" class="l95d20" points="-1.85,-11.2 6.85,-11.2 6.85,-7.5 -1.85,-7.5"/>
<polygon id="0000024F194CBA40" class="l95d20" points="-6.85,-11.2 1.85,-11.2 1.85,-7.5 -6.85,-7.5"/>
<polygon id="0000024F194CBEA0" class="l67d20" points="8.55,2.5 11.85,2.5 11.85,6.25 8.55,6.25"/>
<polygon id="0000024F194CB420" class="l67d44" points="9.35,4.55 9.35,6.25 11.05,6.25 11.05,4.55"/>
<polygon id="0000024F194CBDC0" class="l68d20" points="8.75,3.95 8.75,6.85 11.65,6.85 11.65,3.95"/>
<polygon id="0000024F194CBAB0" class="l67d20" points="9.35,4.55 9.35,6.25 11.05,6.25 11.05,4.55"/>
<polygon id="0000024F194CB810" class="l66d20" points="6.75,-7.7 8.55,-7.7 8.55,-3.6 6.75,-3.6"/>
<polygon id="0000024F194CBCE0" class="l67d20" points="3.45,2.5 6.75,2.5 6.75,10.55 3.45,10.55"/>
<polygon id="0000024F194CBC70" class="l67d44" points="4.25,8.85 4.25,10.55 5.95,10.55 5.95,8.85"/>
<polygon id="0000024F194CB7A0" class="l68d20" points="3.65,8.25 3.65,11.15 6.55,11.15 6.55,8.25"/>
<polygon id="0000024F194CBB90" class="l67d20" points="4.25,8.85 4.25,10.55 5.95,10.55 5.95,8.85"/>
<polygon id="0000024F194CB960" class="l66d20" points="1.65,-7.7 3.45,-7.7 3.45,-3.6 1.65,-3.6"/>
<polygon id="0000024F194CB650" class="l67d20" points="-1.65,2.5 1.65,2.5 1.65,6.25 -1.65,6.25"/>
<polygon id="0000024F194CB6C0" class="l67d44" points="-0.85,4.55 -0.85,6.25 0.85,6.25 0.85,4.55"/>
<polygon id="0000024F194CC840" class="l68d20" points="-1.45,3.95 -1.45,6.85 1.45,6.85 1.45,3.95"/>
<polygon id="0000024F194CC220" class="l67d20" points="-0.85,4.55 -0.85,6.25 0.85,6.25 0.85,4.55"/>
<polygon id="0000024F194CCBC0" class="l66d20" points="-3.45,-7.7 -1.65,-7.7 -1.65,-3.6 -3.45,-3.6"/>
<polygon id="0000024F194CC6F0" class="l67d20" points="-6.75,2.5 -3.45,2.5 -3.45,10.55 -6.75,10.55"/>
<polygon id="0000024F194CC3E0" class="l67d44" points="-5.95,8.85 -5.95,10.55 -4.25,10.55 -4.25,8.85"/>
<polygon id="0000024F194CCA00" class="l68d20" points="-6.55,8.25 -6.55,11.15 -3.65,11.15 -3.65,8.25"/>
<polygon id="0000024F194CC4C0" class="l67d20" points="-5.95,8.85 -5.95,10.55 -4.25,10.55 -4.25,8.85"/>
<polygon id="0000024F194CC7D0" class="l66d20" points="-8.55,-7.7 -6.75,-7.7 -6.75,-3.6 -8.55,-3.6"/>
<polygon id="0000024F194CC300" class="l67d20" points="-11.85,2.5 -8.55,2.5 -8.55,6.25 -11.85,6.25"/>
<polygon id="0000024F194CC370" class="l67d20" points="22,-6.9 39.15,-6.9 39.15,-3.6 22,-3.6"/>
<polygon id="0000024F194CCD80" class="l67d20" points="-39.15,-6.9 -25.3,-6.9 -25.3,-3.6 -39.15,-3.6"/>
<polygon id="0000024F194CCD10" class="l65d20" points="39.15,20.55 -39.15,20.55 -39.15,-16.45 -35.05,-16.45 -35.05,16.45 35.05,16.45 35.05,-16.45 -35.05,-16.45 -39.15,-16.45 -39.15,-20.55 39.15,-20.55"/>
<polygon id="0000024F194CC8B0" class="l68d20" points="35.05,-20.55 39.15,-20.55 39.15,-16.45 35.05,-16.45"/>
<polygon id="0000024F194CCAE0" class="l67d44" points="36.25,-19.35 36.25,-17.65 37.95,-17.65 37.95,-19.35"/>
<polygon id="0000024F194CC290" class="l68d20" points="35.65,-19.95 35.65,-17.05 38.55,-17.05 38.55,-19.95"/>
<polygon id="0000024F194CCE60" class="l67d20" points="36.25,-19.35 36.25,-17.65 37.95,-17.65 37.95,-19.35"/>
<polygon id="0000024F194CCDF0" class="l68d20" points="35.05,-20.55 35.05,-16.45 39.15,-16.45 39.15,-20.55"/>
<polygon id="0000024F194CC920" class="l67d20" points="36.25,-19.35 36.25,-17.65 37.95,-17.65 37.95,-19.35"/>
<polygon id="0000024F194CCB50" class="l67d20" points="35.05,-20.55 39.15,-20.55 39.15,-16.45 35.05,-16.45"/>
<polygon id="0000024F194CC990" class="l68d20" points="-39.15,-20.55 -35.05,-20.55 -35.05,-16.45 -39.15,-16.45"/>
<polygon id="0000024F194CCF40" class="l67d44" points="-37.95,-19.35 -37.95,-17.65 -36.25,-17.65 -36.25,-19.35"/>
<polygon id="0000024F194CCA70" class="l68d20" points="-38.55,-19.95 -38.55,-17.05 -35.65,-17.05 -35.65,-19.95"/>
<polygon id="0000024F194CC610" class="l67d20" points="-37.95,-19.35 -37.95,-17.65 -36.25,-17.65 -36.25,-19.35"/>
<polygon id="0000024F194CCED0" class="l68d20" points="-39.15,-20.55 -39.15,-16.45 -35.05,-16.45 -35.05,-20.55"/>
<polygon id="0000024F194CC5A0" class="l67d20" points="-37.95,-19.35 -37.95,-17.65 -36.25,-17.65 -36.25,-19.35"/>
<polygon id="0000024F194CC1B0" class="l67d20" points="-39.15,-20.55 -35.05,-20.55 -35.05,-16.45 -39.15,-16.45"/>
<polygon id="0000024F194CCCA0" class="l68d20" points="35.05,16.45 39.15,16.45 39.15,20.55 35.05,20.55"/>
<polygon id="0000024F194CC450" class="l67d44" points="36.25,17.65 36.25,19.35 37.95,19.35 37.95,17.65"/>
<polygon id="0000024F194CC760" class="l68d20" points="35.65,17.05 35.65,19.95 38.55,19.95 38.55,17.05"/>
<polygon id="0000024F194CC530" class="l67d20" points="36.25,17.65 36.25,19.35 37.95,19.35 37.95,17.65"/>
<polygon id="0000024F194CCC30" class="l68d20" points="35.05,16.45 35.05,20.55 39.15,20.55 39.15,16.45"/>
<polygon id="0000024F194CC680" class="l67d20" points="36.25,17.65 36.25,19.35 37.95,19.35 37.95,17.65"/>
<polygon id="0000024F194CD250" class="l67d20" points="35.05,16.45 39.15,16.45 39.15,20.55 35.05,20.55"/>
<polygon id="0000024F194CD720" class="l68d20" points="-39.15,16.45 -35.05,16.45 -35.05,20.55 -39.15,20.55"/>
<polygon id="0000024F194CDA30" class="l67d44" points="-37.95,17.65 -37.95,19.35 -36.25,19.35 -36.25,17.65"/>
<polygon id="0000024F194CD410" class="l68d20" points="-38.55,17.05 -38.55,19.95 -35.65,19.95 -35.65,17.05"/>
<polygon id="0000024F194CD640" class="l67d20" points="-37.95,17.65 -37.95,19.35 -36.25,19.35 -36.25,17.65"/>
<polygon id="0000024F194CD950" class="l68d20" points="-39.15,16.45 -39.15,20.55 -35.05,20.55 -35.05,16.45"/>
<polygon id="0000024F194CD9C0" class="l67d20" points="-37.95,17.65 -37.95,19.35 -36.25,19.35 -36.25,17.65"/>
<polygon id="0000024F194CDB80" class="l67d20" points="-39.15,16.45 -35.05,16.45 -35.05,20.55 -39.15,20.55"/>
<polygon id="0000024F194CDC60" class="l66d44" points="-37.95,-12.75 -37.95,-11.05 -36.25,-11.05 -36.25,-12.75"/>
<polygon id="0000024F194CD790" class="l67d20" points="-38.75,-13.55 -38.75,-10.25 -35.45,-10.25 -35.45,-13.55"/>
<polygon id="0000024F194CD1E0" class="l65d20" points="-39.15,-13.95 -39.15,-9.85 -35.05,-9.85 -35.05,-13.95"/>
<polygon id="0000024F194CDB10" class="l66d44" points="-37.95,11.05 -37.95,12.75 -36.25,12.75 -36.25,11.05"/>
<polygon id="0000024F194CD2C0" class="l67d20" points="-38.75,10.25 -38.75,13.55 -35.45,13.55 -35.45,10.25"/>
<polygon id="0000024F194CD020" class="l65d20" points="-39.15,9.85 -39.15,13.95 -35.05,13.95 -35.05,9.85"/>
<polygon id="0000024F194CD090" class="l66d44" points="-37.95,7.65 -37.95,9.35 -36.25,9.35 -36.25,7.65"/>
<polygon id="0000024F194CDAA0" class="l67d20" points="-38.75,6.85 -38.75,10.15 -35.45,10.15 -35.45,6.85"/>
<polygon id="0000024F194CD560" class="l65d20" points="-39.15,6.45 -39.15,10.55 -35.05,10.55 -35.05,6.45"/>
<polygon id="0000024F194CD3A0" class="l66d44" points="-37.95,4.25 -37.95,5.95 -36.25,5.95 -36.25,4.25"/>
<polygon id="0000024F194CDBF0" class="l67d20" points="-38.75,3.45 -38.75,6.75 -35.45,6.75 -35.45,3.45"/>
<polygon id="0000024F194CDCD0" class="l65d20" points="-39.15,3.05 -39.15,7.15 -35.05,7.15 -35.05,3.05"/>
<polygon id="0000024F194CD8E0" class="l66d44" points="-37.95,0.85 -37.95,2.55 -36.25,2.55 -36.25,0.85"/>
<polygon id="0000024F194CD330" class="l67d20" points="-38.75,0.05 -38.75,3.35 -35.45,3.35 -35.45,0.05"/>
<polygon id="0000024F194CD6B0" class="l65d20" points="-39.15,-0.35 -39.15,3.75 -35.05,3.75 -35.05,-0.35"/>
<polygon id="0000024F194CD100" class="l66d44" points="-37.95,-2.55 -37.95,-0.85 -36.25,-0.85 -36.25,-2.55"/>
<polygon id="0000024F194CD5D0" class="l67d20" points="-38.75,-3.35 -38.75,-0.05 -35.45,-0.05 -35.45,-3.35"/>
<polygon id="0000024F194CD4F0" class="l65d20" points="-39.15,-3.75 -39.15,0.35 -35.05,0.35 -35.05,-3.75"/>
<polygon id="0000024F194CDD40" class="l66d44" points="-37.95,-5.95 -37.95,-4.25 -36.25,-4.25 -36.25,-5.95"/>
<polygon id="0000024F194CD870" class="l67d20" points="-38.75,-6.75 -38.75,-3.45 -35.45,-3.45 -35.45,-6.75"/>
<polygon id="0000024F194CD800" class="l65d20" points="-39.15,-7.15 -39.15,-3.05 -35.05,-3.05 -35.05,-7.15"/>
<polygon id="0000024F194CCFB0" class="l66d44" points="-37.95,-9.35 -37.95,-7.65 -36.25,-7.65 -36.25,-9.35"/>
<polygon id="0000024F194CD170" class="l67d20" points="-38.75,-10.15 -38.75,-6.85 -35.45,-6.85 -35.45,-10.15"/>
<polygon id="0000024F194CD480" class="l65d20" points="-39.15,-10.55 -39.15,-6.45 -35.05,-6.45 -35.05,-10.55"/>
<polygon id="0000024F194CE210" class="l67d20" points="-39.15,-16.45 -39.15,16.45 -35.05,16.45 -35.05,-16.45"/>
<polygon id="0000024F194CE6E0" class="l65d20" points="-39.15,-13.95 -39.15,13.95 -35.05,13.95 -35.05,-13.95"/>
<polygon id="0000024F194CDE20" class="l66d44" points="-28.35,-19.35 -28.35,-17.65 -26.65,-17.65 -26.65,-19.35"/>
<polygon id="0000024F194CE050" class="l68d20" points="-28.95,-19.95 -28.95,-17.05 -26.05,-17.05 -26.05,-19.95"/>
<polygon id="0000024F194CDDB0" class="l67d20" points="-29.15,-20.15 -29.15,-16.85 -25.85,-16.85 -25.85,-20.15"/>
<polygon id="0000024F194CE440" class="l67d44" points="-28.35,-19.35 -28.35,-17.65 -26.65,-17.65 -26.65,-19.35"/>
<polygon id="0000024F194CE750" class="l65d20" points="-29.55,-20.55 -29.55,-16.45 -25.45,-16.45 -25.45,-20.55"/>
<polygon id="0000024F194CDF00" class="l66d44" points="26.65,-19.35 26.65,-17.65 28.35,-17.65 28.35,-19.35"/>
<polygon id="0000024F194CE600" class="l68d20" points="26.05,-19.95 26.05,-17.05 28.95,-17.05 28.95,-19.95"/>
<polygon id="0000024F194CE590" class="l67d20" points="25.85,-20.15 25.85,-16.85 29.15,-16.85 29.15,-20.15"/>
<polygon id="0000024F194CE280" class="l67d44" points="26.65,-19.35 26.65,-17.65 28.35,-17.65 28.35,-19.35"/>
<polygon id="0000024F194CE3D0" class="l65d20" points="25.45,-20.55 25.45,-16.45 29.55,-16.45 29.55,-20.55"/>
<polygon id="0000024F194CE2F0" class="l66d44" points="21.65,-19.35 21.65,-17.65 23.35,-17.65 23.35,-19.35"/>
<polygon id="0000024F194CE130" class="l68d20" points="21.05,-19.95 21.05,-17.05 23.95,-17.05 23.95,-19.95"/>
<polygon id="0000024F194CE9F0" class="l67d20" points="20.85,-20.15 20.85,-16.85 24.15,-16.85 24.15,-20.15"/>
<polygon id="0000024F194CEA60" class="l67d44" points="21.65,-19.35 21.65,-17.65 23.35,-17.65 23.35,-19.35"/>
<polygon id="0000024F194CEAD0" class="l65d20" points="20.45,-20.55 20.45,-16.45 24.55,-16.45 24.55,-20.55"/>
<polygon id="0000024F194CE670" class="l66d44" points="16.65,-19.35 16.65,-17.65 18.35,-17.65 18.35,-19.35"/>
<polygon id="0000024F194CEB40" class="l68d20" points="16.05,-19.95 16.05,-17.05 18.95,-17.05 18.95,-19.95"/>
<polygon id="0000024F194CDE90" class="l67d20" points="15.85,-20.15 15.85,-16.85 19.15,-16.85 19.15,-20.15"/>
<polygon id="0000024F194CE4B0" class="l67d44" points="16.65,-19.35 16.65,-17.65 18.35,-17.65 18.35,-19.35"/>
<polygon id="0000024F194CE980" class="l65d20" points="15.45,-20.55 15.45,-16.45 19.55,-16.45 19.55,-20.55"/>
<polygon id="0000024F194CE360" class="l66d44" points="11.65,-19.35 11.65,-17.65 13.35,-17.65 13.35,-19.35"/>
<polygon id="0000024F194CDF70" class="l68d20" points="11.05,-19.95 11.05,-17.05 13.95,-17.05 13.95,-19.95"/>
<polygon id="0000024F194CE520" class="l67d20" points="10.85,-20.15 10.85,-16.85 14.15,-16.85 14.15,-20.15"/>
<polygon id="0000024F194CE7C0" class="l67d44" points="11.65,-19.35 11.65,-17.65 13.35,-17.65 13.35,-19.35"/>
<polygon id="0000024F194CE1A0" class="l65d20" points="10.45,-20.55 10.45,-16.45 14.55,-16.45 14.55,-20.55"/>
<polygon id="0000024F194CE8A0" class="l66d44" points="6.65,-19.35 6.65,-17.65 8.35,-17.65 8.35,-19.35"/>
<polygon id="0000024F194CE830" class="l68d20" points="6.05,-19.95 6.05,-17.05 8.95,-17.05 8.95,-19.95"/>
<polygon id="0000024F194CE910" class="l67d20" points="5.85,-20.15 5.85,-16.85 9.15,-16.85 9.15,-20.15"/>
<polygon id="0000024F194CDFE0" class="l67d44" points="6.65,-19.35 6.65,-17.65 8.35,-17.65 8.35,-19.35"/>
<polygon id="0000024F194CE0C0" class="l65d20" points="5.45,-20.55 5.45,-16.45 9.55,-16.45 9.55,-20.55"/>
<polygon id="0000024F194CEC90" class="l66d44" points="1.65,-19.35 1.65,-17.65 3.35,-17.65 3.35,-19.35"/>
<polygon id="0000024F194CF630" class="l68d20" points="1.05,-19.95 1.05,-17.05 3.95,-17.05 3.95,-19.95"/>
<polygon id="0000024F194CED00" class="l67d20" points="0.85,-20.15 0.85,-16.85 4.15,-16.85 4.15,-20.15"/>
<polygon id="0000024F194CEFA0" class="l67d44" points="1.65,-19.35 1.65,-17.65 3.35,-17.65 3.35,-19.35"/>
<polygon id="0000024F194CEBB0" class="l65d20" points="0.45,-20.55 0.45,-16.45 4.55,-16.45 4.55,-20.55"/>
<polygon id="0000024F194CF940" class="l66d44" points="-3.35,-19.35 -3.35,-17.65 -1.65,-17.65 -1.65,-19.35"/>
<polygon id="0000024F194CF710" class="l68d20" points="-3.95,-19.95 -3.95,-17.05 -1.05,-17.05 -1.05,-19.95"/>
<polygon id="0000024F194CF6A0" class="l67d20" points="-4.15,-20.15 -4.15,-16.85 -0.85,-16.85 -0.85,-20.15"/>
<polygon id="0000024F194CED70" class="l67d44" points="-3.35,-19.35 -3.35,-17.65 -1.65,-17.65 -1.65,-19.35"/>
<polygon id="0000024F194CF780" class="l65d20" points="-4.55,-20.55 -4.55,-16.45 -0.45,-16.45 -0.45,-20.55"/>
<polygon id="0000024F194CF5C0" class="l66d44" points="-8.35,-19.35 -8.35,-17.65 -6.65,-17.65 -6.65,-19.35"/>
<polygon id="0000024F194CF860" class="l68d20" points="-8.95,-19.95 -8.95,-17.05 -6.05,-17.05 -6.05,-19.95"/>
<polygon id="0000024F194CF1D0" class="l67d20" points="-9.15,-20.15 -9.15,-16.85 -5.85,-16.85 -5.85,-20.15"/>
<polygon id="0000024F194CEF30" class="l67d44" points="-8.35,-19.35 -8.35,-17.65 -6.65,-17.65 -6.65,-19.35"/>
<polygon id="0000024F194CF7F0" class="l65d20" points="-9.55,-20.55 -9.55,-16.45 -5.45,-16.45 -5.45,-20.55"/>
<polygon id="0000024F194CF390" class="l66d44" points="-13.35,-19.35 -13.35,-17.65 -11.65,-17.65 -11.65,-19.35"/>
<polygon id="0000024F194CF2B0" class="l68d20" points="-13.95,-19.95 -13.95,-17.05 -11.05,-17.05 -11.05,-19.95"/>
<polygon id="0000024F194CF160" class="l67d20" points="-14.15,-20.15 -14.15,-16.85 -10.85,-16.85 -10.85,-20.15"/>
<polygon id="0000024F194CF010" class="l67d44" points="-13.35,-19.35 -13.35,-17.65 -11.65,-17.65 -11.65,-19.35"/>
<polygon id="0000024F194CEDE0" class="l65d20" points="-14.55,-20.55 -14.55,-16.45 -10.45,-16.45 -10.45,-20.55"/>
<polygon id="0000024F194CF400" class="l66d44" points="-18.35,-19.35 -18.35,-17.65 -16.65,-17.65 -16.65,-19.35"/>
<polygon id="0000024F194CF550" class="l68d20" points="-18.95,-19.95 -18.95,-17.05 -16.05,-17.05 -16.05,-19.95"/>
<polygon id="0000024F194CEEC0" class="l67d20" points="-19.15,-20.15 -19.15,-16.85 -15.85,-16.85 -15.85,-20.15"/>
<polygon id="0000024F194CF320" class="l67d44" points="-18.35,-19.35 -18.35,-17.65 -16.65,-17.65 -16.65,-19.35"/>
<polygon id="0000024F194CF240" class="l65d20" points="-19.55,-20.55 -19.55,-16.45 -15.45,-16.45 -15.45,-20.55"/>
<polygon id="0000024F194CEC20" class="l66d44" points="-23.35,-19.35 -23.35,-17.65 -21.65,-17.65 -21.65,-19.35"/>
<polygon id="0000024F194CF4E0" class="l68d20" points="-23.95,-19.95 -23.95,-17.05 -21.05,-17.05 -21.05,-19.95"/>
<polygon id="0000024F194CF080" class="l67d20" points="-24.15,-20.15 -24.15,-16.85 -20.85,-16.85 -20.85,-20.15"/>
<polygon id="0000024F194CF8D0" class="l67d44" points="-23.35,-19.35 -23.35,-17.65 -21.65,-17.65 -21.65,-19.35"/>
<polygon id="0000024F194CF0F0" class="l65d20" points="-24.55,-20.55 -24.55,-16.45 -20.45,-16.45 -20.45,-20.55"/>
<polygon id="0000024F194CF470" class="l67d20" points="-29.15,-20.15 -29.15,-16.85 29.15,-16.85 29.15,-20.15"/>
<polygon id="0000024F194CEE50" class="l68d20" points="-35.05,-20.55 -35.05,-16.45 35.05,-16.45 35.05,-20.55"/>
<polygon id="0000024F194D03C0" class="l65d20" points="-29.55,-20.55 -29.55,-16.45 29.55,-16.45 29.55,-20.55"/>
<polygon id="0000024F194D0350" class="l66d44" points="36.25,-12.75 36.25,-11.05 37.95,-11.05 37.95,-12.75"/>
<polygon id="0000024F194CFB70" class="l67d20" points="35.45,-13.55 35.45,-10.25 38.75,-10.25 38.75,-13.55"/>
<polygon id="0000024F194CFA90" class="l65d20" points="35.05,-13.95 35.05,-9.85 39.15,-9.85 39.15,-13.95"/>
<polygon id="0000024F194D05F0" class="l66d44" points="36.25,11.05 36.25,12.75 37.95,12.75 37.95,11.05"/>
<polygon id="0000024F194CFC50" class="l67d20" points="35.45,10.25 35.45,13.55 38.75,13.55 38.75,10.25"/>
<polygon id="0000024F194D0510" class="l65d20" points="35.05,9.85 35.05,13.95 39.15,13.95 39.15,9.85"/>
<polygon id="0000024F194D0740" class="l66d44" points="36.25,7.65 36.25,9.35 37.95,9.35 37.95,7.65"/>
<polygon id="0000024F194D0200" class="l67d20" points="35.45,6.85 35.45,10.15 38.75,10.15 38.75,6.85"/>
<polygon id="0000024F194CFEF0" class="l65d20" points="35.05,6.45 35.05,10.55 39.15,10.55 39.15,6.45"/>
<polygon id="0000024F194D0660" class="l66d44" points="36.25,4.25 36.25,5.95 37.95,5.95 37.95,4.25"/>
<polygon id="0000024F194D00B0" class="l67d20" points="35.45,3.45 35.45,6.75 38.75,6.75 38.75,3.45"/>
<polygon id="0000024F194CFD30" class="l65d20" points="35.05,3.05 35.05,7.15 39.15,7.15 39.15,3.05"/>
<polygon id="0000024F194D0430" class="l66d44" points="36.25,0.85 36.25,2.55 37.95,2.55 37.95,0.85"/>
<polygon id="0000024F194D02E0" class="l67d20" points="35.45,0.05 35.45,3.35 38.75,3.35 38.75,0.05"/>
<polygon id="0000024F194D0270" class="l65d20" points="35.05,-0.35 35.05,3.75 39.15,3.75 39.15,-0.35"/>
<polygon id="0000024F194D0580" class="l66d44" points="36.25,-2.55 36.25,-0.85 37.95,-0.85 37.95,-2.55"/>
<polygon id="0000024F194CFBE0" class="l67d20" points="35.45,-3.35 35.45,-0.05 38.75,-0.05 38.75,-3.35"/>
<polygon id="0000024F194D0190" class="l65d20" points="35.05,-3.75 35.05,0.35 39.15,0.35 39.15,-3.75"/>
<polygon id="0000024F194CFF60" class="l66d44" points="36.25,-5.95 36.25,-4.25 37.95,-4.25 37.95,-5.95"/>
<polygon id="0000024F194CFA20" class="l67d20" points="35.45,-6.75 35.45,-3.45 38.75,-3.45 38.75,-6.75"/>
<polygon id="0000024F194CFDA0" class="l65d20" points="35.05,-7.15 35.05,-3.05 39.15,-3.05 39.15,-7.15"/>
<polygon id="0000024F194D0120" class="l66d44" points="36.25,-9.35 36.25,-7.65 37.95,-7.65 37.95,-9.35"/>
<polygon id="0000024F194CFFD0" class="l67d20" points="35.45,-10.15 35.45,-6.85 38.75,-6.85 38.75,-10.15"/>
<polygon id="0000024F194CFB00" class="l65d20" points="35.05,-10.55 35.05,-6.45 39.15,-6.45 39.15,-10.55"/>
<polygon id="0000024F194D06D0" class="l67d20" points="35.05,-16.45 35.05,16.45 39.15,16.45 39.15,-16.45"/>
<polygon id="0000024F194D0040" class="l65d20" points="35.05,-13.95 35.05,13.95 39.15,13.95 39.15,-13.95"/>
<polygon id="0000024F194CFCC0" class="l66d44" points="-28.35,17.65 -28.35,19.35 -26.65,19.35 -26.65,17.65"/>
<polygon id="0000024F194CF9B0" class="l68d20" points="-28.95,17.05 -28.95,19.95 -26.05,19.95 -26.05,17.05"/>
<polygon id="0000024F194CFE10" class="l67d20" points="-29.15,16.85 -29.15,20.15 -25.85,20.15 -25.85,16.85"/>
<polygon id="0000024F194D04A0" class="l67d44" points="-28.35,17.65 -28.35,19.35 -26.65,19.35 -26.65,17.65"/>
<polygon id="0000024F194CFE80" class="l65d20" points="-29.55,16.45 -29.55,20.55 -25.45,20.55 -25.45,16.45"/>
<polygon id="0000024F194D0900" class="l66d44" points="26.65,17.65 26.65,19.35 28.35,19.35 28.35,17.65"/>
<polygon id="0000024F194D1070" class="l68d20" points="26.05,17.05 26.05,19.95 28.95,19.95 28.95,17.05"/>
<polygon id="0000024F194D0890" class="l67d20" points="25.85,16.85 25.85,20.15 29.15,20.15 29.15,16.85"/>
<polygon id="0000024F194D0CF0" class="l67d44" points="26.65,17.65 26.65,19.35 28.35,19.35 28.35,17.65"/>
<polygon id="0000024F194D1000" class="l65d20" points="25.45,16.45 25.45,20.55 29.55,20.55 29.55,16.45"/>
<polygon id="0000024F194D12A0" class="l66d44" points="21.65,17.65 21.65,19.35 23.35,19.35 23.35,17.65"/>
<polygon id="0000024F194D10E0" class="l68d20" points="21.05,17.05 21.05,19.95 23.95,19.95 23.95,17.05"/>
<polygon id="0000024F194D0BA0" class="l67d20" points="20.85,16.85 20.85,20.15 24.15,20.15 24.15,16.85"/>
<polygon id="0000024F194D1380" class="l67d44" points="21.65,17.65 21.65,19.35 23.35,19.35 23.35,17.65"/>
<polygon id="0000024F194D0970" class="l65d20" points="20.45,16.45 20.45,20.55 24.55,20.55 24.55,16.45"/>
<polygon id="0000024F194D11C0" class="l66d44" points="16.65,17.65 16.65,19.35 18.35,19.35 18.35,17.65"/>
<polygon id="0000024F194D0F90" class="l68d20" points="16.05,17.05 16.05,19.95 18.95,19.95 18.95,17.05"/>
<polygon id="0000024F194D0A50" class="l67d20" points="15.85,16.85 15.85,20.15 19.15,20.15 19.15,16.85"/>
<polygon id="0000024F194D0DD0" class="l67d44" points="16.65,17.65 16.65,19.35 18.35,19.35 18.35,17.65"/>
<polygon id="0000024F194D1230" class="l65d20" points="15.45,16.45 15.45,20.55 19.55,20.55 19.55,16.45"/>
<polygon id="0000024F194D1540" class="l66d44" points="11.65,17.65 11.65,19.35 13.35,19.35 13.35,17.65"/>
<polygon id="0000024F194D0C80" class="l68d20" points="11.05,17.05 11.05,19.95 13.95,19.95 13.95,17.05"/>
<polygon id="0000024F194D0C10" class="l67d20" points="10.85,16.85 10.85,20.15 14.15,20.15 14.15,16.85"/>
<polygon id="0000024F194D0EB0" class="l67d44" points="11.65,17.65 11.65,19.35 13.35,19.35 13.35,17.65"/>
<polygon id="0000024F194D0E40" class="l65d20" points="10.45,16.45 10.45,20.55 14.55,20.55 14.55,16.45"/>
<polygon id="0000024F194D1150" class="l66d44" points="6.65,17.65 6.65,19.35 8.35,19.35 8.35,17.65"/>
<polygon id="0000024F194D0F20" class="l68d20" points="6.05,17.05 6.05,19.95 8.95,19.95 8.95,17.05"/>
<polygon id="0000024F194D0B30" class="l67d20" points="5.85,16.85 5.85,20.15 9.15,20.15 9.15,16.85"/>
<polygon id="0000024F194D07B0" class="l67d44" points="6.65,17.65 6.65,19.35 8.35,19.35 8.35,17.65"/>
<polygon id="0000024F194D1310" class="l65d20" points="5.45,16.45 5.45,20.55 9.55,20.55 9.55,16.45"/>
<polygon id="0000024F194D13F0" class="l66d44" points="1.65,17.65 1.65,19.35 3.35,19.35 3.35,17.65"/>
<polygon id="0000024F194D1460" class="l68d20" points="1.05,17.05 1.05,19.95 3.95,19.95 3.95,17.05"/>
<polygon id="0000024F194D0D60" class="l67d20" points="0.85,16.85 0.85,20.15 4.15,20.15 4.15,16.85"/>
<polygon id="0000024F194D0820" class="l67d44" points="1.65,17.65 1.65,19.35 3.35,19.35 3.35,17.65"/>
<polygon id="0000024F194D09E0" class="l65d20" points="0.45,16.45 0.45,20.55 4.55,20.55 4.55,16.45"/>
<polygon id="0000024F194D0AC0" class="l66d44" points="-3.35,17.65 -3.35,19.35 -1.65,19.35 -1.65,17.65"/>
<polygon id="0000024F194D14D0" class="l68d20" points="-3.95,17.05 -3.95,19.95 -1.05,19.95 -1.05,17.05"/>
<polygon id="0000024F194D1850" class="l67d20" points="-4.15,16.85 -4.15,20.15 -0.85,20.15 -0.85,16.85"/>
<polygon id="0000024F194D1690" class="l67d44" points="-3.35,17.65 -3.35,19.35 -1.65,19.35 -1.65,17.65"/>
<polygon id="0000024F194D1BD0" class="l65d20" points="-4.55,16.45 -4.55,20.55 -0.45,20.55 -0.45,16.45"/>
<polygon id="0000024F194D2340" class="l66d44" points="-8.35,17.65 -8.35,19.35 -6.65,19.35 -6.65,17.65"/>
<polygon id="0000024F194D15B0" class="l68d20" points="-8.95,17.05 -8.95,19.95 -6.05,19.95 -6.05,17.05"/>
<polygon id="0000024F194D1C40" class="l67d20" points="-9.15,16.85 -9.15,20.15 -5.85,20.15 -5.85,16.85"/>
<polygon id="0000024F194D1930" class="l67d44" points="-8.35,17.65 -8.35,19.35 -6.65,19.35 -6.65,17.65"/>
<polygon id="0000024F194D1D20" class="l65d20" points="-9.55,16.45 -9.55,20.55 -5.45,20.55 -5.45,16.45"/>
<polygon id="0000024F194D1F50" class="l66d44" points="-13.35,17.65 -13.35,19.35 -11.65,19.35 -11.65,17.65"/>
<polygon id="0000024F194D1D90" class="l68d20" points="-13.95,17.05 -13.95,19.95 -11.05,19.95 -11.05,17.05"/>
<polygon id="0000024F194D1E00" class="l67d20" points="-14.15,16.85 -14.15,20.15 -10.85,20.15 -10.85,16.85"/>
<polygon id="0000024F194D21F0" class="l67d44" points="-13.35,17.65 -13.35,19.35 -11.65,19.35 -11.65,17.65"/>
<polygon id="0000024F194D19A0" class="l65d20" points="-14.55,16.45 -14.55,20.55 -10.45,20.55 -10.45,16.45"/>
<polygon id="0000024F194D1700" class="l66d44" points="-18.35,17.65 -18.35,19.35 -16.65,19.35 -16.65,17.65"/>
<polygon id="0000024F194D1A80" class="l68d20" points="-18.95,17.05 -18.95,19.95 -16.05,19.95 -16.05,17.05"/>
<polygon id="0000024F194D1A10" class="l67d20" points="-19.15,16.85 -19.15,20.15 -15.85,20.15 -15.85,16.85"/>
<polygon id="0000024F194D1FC0" class="l67d44" points="-18.35,17.65 -18.35,19.35 -16.65,19.35 -16.65,17.65"/>
<polygon id="0000024F194D1620" class="l65d20" points="-19.55,16.45 -19.55,20.55 -15.45,20.55 -15.45,16.45"/>
<polygon id="0000024F194D2260" class="l66d44" points="-23.35,17.65 -23.35,19.35 -21.65,19.35 -21.65,17.65"/>
<polygon id="0000024F194D2110" class="l68d20" points="-23.95,17.05 -23.95,19.95 -21.05,19.95 -21.05,17.05"/>
<polygon id="0000024F194D1EE0" class="l67d20" points="-24.15,16.85 -24.15,20.15 -20.85,20.15 -20.85,16.85"/>
<polygon id="0000024F194D17E0" class="l67d44" points="-23.35,17.65 -23.35,19.35 -21.65,19.35 -21.65,17.65"/>
<polygon id="0000024F194D1E70" class="l65d20" points="-24.55,16.45 -24.55,20.55 -20.45,20.55 -20.45,16.45"/>
<polygon id="0000024F194D2180" class="l67d20" points="-29.15,16.85 -29.15,20.15 29.15,20.15 29.15,16.85"/>
<polygon id="0000024F194D18C0" class="l68d20" points="-35.05,16.45 -35.05,20.55 35.05,20.55 35.05,16.45"/>
<polygon id="0000024F194D22D0" class="l65d20" points="-29.55,16.45 -29.55,20.55 29.55,20.55 29.55,16.45"/>
<polygon id="0000024F194D1CB0" class="l94d20" points="40.45,21.85 -40.45,21.85 -40.45,-15.15 -33.75,-15.15 -33.75,15.15 33.75,15.15 33.75,-15.15 -33.75,-15.15 -40.45,-15.15 -40.45,-21.85 40.45,-21.85"/>
</g>
</defs>
<rect x="-47.175" y="-28.575" width="94.35" height="108.35" fill="#222222" stroke="none"/>
<g id="layout" transform="scale(1 -1)">
<use transform="translate(0 -51.2)" xlink:href="#Unnamed_2f048c08"/>
<use transform="translate(0 0)" xlink:href="#Unnamed_eec33363"/>
<use transform="translate(0 0)" xlink:href="#straight_route_c66cf5ed"/>
</g>
</svg>
