<?xml version='1.0' encoding='ASCII' standalone='yes'?>
<svg xmlns="http://www.w3.org/2000/svg" xmlns:xlink="http://www.w3.org/1999/xlink" width="475.475" height="164.975" viewBox="-50.895 -32.995 190.19 65.99">
<defs>
<style type="text/css">
.l64d44 {stroke: #E25822; fill: #E25822; fill-opacity: 0.5;}
.l67d44 {stroke: #875692; fill: #875692; fill-opacity: 0.5;}
.l66d44 {stroke: #F3C300; fill: #F3C300; fill-opacity: 0.5;}
.l68d44 {stroke: #F38400; fill: #F38400; fill-opacity: 0.5;}
.l95d20 {stroke: #654522; fill: #654522; fill-opacity: 0.5;}
.l94d20 {stroke: #8DB600; fill: #8DB600; fill-opacity: 0.5;}
.l65d20 {stroke: #008856; fill: #008856; fill-opacity: 0.5;}
.l67d20 {stroke: #0067A5; fill: #0067A5; fill-opacity: 0.5;}
.l66d20 {stroke: #E68FAC; fill: #E68FAC; fill-opacity: 0.5;}
.l69d20 {stroke: #604E97; fill: #604E97; fill-opacity: 0.5;}
.l68d20 {stroke: #F99379; fill: #F99379; fill-opacity: 0.5;}
.l93d44 {stroke: #008856; fill: #008856; fill-opacity: 0.5;}
</style>
<g id="c_route_2675221e$1">
<polygon id="0000017F64457F00" class="l68d20" points="-11.65,7.55 11.65,7.55 11.65,16.85 -11.65,16.85"/>
<polygon id="0000017F64458BB0" class="l68d44" points="-10.25,13.95 -10.25,15.45 -8.75,15.45 -8.75,13.95"/>
<polygon id="0000017F644587C0" class="l69d20" points="-11.15,13.05 -11.15,16.35 -7.85,16.35 -7.85,13.05"/>
<polygon id="0000017F644580C0" class="l68d20" points="-11.65,12.55 -11.65,16.85 -7.35,16.85 -7.35,12.55"/>
<polygon id="0000017F64458B40" class="l69d20" points="-11.15,16.35 -7.85,16.35 -7.85,16.35 -11.15,16.35"/>
<polygon id="0000017F64458600" class="l69d20" points="96.25,16.35 99.55,16.35 99.55,16.35 96.25,16.35"/>
<polygon id="0000017F644581A0" class="l69d20" points="-11.15,13.05 99.55,13.05 99.55,16.35 -11.15,16.35"/>
<polygon id="0000017F64458AD0" class="l68d20" points="76.75,7.55 100.05,7.55 100.05,16.85 76.75,16.85"/>
<polygon id="0000017F644583D0" class="l68d44" points="97.15,13.95 97.15,15.45 98.65,15.45 98.65,13.95"/>
<polygon id="0000017F64458E50" class="l69d20" points="96.25,13.05 96.25,16.35 99.55,16.35 99.55,13.05"/>
<polygon id="0000017F64458F30" class="l68d20" points="95.75,12.55 95.75,16.85 100.05,16.85 100.05,12.55"/>
</g>
<g id="Unnamed_7013c8d7">
<polygon id="0000017F64458D00" class="l64d44" points="-42.25,-24.35 42.25,-24.35 42.25,24.35 -42.25,24.35"/>
<polygon id="0000017F64449CD0" class="l66d20" points="-8.55,-4.3 -8.55,5.7 -6.75,5.7 -6.75,-4.3"/>
<polygon id="0000017F64449A30" class="l66d44" points="-5.95,-0.15 -5.95,1.55 -4.25,1.55 -4.25,-0.15"/>
<polygon id="0000017F64449330" class="l67d20" points="-6.75,-0.95 -6.75,2.35 -3.45,2.35 -3.45,-0.95"/>
<polygon id="0000017F64449950" class="l67d20" points="-6.75,-1.8 -6.75,3.2 -3.45,3.2 -3.45,-1.8"/>
<polygon id="0000017F64449170" class="l67d44" points="-5.95,-0.15 -5.95,1.55 -4.25,1.55 -4.25,-0.15"/>
<polygon id="0000017F64449870" class="l68d20" points="-6.55,-0.75 -6.55,2.15 -3.65,2.15 -3.65,-0.75"/>
<polygon id="0000017F64449560" class="l67d20" points="-5.95,-0.15 -5.95,1.55 -4.25,1.55 -4.25,-0.15"/>
<polygon id="0000017F644498E0" class="l68d20" points="-6.55,-1.8 -6.55,3.2 -3.65,3.2 -3.65,-1.8"/>
<polygon id="0000017F64449BF0" class="l67d20" points="-5.95,-0.15 -5.95,1.55 -4.25,1.55 -4.25,-0.15"/>
<polygon id="0000017F64449800" class="l66d20" points="6.75,-4.3 6.75,5.7 8.55,5.7 8.55,-4.3"/>
<polygon id="0000017F64449DB0" class="l66d44" points="9.35,-0.15 9.35,1.55 11.05,1.55 11.05,-0.15"/>
<polygon id="0000017F644493A0" class="l67d20" points="8.55,-0.95 8.55,2.35 11.85,2.35 11.85,-0.95"/>
<polygon id="0000017F64449250" class="l67d20" points="8.55,-1.8 8.55,3.2 11.85,3.2 11.85,-1.8"/>
<polygon id="0000017F64449790" class="l67d44" points="9.35,-0.15 9.35,1.55 11.05,1.55 11.05,-0.15"/>
<polygon id="0000017F64449D40" class="l68d20" points="8.75,-0.75 8.75,2.15 11.65,2.15 11.65,-0.75"/>
<polygon id="0000017F64449B80" class="l67d20" points="9.35,-0.15 9.35,1.55 11.05,1.55 11.05,-0.15"/>
<polygon id="0000017F64449640" class="l68d20" points="8.75,-1.8 8.75,3.2 11.65,3.2 11.65,-1.8"/>
<polygon id="0000017F64449E20" class="l67d20" points="9.35,-0.15 9.35,1.55 11.05,1.55 11.05,-0.15"/>
<polygon id="0000017F644556C0" class="l66d20" points="1.65,-4.3 1.65,5.7 3.45,5.7 3.45,-4.3"/>
<polygon id="0000017F644560D0" class="l66d44" points="4.25,-0.15 4.25,1.55 5.95,1.55 5.95,-0.15"/>
<polygon id="0000017F64455500" class="l67d20" points="3.45,-0.95 3.45,2.35 6.75,2.35 6.75,-0.95"/>
<polygon id="0000017F64455570" class="l67d20" points="3.45,-1.8 3.45,3.2 6.75,3.2 6.75,-1.8"/>
<polygon id="0000017F64455EA0" class="l67d44" points="4.25,-0.15 4.25,1.55 5.95,1.55 5.95,-0.15"/>
<polygon id="0000017F64455F10" class="l68d20" points="3.65,-0.75 3.65,2.15 6.55,2.15 6.55,-0.75"/>
<polygon id="0000017F64455B20" class="l67d20" points="4.25,-0.15 4.25,1.55 5.95,1.55 5.95,-0.15"/>
<polygon id="0000017F64456610" class="l68d20" points="3.65,-1.8 3.65,3.2 6.55,3.2 6.55,-1.8"/>
<polygon id="0000017F64456A00" class="l67d20" points="4.25,-0.15 4.25,1.55 5.95,1.55 5.95,-0.15"/>
<polygon id="0000017F64456990" class="l66d20" points="-3.45,-4.3 -3.45,5.7 -1.65,5.7 -1.65,-4.3"/>
<polygon id="0000017F64456D10" class="l66d44" points="-0.85,-0.15 -0.85,1.55 0.85,1.55 0.85,-0.15"/>
<polygon id="0000017F64456FB0" class="l67d20" points="-1.65,-0.95 -1.65,2.35 1.65,2.35 1.65,-0.95"/>
<polygon id="0000017F64456920" class="l67d20" points="-1.65,-1.8 -1.65,3.2 1.65,3.2 1.65,-1.8"/>
<polygon id="0000017F64456CA0" class="l67d44" points="-0.85,-0.15 -0.85,1.55 0.85,1.55 0.85,-0.15"/>
<polygon id="0000017F64456ED0" class="l68d20" points="-1.45,-0.75 -1.45,2.15 1.45,2.15 1.45,-0.75"/>
<polygon id="0000017F64456370" class="l67d20" points="-0.85,-0.15 -0.85,1.55 0.85,1.55 0.85,-0.15"/>
<polygon id="0000017F64456450" class="l68d20" points="-1.45,-1.8 -1.45,3.2 1.45,3.2 1.45,-1.8"/>
<polygon id="0000017F64456680" class="l67d20" points="-0.85,-0.15 -0.85,1.55 0.85,1.55 0.85,-0.15"/>
<polygon id="0000017F64457020" class="l66d44" points="-11.05,-0.15 -11.05,1.55 -9.35,1.55 -9.35,-0.15"/>
<polygon id="0000017F644565A0" class="l67d20" points="-11.85,-0.95 -11.85,2.35 -8.55,2.35 -8.55,-0.95"/>
<polygon id="0000017F64457090" class="l67d20" points="-11.85,-1.8 -11.85,3.2 -8.55,3.2 -8.55,-1.8"/>
<polygon id="0000017F64456760" class="l67d44" points="-11.05,-0.15 -11.05,1.55 -9.35,1.55 -9.35,-0.15"/>
<polygon id="0000017F64456DF0" class="l68d20" points="-11.65,-0.75 -11.65,2.15 -8.75,2.15 -8.75,-0.75"/>
<polygon id="0000017F644567D0" class="l67d20" points="-11.05,-0.15 -11.05,1.55 -9.35,1.55 -9.35,-0.15"/>
<polygon id="0000017F64456840" class="l68d20" points="-11.65,-1.8 -11.65,3.2 -8.75,3.2 -8.75,-1.8"/>
<polygon id="0000017F64456300" class="l67d20" points="-11.05,-0.15 -11.05,1.55 -9.35,1.55 -9.35,-0.15"/>
<polygon id="0000017F64456D80" class="l93d44" points="-13.75,-3.1 -13.75,4.5 13.75,4.5 13.75,-3.1"/>
<polygon id="0000017F644563E0" class="l65d20" points="-12.45,-1.8 -12.45,3.2 12.45,3.2 12.45,-1.8"/>
<polygon id="0000017F64456B50" class="l67d44" points="-11.05,5.25 -11.05,6.95 -9.35,6.95 -9.35,5.25"/>
<polygon id="0000017F64456E60" class="l68d20" points="-11.65,4.65 -11.65,7.55 -8.75,7.55 -8.75,4.65"/>
<polygon id="0000017F64456C30" class="l67d20" points="-11.05,5.25 -11.05,6.95 -9.35,6.95 -9.35,5.25"/>
<polygon id="0000017F64456AE0" class="l66d20" points="22.75,-4.3 22.75,5.7 24.55,5.7 24.55,-4.3"/>
<polygon id="0000017F64457640" class="l66d44" points="25.35,-0.15 25.35,1.55 27.05,1.55 27.05,-0.15"/>
<polygon id="0000017F64457950" class="l67d20" points="24.55,-0.95 24.55,2.35 27.85,2.35 27.85,-0.95"/>
<polygon id="0000017F64457AA0" class="l67d20" points="24.55,-1.8 24.55,3.2 27.85,3.2 27.85,-1.8"/>
<polygon id="0000017F644573A0" class="l66d44" points="20.25,-0.15 20.25,1.55 21.95,1.55 21.95,-0.15"/>
<polygon id="0000017F64457BF0" class="l67d20" points="19.45,-0.95 19.45,2.35 22.75,2.35 22.75,-0.95"/>
<polygon id="0000017F644574F0" class="l67d20" points="19.45,-1.8 19.45,3.2 22.75,3.2 22.75,-1.8"/>
<polygon id="0000017F64457DB0" class="l93d44" points="17.55,-3.1 17.55,4.5 29.75,4.5 29.75,-3.1"/>
<polygon id="0000017F644579C0" class="l65d20" points="18.85,-1.8 18.85,3.2 28.45,3.2 28.45,-1.8"/>
<polygon id="0000017F64457720" class="l66d44" points="22.8,-6.8 22.8,-5.1 24.5,-5.1 24.5,-6.8"/>
<polygon id="0000017F64457E90" class="l66d20" points="22,-7.6 22,-4.3 25.3,-4.3 25.3,-7.6"/>
<polygon id="0000017F64457790" class="l67d20" points="22,-7.6 22,-4.3 25.3,-4.3 25.3,-7.6"/>
<polygon id="0000017F64457250" class="l66d20" points="22,-7.6 22,-4.3 25.3,-4.3 25.3,-7.6"/>
<polygon id="0000017F64457870" class="l95d20" points="21.8,-7.8 25.5,-7.8 25.5,-4.1 21.8,-4.1"/>
<polygon id="0000017F64457A30" class="l67d20" points="19.45,-7.6 22,-7.6 22,-4.3 19.45,-4.3"/>
<polygon id="0000017F64457480" class="l67d20" points="19.45,-7.6 22.75,-7.6 22.75,-1.8 19.45,-1.8"/>
<polygon id="0000017F644571E0" class="l67d20" points="25.3,-7.6 27.85,-7.6 27.85,-4.3 25.3,-4.3"/>
<polygon id="0000017F64457E20" class="l67d20" points="24.55,-7.6 27.85,-7.6 27.85,-1.8 24.55,-1.8"/>
<polygon id="0000017F64457B10" class="l66d20" points="-24.55,-4.3 -24.55,5.7 -22.75,5.7 -22.75,-4.3"/>
<polygon id="0000017F644575D0" class="l66d44" points="-21.95,-0.15 -21.95,1.55 -20.25,1.55 -20.25,-0.15"/>
<polygon id="0000017F64457CD0" class="l67d20" points="-22.75,-0.95 -22.75,2.35 -19.45,2.35 -19.45,-0.95"/>
<polygon id="0000017F64458280" class="l67d20" points="-22.75,-1.8 -22.75,3.2 -19.45,3.2 -19.45,-1.8"/>
<polygon id="0000017F64458440" class="l66d44" points="-27.05,-0.15 -27.05,1.55 -25.35,1.55 -25.35,-0.15"/>
<polygon id="0000017F64458750" class="l67d20" points="-27.85,-0.95 -27.85,2.35 -24.55,2.35 -24.55,-0.95"/>
<polygon id="0000017F64457FE0" class="l67d20" points="-27.85,-1.8 -27.85,3.2 -24.55,3.2 -24.55,-1.8"/>
<polygon id="0000017F64458980" class="l93d44" points="-29.75,-3.1 -29.75,4.5 -17.55,4.5 -17.55,-3.1"/>
<polygon id="0000017F64458C20" class="l65d20" points="-28.45,-1.8 -28.45,3.2 -18.85,3.2 -18.85,-1.8"/>
<polygon id="0000017F64458910" class="l66d44" points="-24.5,-6.8 -24.5,-5.1 -22.8,-5.1 -22.8,-6.8"/>
<polygon id="0000017F64458130" class="l66d20" points="-25.3,-7.6 -25.3,-4.3 -22,-4.3 -22,-7.6"/>
<polygon id="0000017F64458520" class="l67d20" points="-25.3,-7.6 -25.3,-4.3 -22,-4.3 -22,-7.6"/>
<polygon id="0000017F64458830" class="l66d20" points="-25.3,-7.6 -25.3,-4.3 -22,-4.3 -22,-7.6"/>
<polygon id="0000017F64458670" class="l95d20" points="-25.5,-7.8 -21.8,-7.8 -21.8,-4.1 -25.5,-4.1"/>
<polygon id="0000017F644584B0" class="l67d20" points="-27.85,-7.6 -25.3,-7.6 -25.3,-4.3 -27.85,-4.3"/>
<polygon id="0000017F64458360" class="l67d20" points="-27.85,-7.6 -24.55,-7.6 -24.55,-1.8 -27.85,-1.8"/>
<polygon id="0000017F64458210" class="l67d20" points="-22,-7.6 -19.45,-7.6 -19.45,-4.3 -22,-4.3"/>
<polygon id="0000017F5EE37250" class="l67d20" points="-22.75,-7.6 -19.45,-7.6 -19.45,-1.8 -22.75,-1.8"/>
<polygon id="0000017F5EE368B0" class="l68d20" points="-11.65,8.95 -11.65,11.85 11.65,11.85 11.65,8.95"/>
<polygon id="0000017F5EE360D0" class="l68d20" points="-11.65,4.65 -11.65,7.55 11.65,7.55 11.65,4.65"/>
<polygon id="0000017F5EE361B0" class="l66d44" points="-5.85,-10.8 -5.85,-9.1 -4.15,-9.1 -4.15,-10.8"/>
<polygon id="0000017F5EE36290" class="l68d20" points="-6.45,-11.4 -6.45,-8.5 -3.55,-8.5 -3.55,-11.4"/>
<polygon id="0000017F652CE280" class="l67d20" points="-6.65,-11.6 -6.65,-8.3 -3.35,-8.3 -3.35,-11.6"/>
<polygon id="0000017F652CE600" class="l67d44" points="-5.85,-10.8 -5.85,-9.1 -4.15,-9.1 -4.15,-10.8"/>
<polygon id="0000017F652CDF00" class="l66d20" points="-6.65,-11.6 -6.65,-8.3 -3.35,-8.3 -3.35,-11.6"/>
<polygon id="0000017F652CE2F0" class="l66d44" points="4.15,-10.8 4.15,-9.1 5.85,-9.1 5.85,-10.8"/>
<polygon id="0000017F652CE590" class="l68d20" points="3.55,-11.4 3.55,-8.5 6.45,-8.5 6.45,-11.4"/>
<polygon id="0000017F652CDFE0" class="l67d20" points="3.35,-11.6 3.35,-8.3 6.65,-8.3 6.65,-11.6"/>
<polygon id="0000017F652CE670" class="l67d44" points="4.15,-10.8 4.15,-9.1 5.85,-9.1 5.85,-10.8"/>
<polygon id="0000017F652CEB40" class="l66d20" points="3.35,-11.6 3.35,-8.3 6.65,-8.3 6.65,-11.6"/>
<polygon id="0000017F652CE520" class="l66d44" points="-0.85,-10.8 -0.85,-9.1 0.85,-9.1 0.85,-10.8"/>
<polygon id="0000017F652CE830" class="l68d20" points="-1.45,-11.4 -1.45,-8.5 1.45,-8.5 1.45,-11.4"/>
<polygon id="0000017F652CE360" class="l67d20" points="-1.65,-11.6 -1.65,-8.3 1.65,-8.3 1.65,-11.6"/>
<polygon id="0000017F652CE210" class="l67d44" points="-0.85,-10.8 -0.85,-9.1 0.85,-9.1 0.85,-10.8"/>
<polygon id="0000017F652CE9F0" class="l66d20" points="-1.65,-11.6 -1.65,-8.3 1.65,-8.3 1.65,-11.6"/>
<polygon id="0000017F652CE440" class="l68d20" points="-8.55,-11.6 -8.55,-8.3 8.55,-8.3 8.55,-11.6"/>
<polygon id="0000017F652CE050" class="l66d20" points="-8.55,-11.6 -8.55,-8.3 8.55,-8.3 8.55,-11.6"/>
<polygon id="0000017F652CE980" class="l95d20" points="-1.85,-11.8 1.85,-11.8 1.85,-8.1 -1.85,-8.1"/>
<polygon id="0000017F652CDDB0" class="l95d20" points="3.15,-11.8 6.85,-11.8 6.85,-8.1 3.15,-8.1"/>
<polygon id="0000017F652CE6E0" class="l95d20" points="-6.85,-11.8 -3.15,-11.8 -3.15,-8.1 -6.85,-8.1"/>
<polygon id="0000017F652CE750" class="l95d20" points="-1.85,-11.8 6.85,-11.8 6.85,-8.1 -1.85,-8.1"/>
<polygon id="0000017F652CEA60" class="l95d20" points="-6.85,-11.8 1.85,-11.8 1.85,-8.1 -6.85,-8.1"/>
<polygon id="0000017F652CE8A0" class="l95d20" points="-1.85,-11.8 6.85,-11.8 6.85,-8.1 -1.85,-8.1"/>
<polygon id="0000017F652CDE20" class="l95d20" points="-6.85,-11.8 1.85,-11.8 1.85,-8.1 -6.85,-8.1"/>
<polygon id="0000017F652CE130" class="l67d20" points="8.55,3.2 11.85,3.2 11.85,6.95 8.55,6.95"/>
<polygon id="0000017F652CDF70" class="l67d44" points="9.35,5.25 9.35,6.95 11.05,6.95 11.05,5.25"/>
<polygon id="0000017F652CE4B0" class="l68d20" points="8.75,4.65 8.75,7.55 11.65,7.55 11.65,4.65"/>
<polygon id="0000017F652CE7C0" class="l67d20" points="9.35,5.25 9.35,6.95 11.05,6.95 11.05,5.25"/>
<polygon id="0000017F652CE1A0" class="l66d20" points="6.75,-8.3 8.55,-8.3 8.55,-4.3 6.75,-4.3"/>
<polygon id="0000017F652CEAD0" class="l67d20" points="3.45,3.2 6.75,3.2 6.75,11.25 3.45,11.25"/>
<polygon id="0000017F652CE0C0" class="l67d44" points="4.25,9.55 4.25,11.25 5.95,11.25 5.95,9.55"/>
<polygon id="0000017F652CE910" class="l68d20" points="3.65,8.95 3.65,11.85 6.55,11.85 6.55,8.95"/>
<polygon id="0000017F652CDE90" class="l67d20" points="4.25,9.55 4.25,11.25 5.95,11.25 5.95,9.55"/>
<polygon id="0000017F652CED70" class="l66d20" points="1.65,-8.3 3.45,-8.3 3.45,-4.3 1.65,-4.3"/>
<polygon id="0000017F652CF780" class="l67d20" points="-1.65,3.2 1.65,3.2 1.65,6.95 -1.65,6.95"/>
<polygon id="0000017F652CF470" class="l67d44" points="-0.85,5.25 -0.85,6.95 0.85,6.95 0.85,5.25"/>
<polygon id="0000017F652CF630" class="l68d20" points="-1.45,4.65 -1.45,7.55 1.45,7.55 1.45,4.65"/>
<polygon id="0000017F652CEF30" class="l67d20" points="-0.85,5.25 -0.85,6.95 0.85,6.95 0.85,5.25"/>
<polygon id="0000017F652CF0F0" class="l66d20" points="-3.45,-8.3 -1.65,-8.3 -1.65,-4.3 -3.45,-4.3"/>
<polygon id="0000017F652CF5C0" class="l67d20" points="-6.75,3.2 -3.45,3.2 -3.45,11.25 -6.75,11.25"/>
<polygon id="0000017F652CF710" class="l67d44" points="-5.95,9.55 -5.95,11.25 -4.25,11.25 -4.25,9.55"/>
<polygon id="0000017F652CF010" class="l68d20" points="-6.55,8.95 -6.55,11.85 -3.65,11.85 -3.65,8.95"/>
<polygon id="0000017F652CF240" class="l67d20" points="-5.95,9.55 -5.95,11.25 -4.25,11.25 -4.25,9.55"/>
<polygon id="0000017F652CEFA0" class="l66d20" points="-8.55,-8.3 -6.75,-8.3 -6.75,-4.3 -8.55,-4.3"/>
<polygon id="0000017F652CEC90" class="l67d20" points="-11.85,3.2 -8.55,3.2 -8.55,6.95 -11.85,6.95"/>
<polygon id="0000017F652CF4E0" class="l67d20" points="22,-7.6 39.15,-7.6 39.15,-4.3 22,-4.3"/>
<polygon id="0000017F652CF550" class="l67d20" points="-39.15,-7.6 -25.3,-7.6 -25.3,-4.3 -39.15,-4.3"/>
<polygon id="0000017F652CF1D0" class="l65d20" points="39.15,21.25 -39.15,21.25 -39.15,-17.15 -35.05,-17.15 -35.05,17.15 35.05,17.15 35.05,-17.15 -35.05,-17.15 -39.15,-17.15 -39.15,-21.25 39.15,-21.25"/>
<polygon id="0000017F652CF160" class="l68d20" points="35.05,-21.25 39.15,-21.25 39.15,-17.15 35.05,-17.15"/>
<polygon id="0000017F652CF2B0" class="l67d44" points="36.25,-20.05 36.25,-18.35 37.95,-18.35 37.95,-20.05"/>
<polygon id="0000017F652CF6A0" class="l68d20" points="35.65,-20.65 35.65,-17.75 38.55,-17.75 38.55,-20.65"/>
<polygon id="0000017F652CF8D0" class="l67d20" points="36.25,-20.05 36.25,-18.35 37.95,-18.35 37.95,-20.05"/>
<polygon id="0000017F652CEBB0" class="l68d20" points="35.05,-21.25 35.05,-17.15 39.15,-17.15 39.15,-21.25"/>
<polygon id="0000017F652CED00" class="l67d20" points="36.25,-20.05 36.25,-18.35 37.95,-18.35 37.95,-20.05"/>
<polygon id="0000017F652CF940" class="l67d20" points="35.05,-21.25 39.15,-21.25 39.15,-17.15 35.05,-17.15"/>
<polygon id="0000017F652CF860" class="l68d20" points="-39.15,-21.25 -35.05,-21.25 -35.05,-17.15 -39.15,-17.15"/>
<polygon id="0000017F652CEEC0" class="l67d44" points="-37.95,-20.05 -37.95,-18.35 -36.25,-18.35 -36.25,-20.05"/>
<polygon id="0000017F652CEDE0" class="l68d20" points="-38.55,-20.65 -38.55,-17.75 -35.65,-17.75 -35.65,-20.65"/>
<polygon id="0000017F652CF080" class="l67d20" points="-37.95,-20.05 -37.95,-18.35 -36.25,-18.35 -36.25,-20.05"/>
<polygon id="0000017F652CF7F0" class="l68d20" points="-39.15,-21.25 -39.15,-17.15 -35.05,-17.15 -35.05,-21.25"/>
<polygon id="0000017F652CEE50" class="l67d20" points="-37.95,-20.05 -37.95,-18.35 -36.25,-18.35 -36.25,-20.05"/>
<polygon id="0000017F652CFFD0" class="l67d20" points="-39.15,-21.25 -35.05,-21.25 -35.05,-17.15 -39.15,-17.15"/>
<polygon id="0000017F652D0740" class="l68d20" points="35.05,17.15 39.15,17.15 39.15,21.25 35.05,21.25"/>
<polygon id="0000017F652D0040" class="l67d44" points="36.25,18.35 36.25,20.05 37.95,20.05 37.95,18.35"/>
<polygon id="0000017F652CFE10" class="l68d20" points="35.65,17.75 35.65,20.65 38.55,20.65 38.55,17.75"/>
<polygon id="0000017F652CFB00" class="l67d20" points="36.25,18.35 36.25,20.05 37.95,20.05 37.95,18.35"/>
<polygon id="0000017F652CFA20" class="l68d20" points="35.05,17.15 35.05,21.25 39.15,21.25 39.15,17.15"/>
<polygon id="0000017F652D0580" class="l67d20" points="36.25,18.35 36.25,20.05 37.95,20.05 37.95,18.35"/>
<polygon id="0000017F652D02E0" class="l67d20" points="35.05,17.15 39.15,17.15 39.15,21.25 35.05,21.25"/>
<polygon id="0000017F652CF9B0" class="l68d20" points="-39.15,17.15 -35.05,17.15 -35.05,21.25 -39.15,21.25"/>
<polygon id="0000017F652CFF60" class="l67d44" points="-37.95,18.35 -37.95,20.05 -36.25,20.05 -36.25,18.35"/>
<polygon id="0000017F652D03C0" class="l68d20" points="-38.55,17.75 -38.55,20.65 -35.65,20.65 -35.65,17.75"/>
<polygon id="0000017F652CFDA0" class="l67d20" points="-37.95,18.35 -37.95,20.05 -36.25,20.05 -36.25,18.35"/>
<polygon id="0000017F652D0120" class="l68d20" points="-39.15,17.15 -39.15,21.25 -35.05,21.25 -35.05,17.15"/>
<polygon id="0000017F652CFBE0" class="l67d20" points="-37.95,18.35 -37.95,20.05 -36.25,20.05 -36.25,18.35"/>
<polygon id="0000017F652D0200" class="l67d20" points="-39.15,17.15 -35.05,17.15 -35.05,21.25 -39.15,21.25"/>
<polygon id="0000017F652CFA90" class="l66d44" points="-37.95,-14.45 -37.95,-12.75 -36.25,-12.75 -36.25,-14.45"/>
<polygon id="0000017F652CFEF0" class="l67d20" points="-38.75,-15.25 -38.75,-11.95 -35.45,-11.95 -35.45,-15.25"/>
<polygon id="0000017F652CFC50" class="l65d20" points="-39.15,-15.65 -39.15,-11.55 -35.05,-11.55 -35.05,-15.65"/>
<polygon id="0000017F652CFCC0" class="l66d44" points="-37.95,12.75 -37.95,14.45 -36.25,14.45 -36.25,12.75"/>
<polygon id="0000017F652D0190" class="l67d20" points="-38.75,11.95 -38.75,15.25 -35.45,15.25 -35.45,11.95"/>
<polygon id="0000017F652D04A0" class="l65d20" points="-39.15,11.55 -39.15,15.65 -35.05,15.65 -35.05,11.55"/>
<polygon id="0000017F652D05F0" class="l66d44" points="-37.95,9.35 -37.95,11.05 -36.25,11.05 -36.25,9.35"/>
<polygon id="0000017F652D0510" class="l67d20" points="-38.75,8.55 -38.75,11.85 -35.45,11.85 -35.45,8.55"/>
<polygon id="0000017F652CFE80" class="l65d20" points="-39.15,8.15 -39.15,12.25 -35.05,12.25 -35.05,8.15"/>
<polygon id="0000017F652CFB70" class="l66d44" points="-37.95,5.95 -37.95,7.65 -36.25,7.65 -36.25,5.95"/>
<polygon id="0000017F652D0430" class="l67d20" points="-38.75,5.15 -38.75,8.45 -35.45,8.45 -35.45,5.15"/>
<polygon id="0000017F652CFD30" class="l65d20" points="-39.15,4.75 -39.15,8.85 -35.05,8.85 -35.05,4.75"/>
<polygon id="0000017F652D0660" class="l66d44" points="-37.95,2.55 -37.95,4.25 -36.25,4.25 -36.25,2.55"/>
<polygon id="0000017F652D06D0" class="l67d20" points="-38.75,1.75 -38.75,5.05 -35.45,5.05 -35.45,1.75"/>
<polygon id="0000017F652D0350" class="l65d20" points="-39.15,1.35 -39.15,5.45 -35.05,5.45 -35.05,1.35"/>
<polygon id="0000017F652D0270" class="l66d44" points="-37.95,-0.85 -37.95,0.85 -36.25,0.85 -36.25,-0.85"/>
<polygon id="0000017F652D1540" class="l67d20" points="-38.75,-1.65 -38.75,1.65 -35.45,1.65 -35.45,-1.65"/>
<polygon id="0000017F652D0F20" class="l65d20" points="-39.15,-2.05 -39.15,2.05 -35.05,2.05 -35.05,-2.05"/>
<polygon id="0000017F652D0820" class="l66d44" points="-37.95,-4.25 -37.95,-2.55 -36.25,-2.55 -36.25,-4.25"/>
<polygon id="0000017F652D1460" class="l67d20" points="-38.75,-5.05 -38.75,-1.75 -35.45,-1.75 -35.45,-5.05"/>
<polygon id="0000017F652D1150" class="l65d20" points="-39.15,-5.45 -39.15,-1.35 -35.05,-1.35 -35.05,-5.45"/>
<polygon id="0000017F652D1930" class="l66d44" points="-37.95,-7.65 -37.95,-5.95 -36.25,-5.95 -36.25,-7.65"/>
<polygon id="0000017F652D2730" class="l67d20" points="-38.75,-8.45 -38.75,-5.15 -35.45,-5.15 -35.45,-8.45"/>
<polygon id="0000017F652D37D0" class="l65d20" points="-39.15,-8.85 -39.15,-4.75 -35.05,-4.75 -35.05,-8.85"/>
<polygon id="0000017F652D4B80" class="l66d44" points="-37.95,-11.05 -37.95,-9.35 -36.25,-9.35 -36.25,-11.05"/>
<polygon id="0000017F652D46B0" class="l67d20" points="-38.75,-11.85 -38.75,-8.55 -35.45,-8.55 -35.45,-11.85"/>
<polygon id="0000017F652D5050" class="l65d20" points="-39.15,-12.25 -39.15,-8.15 -35.05,-8.15 -35.05,-12.25"/>
<polygon id="0000017F652D57C0" class="l67d20" points="-39.15,-17.15 -39.15,17.15 -35.05,17.15 -35.05,-17.15"/>
<polygon id="0000017F652D5210" class="l65d20" points="-39.15,-15.65 -39.15,15.65 -35.05,15.65 -35.05,-15.65"/>
<polygon id="0000017F652D5280" class="l66d44" points="-28.35,-20.05 -28.35,-18.35 -26.65,-18.35 -26.65,-20.05"/>
<polygon id="0000017F652D5980" class="l68d20" points="-28.95,-20.65 -28.95,-17.75 -26.05,-17.75 -26.05,-20.65"/>
<polygon id="0000017F652D4FE0" class="l67d20" points="-29.15,-20.85 -29.15,-17.55 -25.85,-17.55 -25.85,-20.85"/>
<polygon id="0000017F652D5360" class="l67d44" points="-28.35,-20.05 -28.35,-18.35 -26.65,-18.35 -26.65,-20.05"/>
<polygon id="0000017F652D4F00" class="l65d20" points="-29.55,-21.25 -29.55,-17.15 -25.45,-17.15 -25.45,-21.25"/>
<polygon id="0000017F652D6940" class="l66d44" points="26.65,-20.05 26.65,-18.35 28.35,-18.35 28.35,-20.05"/>
<polygon id="0000017F652D6A90" class="l68d20" points="26.05,-20.65 26.05,-17.75 28.95,-17.75 28.95,-20.65"/>
<polygon id="0000017F652D6C50" class="l67d20" points="25.85,-20.85 25.85,-17.55 29.15,-17.55 29.15,-20.85"/>
<polygon id="0000017F652D8310" class="l67d44" points="26.65,-20.05 26.65,-18.35 28.35,-18.35 28.35,-20.05"/>
<polygon id="0000017F652D89A0" class="l65d20" points="25.45,-21.25 25.45,-17.15 29.55,-17.15 29.55,-21.25"/>
<polygon id="0000017F652D9180" class="l66d44" points="21.65,-20.05 21.65,-18.35 23.35,-18.35 23.35,-20.05"/>
<polygon id="0000017F652D9490" class="l68d20" points="21.05,-20.65 21.05,-17.75 23.95,-17.75 23.95,-20.65"/>
<polygon id="0000017F652D9F80" class="l67d20" points="20.85,-20.85 20.85,-17.55 24.15,-17.55 24.15,-20.85"/>
<polygon id="0000017F652DA060" class="l67d44" points="21.65,-20.05 21.65,-18.35 23.35,-18.35 23.35,-20.05"/>
<polygon id="0000017F652D9500" class="l65d20" points="20.45,-21.25 20.45,-17.15 24.55,-17.15 24.55,-21.25"/>
<polygon id="0000017F652DA920" class="l66d44" points="16.65,-20.05 16.65,-18.35 18.35,-18.35 18.35,-20.05"/>
<polygon id="0000017F652DAFB0" class="l68d20" points="16.05,-20.65 16.05,-17.75 18.95,-17.75 18.95,-20.65"/>
<polygon id="0000017F652DB410" class="l67d20" points="15.85,-20.85 15.85,-17.55 19.15,-17.55 19.15,-20.85"/>
<polygon id="0000017F652DB720" class="l67d44" points="16.65,-20.05 16.65,-18.35 18.35,-18.35 18.35,-20.05"/>
<polygon id="0000017F652DB1E0" class="l65d20" points="15.45,-21.25 15.45,-17.15 19.55,-17.15 19.55,-21.25"/>
<polygon id="0000017F652DBB10" class="l66d44" points="11.65,-20.05 11.65,-18.35 13.35,-18.35 13.35,-20.05"/>
<polygon id="0000017F652E0E30" class="l68d20" points="11.05,-20.65 11.05,-17.75 13.95,-17.75 13.95,-20.65"/>
<polygon id="0000017F652E18B0" class="l67d20" points="10.85,-20.85 10.85,-17.55 14.15,-17.55 14.15,-20.85"/>
<polygon id="0000017F652C7EC0" class="l67d44" points="11.65,-20.05 11.65,-18.35 13.35,-18.35 13.35,-20.05"/>
<polygon id="0000017F652C8550" class="l65d20" points="10.45,-21.25 10.45,-17.15 14.55,-17.15 14.55,-21.25"/>
<polygon id="0000017F652C7FA0" class="l66d44" points="6.65,-20.05 6.65,-18.35 8.35,-18.35 8.35,-20.05"/>
<polygon id="0000017F652C8860" class="l68d20" points="6.05,-20.65 6.05,-17.75 8.95,-17.75 8.95,-20.65"/>
<polygon id="0000017F652C7C20" class="l67d20" points="5.85,-20.85 5.85,-17.55 9.15,-17.55 9.15,-20.85"/>
<polygon id="0000017F652C8080" class="l67d44" points="6.65,-20.05 6.65,-18.35 8.35,-18.35 8.35,-20.05"/>
<polygon id="0000017F652C8940" class="l65d20" points="5.45,-21.25 5.45,-17.15 9.55,-17.15 9.55,-21.25"/>
<polygon id="0000017F652C8630" class="l66d44" points="1.65,-20.05 1.65,-18.35 3.35,-18.35 3.35,-20.05"/>
<polygon id="0000017F652C8710" class="l68d20" points="1.05,-20.65 1.05,-17.75 3.95,-17.75 3.95,-20.65"/>
<polygon id="0000017F652C81D0" class="l67d20" points="0.85,-20.85 0.85,-17.55 4.15,-17.55 4.15,-20.85"/>
<polygon id="0000017F652C82B0" class="l67d44" points="1.65,-20.05 1.65,-18.35 3.35,-18.35 3.35,-20.05"/>
<polygon id="0000017F652C8320" class="l65d20" points="0.45,-21.25 0.45,-17.15 4.55,-17.15 4.55,-21.25"/>
<polygon id="0000017F652C7D00" class="l66d44" points="-3.35,-20.05 -3.35,-18.35 -1.65,-18.35 -1.65,-20.05"/>
<polygon id="0000017F652C95F0" class="l68d20" points="-3.95,-20.65 -3.95,-17.75 -1.05,-17.75 -1.05,-20.65"/>
<polygon id="0000017F652C8A90" class="l67d20" points="-4.15,-20.85 -4.15,-17.55 -0.85,-17.55 -0.85,-20.85"/>
<polygon id="0000017F652C94A0" class="l67d44" points="-3.35,-20.05 -3.35,-18.35 -1.65,-18.35 -1.65,-20.05"/>
<polygon id="0000017F652C9040" class="l65d20" points="-4.55,-21.25 -4.55,-17.15 -0.45,-17.15 -0.45,-21.25"/>
<polygon id="0000017F652C8BE0" class="l66d44" points="-8.35,-20.05 -8.35,-18.35 -6.65,-18.35 -6.65,-20.05"/>
<polygon id="0000017F652C9740" class="l68d20" points="-8.95,-20.65 -8.95,-17.75 -6.05,-17.75 -6.05,-20.65"/>
<polygon id="0000017F652C9660" class="l67d20" points="-9.15,-20.85 -9.15,-17.55 -5.85,-17.55 -5.85,-20.85"/>
<polygon id="0000017F652C90B0" class="l67d44" points="-8.35,-20.05 -8.35,-18.35 -6.65,-18.35 -6.65,-20.05"/>
<polygon id="0000017F652C8EF0" class="l65d20" points="-9.55,-21.25 -9.55,-17.15 -5.45,-17.15 -5.45,-21.25"/>
<polygon id="0000017F652C8A20" class="l66d44" points="-13.35,-20.05 -13.35,-18.35 -11.65,-18.35 -11.65,-20.05"/>
<polygon id="0000017F652C8E10" class="l68d20" points="-13.95,-20.65 -13.95,-17.75 -11.05,-17.75 -11.05,-20.65"/>
<polygon id="0000017F652C92E0" class="l67d20" points="-14.15,-20.85 -14.15,-17.55 -10.85,-17.55 -10.85,-20.85"/>
<polygon id="0000017F652C9200" class="l67d44" points="-13.35,-20.05 -13.35,-18.35 -11.65,-18.35 -11.65,-20.05"/>
<polygon id="0000017F652C9430" class="l65d20" points="-14.55,-21.25 -14.55,-17.15 -10.45,-17.15 -10.45,-21.25"/>
<polygon id="0000017F652C8B70" class="l66d44" points="-18.35,-20.05 -18.35,-18.35 -16.65,-18.35 -16.65,-20.05"/>
<polygon id="0000017F652C8E80" class="l68d20" points="-18.95,-20.65 -18.95,-17.75 -16.05,-17.75 -16.05,-20.65"/>
<polygon id="0000017F652C9580" class="l67d20" points="-19.15,-20.85 -19.15,-17.55 -15.85,-17.55 -15.85,-20.85"/>
<polygon id="0000017F652C9190" class="l67d44" points="-18.35,-20.05 -18.35,-18.35 -16.65,-18.35 -16.65,-20.05"/>
<polygon id="0000017F652C9510" class="l65d20" points="-19.55,-21.25 -19.55,-17.15 -15.45,-17.15 -15.45,-21.25"/>
<polygon id="0000017F652C9350" class="l66d44" points="-23.35,-20.05 -23.35,-18.35 -21.65,-18.35 -21.65,-20.05"/>
<polygon id="0000017F652C8C50" class="l68d20" points="-23.95,-20.65 -23.95,-17.75 -21.05,-17.75 -21.05,-20.65"/>
<polygon id="0000017F652CA3F0" class="l67d20" points="-24.15,-20.85 -24.15,-17.55 -20.85,-17.55 -20.85,-20.85"/>
<polygon id="0000017F652C9E40" class="l67d44" points="-23.35,-20.05 -23.35,-18.35 -21.65,-18.35 -21.65,-20.05"/>
<polygon id="0000017F652C9F20" class="l65d20" points="-24.55,-21.25 -24.55,-17.15 -20.45,-17.15 -20.45,-21.25"/>
<polygon id="0000017F652C9820" class="l67d20" points="-29.15,-20.85 -29.15,-17.55 29.15,-17.55 29.15,-20.85"/>
<polygon id="0000017F652CA070" class="l68d20" points="-35.05,-21.25 -35.05,-17.15 35.05,-17.15 35.05,-21.25"/>
<polygon id="0000017F652C9B30" class="l65d20" points="-29.55,-21.25 -29.55,-17.15 29.55,-17.15 29.55,-21.25"/>
<polygon id="0000017F652CA460" class="l66d44" points="36.25,-14.45 36.25,-12.75 37.95,-12.75 37.95,-14.45"/>
<polygon id="0000017F652C99E0" class="l67d20" points="35.45,-15.25 35.45,-11.95 38.75,-11.95 38.75,-15.25"/>
<polygon id="0000017F652C9C10" class="l65d20" points="35.05,-15.65 35.05,-11.55 39.15,-11.55 39.15,-15.65"/>
<polygon id="0000017F652C9C80" class="l66d44" points="36.25,12.75 36.25,14.45 37.95,14.45 37.95,12.75"/>
<polygon id="0000017F652C9970" class="l67d20" points="35.45,11.95 35.45,15.25 38.75,15.25 38.75,11.95"/>
<polygon id="0000017F652C9D60" class="l65d20" points="35.05,11.55 35.05,15.65 39.15,15.65 39.15,11.55"/>
<polygon id="0000017F652C9890" class="l66d44" points="36.25,9.35 36.25,11.05 37.95,11.05 37.95,9.35"/>
<polygon id="0000017F652C9EB0" class="l67d20" points="35.45,8.55 35.45,11.85 38.75,11.85 38.75,8.55"/>
<polygon id="0000017F652C9F90" class="l65d20" points="35.05,8.15 35.05,12.25 39.15,12.25 39.15,8.15"/>
<polygon id="0000017F652CA540" class="l66d44" points="36.25,5.95 36.25,7.65 37.95,7.65 37.95,5.95"/>
<polygon id="0000017F652CA380" class="l67d20" points="35.45,5.15 35.45,8.45 38.75,8.45 38.75,5.15"/>
<polygon id="0000017F652CA4D0" class="l65d20" points="35.05,4.75 35.05,8.85 39.15,8.85 39.15,4.75"/>
<polygon id="0000017F652CA770" class="l66d44" points="36.25,2.55 36.25,4.25 37.95,4.25 37.95,2.55"/>
<polygon id="0000017F652CAE70" class="l67d20" points="35.45,1.75 35.45,5.05 38.75,5.05 38.75,1.75"/>
<polygon id="0000017F652CAEE0" class="l65d20" points="35.05,1.35 35.05,5.45 39.15,5.45 39.15,1.35"/>
<polygon id="0000017F652CAC40" class="l66d44" points="36.25,-0.85 36.25,0.85 37.95,0.85 37.95,-0.85"/>
<polygon id="0000017F652CB0A0" class="l67d20" points="35.45,-1.65 35.45,1.65 38.75,1.65 38.75,-1.65"/>
<polygon id="0000017F652CAD20" class="l65d20" points="35.05,-2.05 35.05,2.05 39.15,2.05 39.15,-2.05"/>
<polygon id="0000017F652CB030" class="l66d44" points="36.25,-4.25 36.25,-2.55 37.95,-2.55 37.95,-4.25"/>
<polygon id="0000017F652CA930" class="l67d20" points="35.45,-5.05 35.45,-1.75 38.75,-1.75 38.75,-5.05"/>
<polygon id="0000017F652CA7E0" class="l65d20" points="35.05,-5.45 35.05,-1.35 39.15,-1.35 39.15,-5.45"/>
<polygon id="0000017F652CAF50" class="l66d44" points="36.25,-7.65 36.25,-5.95 37.95,-5.95 37.95,-7.65"/>
<polygon id="0000017F652CAA10" class="l67d20" points="35.45,-8.45 35.45,-5.15 38.75,-5.15 38.75,-8.45"/>
<polygon id="0000017F652CACB0" class="l65d20" points="35.05,-8.85 35.05,-4.75 39.15,-4.75 39.15,-8.85"/>
<polygon id="0000017F652CAB60" class="l66d44" points="36.25,-11.05 36.25,-9.35 37.95,-9.35 37.95,-11.05"/>
<polygon id="0000017F652CA850" class="l67d20" points="35.45,-11.85 35.45,-8.55 38.75,-8.55 38.75,-11.85"/>
<polygon id="0000017F652CB110" class="l65d20" points="35.05,-12.25 35.05,-8.15 39.15,-8.15 39.15,-12.25"/>
<polygon id="0000017F652CB1F0" class="l67d20" points="35.05,-17.15 35.05,17.15 39.15,17.15 39.15,-17.15"/>
<polygon id="0000017F652CAA80" class="l65d20" points="35.05,-15.65 35.05,15.65 39.15,15.65 39.15,-15.65"/>
<polygon id="0000017F652CA620" class="l66d44" points="-28.35,18.35 -28.35,20.05 -26.65,20.05 -26.65,18.35"/>
<polygon id="0000017F652CB340" class="l68d20" points="-28.95,17.75 -28.95,20.65 -26.05,20.65 -26.05,17.75"/>
<polygon id="0000017F652CA700" class="l67d20" points="-29.15,17.55 -29.15,20.85 -25.85,20.85 -25.85,17.55"/>
<polygon id="0000017F652CB570" class="l67d44" points="-28.35,18.35 -28.35,20.05 -26.65,20.05 -26.65,18.35"/>
<polygon id="0000017F652CB3B0" class="l65d20" points="-29.55,17.15 -29.55,21.25 -25.45,21.25 -25.45,17.15"/>
<polygon id="0000017F652CB650" class="l66d44" points="26.65,18.35 26.65,20.05 28.35,20.05 28.35,18.35"/>
<polygon id="0000017F652CB500" class="l68d20" points="26.05,17.75 26.05,20.65 28.95,20.65 28.95,17.75"/>
<polygon id="0000017F652CBE30" class="l67d20" points="25.85,17.55 25.85,20.85 29.15,20.85 29.15,17.55"/>
<polygon id="0000017F652CBF80" class="l67d44" points="26.65,18.35 26.65,20.05 28.35,20.05 28.35,18.35"/>
<polygon id="0000017F652CB8F0" class="l65d20" points="25.45,17.15 25.45,21.25 29.55,21.25 29.55,17.15"/>
<polygon id="0000017F652CB490" class="l66d44" points="21.65,18.35 21.65,20.05 23.35,20.05 23.35,18.35"/>
<polygon id="0000017F652CBD50" class="l68d20" points="21.05,17.75 21.05,20.65 23.95,20.65 23.95,17.75"/>
<polygon id="0000017F652CBAB0" class="l67d20" points="20.85,17.55 20.85,20.85 24.15,20.85 24.15,17.55"/>
<polygon id="0000017F652CBEA0" class="l67d44" points="21.65,18.35 21.65,20.05 23.35,20.05 23.35,18.35"/>
<polygon id="0000017F652CB7A0" class="l65d20" points="20.45,17.15 20.45,21.25 24.55,21.25 24.55,17.15"/>
<polygon id="0000017F652CB880" class="l66d44" points="16.65,18.35 16.65,20.05 18.35,20.05 18.35,18.35"/>
<polygon id="0000017F652CBC70" class="l68d20" points="16.05,17.75 16.05,20.65 18.95,20.65 18.95,17.75"/>
<polygon id="0000017F652CBDC0" class="l67d20" points="15.85,17.55 15.85,20.85 19.15,20.85 19.15,17.55"/>
<polygon id="0000017F652CB6C0" class="l67d44" points="16.65,18.35 16.65,20.05 18.35,20.05 18.35,18.35"/>
<polygon id="0000017F652CB420" class="l65d20" points="15.45,17.15 15.45,21.25 19.55,21.25 19.55,17.15"/>
<polygon id="0000017F652CBB20" class="l66d44" points="11.65,18.35 11.65,20.05 13.35,20.05 13.35,18.35"/>
<polygon id="0000017F652CDBF0" class="l68d20" points="11.05,17.75 11.05,20.65 13.95,20.65 13.95,17.75"/>
<polygon id="0000017F652CD410" class="l67d20" points="10.85,17.55 10.85,20.85 14.15,20.85 14.15,17.55"/>
<polygon id="0000017F652CD640" class="l67d44" points="11.65,18.35 11.65,20.05 13.35,20.05 13.35,18.35"/>
<polygon id="0000017F652CD480" class="l65d20" points="10.45,17.15 10.45,21.25 14.55,21.25 14.55,17.15"/>
<polygon id="0000017F652CD090" class="l66d44" points="6.65,18.35 6.65,20.05 8.35,20.05 8.35,18.35"/>
<polygon id="0000017F652CDAA0" class="l68d20" points="6.05,17.75 6.05,20.65 8.95,20.65 8.95,17.75"/>
<polygon id="0000017F652CDA30" class="l67d20" points="5.85,17.55 5.85,20.85 9.15,20.85 9.15,17.55"/>
<polygon id="0000017F652CDD40" class="l67d44" points="6.65,18.35 6.65,20.05 8.35,20.05 8.35,18.35"/>
<polygon id="0000017F652CD800" class="l65d20" points="5.45,17.15 5.45,21.25 9.55,21.25 9.55,17.15"/>
<polygon id="0000017F652CD2C0" class="l66d44" points="1.65,18.35 1.65,20.05 3.35,20.05 3.35,18.35"/>
<polygon id="0000017F652CD6B0" class="l68d20" points="1.05,17.75 1.05,20.65 3.95,20.65 3.95,17.75"/>
<polygon id="0000017F652CDC60" class="l67d20" points="0.85,17.55 0.85,20.85 4.15,20.85 4.15,17.55"/>
<polygon id="0000017F652CD020" class="l67d44" points="1.65,18.35 1.65,20.05 3.35,20.05 3.35,18.35"/>
<polygon id="0000017F652CD100" class="l65d20" points="0.45,17.15 0.45,21.25 4.55,21.25 4.55,17.15"/>
<polygon id="0000017F652CD1E0" class="l66d44" points="-3.35,18.35 -3.35,20.05 -1.65,20.05 -1.65,18.35"/>
<polygon id="0000017F652CD3A0" class="l68d20" points="-3.95,17.75 -3.95,20.65 -1.05,20.65 -1.05,17.75"/>
<polygon id="0000017F652CD870" class="l67d20" points="-4.15,17.55 -4.15,20.85 -0.85,20.85 -0.85,17.55"/>
<polygon id="0000017F652CD9C0" class="l67d44" points="-3.35,18.35 -3.35,20.05 -1.65,20.05 -1.65,18.35"/>
<polygon id="0000017F652CD5D0" class="l65d20" points="-4.55,17.15 -4.55,21.25 -0.45,21.25 -0.45,17.15"/>
<polygon id="0000017F652CD560" class="l66d44" points="-8.35,18.35 -8.35,20.05 -6.65,20.05 -6.65,18.35"/>
<polygon id="0000017F652CDB10" class="l68d20" points="-8.95,17.75 -8.95,20.65 -6.05,20.65 -6.05,17.75"/>
<polygon id="0000017F652CD8E0" class="l67d20" points="-9.15,17.55 -9.15,20.85 -5.85,20.85 -5.85,17.55"/>
<polygon id="0000017F652CD250" class="l67d44" points="-8.35,18.35 -8.35,20.05 -6.65,20.05 -6.65,18.35"/>
<polygon id="0000017F652CDB80" class="l65d20" points="-9.55,17.15 -9.55,21.25 -5.45,21.25 -5.45,17.15"/>
<polygon id="0000017F652CD170" class="l66d44" points="-13.35,18.35 -13.35,20.05 -11.65,20.05 -11.65,18.35"/>
<polygon id="0000017F652CCFB0" class="l68d20" points="-13.95,17.75 -13.95,20.65 -11.05,20.65 -11.05,17.75"/>
<polygon id="0000017F652CD330" class="l67d20" points="-14.15,17.55 -14.15,20.85 -10.85,20.85 -10.85,17.55"/>
<polygon id="0000017F652CD950" class="l67d44" points="-13.35,18.35 -13.35,20.05 -11.65,20.05 -11.65,18.35"/>
<polygon id="0000017F652CD720" class="l65d20" points="-14.55,17.15 -14.55,21.25 -10.45,21.25 -10.45,17.15"/>
<polygon id="0000017F652CD790" class="l66d44" points="-18.35,18.35 -18.35,20.05 -16.65,20.05 -16.65,18.35"/>
<polygon id="0000017F64477340" class="l68d20" points="-18.95,17.75 -18.95,20.65 -16.05,20.65 -16.05,17.75"/>
<polygon id="0000017F644769A0" class="l67d20" points="-19.15,17.55 -19.15,20.85 -15.85,20.85 -15.85,17.55"/>
<polygon id="0000017F64476850" class="l67d44" points="-18.35,18.35 -18.35,20.05 -16.65,20.05 -16.65,18.35"/>
<polygon id="0000017F64476A80" class="l65d20" points="-19.55,17.15 -19.55,21.25 -15.45,21.25 -15.45,17.15"/>
<polygon id="0000017F64476EE0" class="l66d44" points="-23.35,18.35 -23.35,20.05 -21.65,20.05 -21.65,18.35"/>
<polygon id="0000017F64477260" class="l68d20" points="-23.95,17.75 -23.95,20.65 -21.05,20.65 -21.05,17.75"/>
<polygon id="0000017F644773B0" class="l67d20" points="-24.15,17.55 -24.15,20.85 -20.85,20.85 -20.85,17.55"/>
<polygon id="0000017F64476BD0" class="l67d44" points="-23.35,18.35 -23.35,20.05 -21.65,20.05 -21.65,18.35"/>
<polygon id="0000017F644772D0" class="l65d20" points="-24.55,17.15 -24.55,21.25 -20.45,21.25 -20.45,17.15"/>
<polygon id="0000017F64476A10" class="l67d20" points="-29.15,17.55 -29.15,20.85 29.15,20.85 29.15,17.55"/>
<polygon id="0000017F644771F0" class="l68d20" points="-35.05,17.15 -35.05,21.25 35.05,21.25 35.05,17.15"/>
<polygon id="0000017F64476700" class="l65d20" points="-29.55,17.15 -29.55,21.25 29.55,21.25 29.55,17.15"/>
<polygon id="0000017F64476FC0" class="l94d20" points="40.45,22.55 -40.45,22.55 -40.45,-15.85 -33.75,-15.85 -33.75,15.85 33.75,15.85 33.75,-15.85 -33.75,-15.85 -40.45,-15.85 -40.45,-22.55 40.45,-22.55"/>
</g>
<g id="Unnamed_afd5309e">
<polygon id="0000017F64477490" class="l64d44" points="-42.25,-24.35 42.25,-24.35 42.25,24.35 -42.25,24.35"/>
<polygon id="0000017F64476C40" class="l66d20" points="-8.55,-4.3 -8.55,5.7 -6.75,5.7 -6.75,-4.3"/>
<polygon id="0000017F64476D90" class="l66d44" points="-5.95,-0.15 -5.95,1.55 -4.25,1.55 -4.25,-0.15"/>
<polygon id="0000017F64476CB0" class="l67d20" points="-6.75,-0.95 -6.75,2.35 -3.45,2.35 -3.45,-0.95"/>
<polygon id="0000017F644768C0" class="l67d20" points="-6.75,-1.8 -6.75,3.2 -3.45,3.2 -3.45,-1.8"/>
<polygon id="0000017F64477110" class="l67d44" points="-5.95,-0.15 -5.95,1.55 -4.25,1.55 -4.25,-0.15"/>
<polygon id="0000017F64476930" class="l68d20" points="-6.55,-0.75 -6.55,2.15 -3.65,2.15 -3.65,-0.75"/>
<polygon id="0000017F64476770" class="l67d20" points="-5.95,-0.15 -5.95,1.55 -4.25,1.55 -4.25,-0.15"/>
<polygon id="0000017F64476B60" class="l68d20" points="-6.55,-1.8 -6.55,3.2 -3.65,3.2 -3.65,-1.8"/>
<polygon id="0000017F644767E0" class="l67d20" points="-5.95,-0.15 -5.95,1.55 -4.25,1.55 -4.25,-0.15"/>
<polygon id="0000017F64476E00" class="l66d20" points="6.75,-4.3 6.75,5.7 8.55,5.7 8.55,-4.3"/>
<polygon id="0000017F64476AF0" class="l66d44" points="9.35,-0.15 9.35,1.55 11.05,1.55 11.05,-0.15"/>
<polygon id="0000017F64476D20" class="l67d20" points="8.55,-0.95 8.55,2.35 11.85,2.35 11.85,-0.95"/>
<polygon id="0000017F644776C0" class="l67d20" points="8.55,-1.8 8.55,3.2 11.85,3.2 11.85,-1.8"/>
<polygon id="0000017F64477C70" class="l67d44" points="9.35,-0.15 9.35,1.55 11.05,1.55 11.05,-0.15"/>
<polygon id="0000017F644775E0" class="l68d20" points="8.75,-0.75 8.75,2.15 11.65,2.15 11.65,-0.75"/>
<polygon id="0000017F64477650" class="l67d20" points="9.35,-0.15 9.35,1.55 11.05,1.55 11.05,-0.15"/>
<polygon id="0000017F64478060" class="l68d20" points="8.75,-1.8 8.75,3.2 11.65,3.2 11.65,-1.8"/>
<polygon id="0000017F64478220" class="l67d20" points="9.35,-0.15 9.35,1.55 11.05,1.55 11.05,-0.15"/>
<polygon id="0000017F644781B0" class="l66d20" points="1.65,-4.3 1.65,5.7 3.45,5.7 3.45,-4.3"/>
<polygon id="0000017F64477F80" class="l66d44" points="4.25,-0.15 4.25,1.55 5.95,1.55 5.95,-0.15"/>
<polygon id="0000017F64477D50" class="l67d20" points="3.45,-0.95 3.45,2.35 6.75,2.35 6.75,-0.95"/>
<polygon id="0000017F644788B0" class="l67d20" points="3.45,-1.8 3.45,3.2 6.75,3.2 6.75,-1.8"/>
<polygon id="0000017F64478920" class="l67d44" points="4.25,-0.15 4.25,1.55 5.95,1.55 5.95,-0.15"/>
<polygon id="0000017F644786F0" class="l68d20" points="3.65,-0.75 3.65,2.15 6.55,2.15 6.55,-0.75"/>
<polygon id="0000017F64479090" class="l67d20" points="4.25,-0.15 4.25,1.55 5.95,1.55 5.95,-0.15"/>
<polygon id="0000017F64478A70" class="l68d20" points="3.65,-1.8 3.65,3.2 6.55,3.2 6.55,-1.8"/>
<polygon id="0000017F64478CA0" class="l67d20" points="4.25,-0.15 4.25,1.55 5.95,1.55 5.95,-0.15"/>
<polygon id="0000017F64478450" class="l66d20" points="-3.45,-4.3 -3.45,5.7 -1.65,5.7 -1.65,-4.3"/>
<polygon id="0000017F64479020" class="l66d44" points="-0.85,-0.15 -0.85,1.55 0.85,1.55 0.85,-0.15"/>
<polygon id="0000017F64478FB0" class="l67d20" points="-1.65,-0.95 -1.65,2.35 1.65,2.35 1.65,-0.95"/>
<polygon id="0000017F64478DF0" class="l67d20" points="-1.65,-1.8 -1.65,3.2 1.65,3.2 1.65,-1.8"/>
<polygon id="0000017F64478ED0" class="l67d44" points="-0.85,-0.15 -0.85,1.55 0.85,1.55 0.85,-0.15"/>
<polygon id="0000017F64478530" class="l68d20" points="-1.45,-0.75 -1.45,2.15 1.45,2.15 1.45,-0.75"/>
<polygon id="0000017F644783E0" class="l67d20" points="-0.85,-0.15 -0.85,1.55 0.85,1.55 0.85,-0.15"/>
<polygon id="0000017F64478370" class="l68d20" points="-1.45,-1.8 -1.45,3.2 1.45,3.2 1.45,-1.8"/>
<polygon id="0000017F644787D0" class="l67d20" points="-0.85,-0.15 -0.85,1.55 0.85,1.55 0.85,-0.15"/>
<polygon id="0000017F64478A00" class="l66d44" points="-11.05,-0.15 -11.05,1.55 -9.35,1.55 -9.35,-0.15"/>
<polygon id="0000017F64478F40" class="l67d20" points="-11.85,-0.95 -11.85,2.35 -8.55,2.35 -8.55,-0.95"/>
<polygon id="0000017F64478BC0" class="l67d20" points="-11.85,-1.8 -11.85,3.2 -8.55,3.2 -8.55,-1.8"/>
<polygon id="0000017F64478760" class="l67d44" points="-11.05,-0.15 -11.05,1.55 -9.35,1.55 -9.35,-0.15"/>
<polygon id="0000017F64478B50" class="l68d20" points="-11.65,-0.75 -11.65,2.15 -8.75,2.15 -8.75,-0.75"/>
<polygon id="0000017F64479790" class="l67d20" points="-11.05,-0.15 -11.05,1.55 -9.35,1.55 -9.35,-0.15"/>
<polygon id="0000017F64479D40" class="l68d20" points="-11.65,-1.8 -11.65,3.2 -8.75,3.2 -8.75,-1.8"/>
<polygon id="0000017F64479330" class="l67d20" points="-11.05,-0.15 -11.05,1.55 -9.35,1.55 -9.35,-0.15"/>
<polygon id="0000017F644796B0" class="l93d44" points="-13.75,-3.1 -13.75,4.5 13.75,4.5 13.75,-3.1"/>
<polygon id="0000017F64479100" class="l65d20" points="-12.45,-1.8 -12.45,3.2 12.45,3.2 12.45,-1.8"/>
<polygon id="0000017F644795D0" class="l67d44" points="-11.05,5.25 -11.05,6.95 -9.35,6.95 -9.35,5.25"/>
<polygon id="0000017F644798E0" class="l68d20" points="-11.65,4.65 -11.65,7.55 -8.75,7.55 -8.75,4.65"/>
<polygon id="0000017F64479B80" class="l67d20" points="-11.05,5.25 -11.05,6.95 -9.35,6.95 -9.35,5.25"/>
<polygon id="0000017F644799C0" class="l66d20" points="22.75,-4.3 22.75,5.7 24.55,5.7 24.55,-4.3"/>
<polygon id="0000017F644792C0" class="l66d44" points="25.35,-0.15 25.35,1.55 27.05,1.55 27.05,-0.15"/>
<polygon id="0000017F64479A30" class="l67d20" points="24.55,-0.95 24.55,2.35 27.85,2.35 27.85,-0.95"/>
<polygon id="0000017F64479170" class="l67d20" points="24.55,-1.8 24.55,3.2 27.85,3.2 27.85,-1.8"/>
<polygon id="0000017F6446BA30" class="l66d44" points="20.25,-0.15 20.25,1.55 21.95,1.55 21.95,-0.15"/>
<polygon id="0000017F6446B410" class="l67d20" points="19.45,-0.95 19.45,2.35 22.75,2.35 22.75,-0.95"/>
<polygon id="0000017F6446B330" class="l67d20" points="19.45,-1.8 19.45,3.2 22.75,3.2 22.75,-1.8"/>
<polygon id="0000017F6446BDB0" class="l93d44" points="17.55,-3.1 17.55,4.5 29.75,4.5 29.75,-3.1"/>
<polygon id="0000017F6446B560" class="l65d20" points="18.85,-1.8 18.85,3.2 28.45,3.2 28.45,-1.8"/>
<polygon id="0000017F6446B870" class="l66d44" points="22.8,-6.8 22.8,-5.1 24.5,-5.1 24.5,-6.8"/>
<polygon id="0000017F6446BCD0" class="l66d20" points="22,-7.6 22,-4.3 25.3,-4.3 25.3,-7.6"/>
<polygon id="0000017F6446B720" class="l67d20" points="22,-7.6 22,-4.3 25.3,-4.3 25.3,-7.6"/>
<polygon id="0000017F6446B640" class="l66d20" points="22,-7.6 22,-4.3 25.3,-4.3 25.3,-7.6"/>
<polygon id="0000017F6446B800" class="l95d20" points="21.8,-7.8 25.5,-7.8 25.5,-4.1 21.8,-4.1"/>
<polygon id="0000017F6446BBF0" class="l67d20" points="19.45,-7.6 22,-7.6 22,-4.3 19.45,-4.3"/>
<polygon id="0000017F6446B3A0" class="l67d20" points="19.45,-7.6 22.75,-7.6 22.75,-1.8 19.45,-1.8"/>
<polygon id="0000017F6446BD40" class="l67d20" points="25.3,-7.6 27.85,-7.6 27.85,-4.3 25.3,-4.3"/>
<polygon id="0000017F6446B6B0" class="l67d20" points="24.55,-7.6 27.85,-7.6 27.85,-1.8 24.55,-1.8"/>
<polygon id="0000017F6446BE90" class="l66d20" points="-24.55,-4.3 -24.55,5.7 -22.75,5.7 -22.75,-4.3"/>
<polygon id="0000017F6446BAA0" class="l66d44" points="-21.95,-0.15 -21.95,1.55 -20.25,1.55 -20.25,-0.15"/>
<polygon id="0000017F6446B100" class="l67d20" points="-22.75,-0.95 -22.75,2.35 -19.45,2.35 -19.45,-0.95"/>
<polygon id="0000017F6446B9C0" class="l67d20" points="-22.75,-1.8 -22.75,3.2 -19.45,3.2 -19.45,-1.8"/>
<polygon id="0000017F6446BC60" class="l66d44" points="-27.05,-0.15 -27.05,1.55 -25.35,1.55 -25.35,-0.15"/>
<polygon id="0000017F6446B950" class="l67d20" points="-27.85,-0.95 -27.85,2.35 -24.55,2.35 -24.55,-0.95"/>
<polygon id="0000017F6446B8E0" class="l67d20" points="-27.85,-1.8 -27.85,3.2 -24.55,3.2 -24.55,-1.8"/>
<polygon id="0000017F6446B790" class="l93d44" points="-29.75,-3.1 -29.75,4.5 -17.55,4.5 -17.55,-3.1"/>
<polygon id="0000017F6446B1E0" class="l65d20" points="-28.45,-1.8 -28.45,3.2 -18.85,3.2 -18.85,-1.8"/>
<polygon id="0000017F6446B5D0" class="l66d44" points="-24.5,-6.8 -24.5,-5.1 -22.8,-5.1 -22.8,-6.8"/>
<polygon id="0000017F6446C0C0" class="l66d20" points="-25.3,-7.6 -25.3,-4.3 -22,-4.3 -22,-7.6"/>
<polygon id="0000017F6446C520" class="l67d20" points="-25.3,-7.6 -25.3,-4.3 -22,-4.3 -22,-7.6"/>
<polygon id="0000017F6446C6E0" class="l66d20" points="-25.3,-7.6 -25.3,-4.3 -22,-4.3 -22,-7.6"/>
<polygon id="0000017F6446DFD0" class="l95d20" points="-25.5,-7.8 -21.8,-7.8 -21.8,-4.1 -25.5,-4.1"/>
<polygon id="0000017F6446DF60" class="l67d20" points="-27.85,-7.6 -25.3,-7.6 -25.3,-4.3 -27.85,-4.3"/>
<polygon id="0000017F6446E6D0" class="l67d20" points="-27.85,-7.6 -24.55,-7.6 -24.55,-1.8 -27.85,-1.8"/>
<polygon id="0000017F6446E4A0" class="l67d20" points="-22,-7.6 -19.45,-7.6 -19.45,-4.3 -22,-4.3"/>
<polygon id="0000017F644746A0" class="l67d20" points="-22.75,-7.6 -19.45,-7.6 -19.45,-1.8 -22.75,-1.8"/>
<polygon id="0000017F64474470" class="l68d20" points="-11.65,8.95 -11.65,11.85 11.65,11.85 11.65,8.95"/>
<polygon id="0000017F64474320" class="l68d20" points="-11.65,4.65 -11.65,7.55 11.65,7.55 11.65,4.65"/>
<polygon id="0000017F64473EC0" class="l66d44" points="-5.85,-10.8 -5.85,-9.1 -4.15,-9.1 -4.15,-10.8"/>
<polygon id="0000017F64474A90" class="l68d20" points="-6.45,-11.4 -6.45,-8.5 -3.55,-8.5 -3.55,-11.4"/>
<polygon id="0000017F64474240" class="l67d20" points="-6.65,-11.6 -6.65,-8.3 -3.35,-8.3 -3.35,-11.6"/>
<polygon id="0000017F64473D00" class="l67d44" points="-5.85,-10.8 -5.85,-9.1 -4.15,-9.1 -4.15,-10.8"/>
<polygon id="0000017F64474BE0" class="l66d20" points="-6.65,-11.6 -6.65,-8.3 -3.35,-8.3 -3.35,-11.6"/>
<polygon id="0000017F64474D30" class="l66d44" points="4.15,-10.8 4.15,-9.1 5.85,-9.1 5.85,-10.8"/>
<polygon id="0000017F64475660" class="l68d20" points="3.55,-11.4 3.55,-8.5 6.45,-8.5 6.45,-11.4"/>
<polygon id="0000017F64474DA0" class="l67d20" points="3.35,-11.6 3.35,-8.3 6.65,-8.3 6.65,-11.6"/>
<polygon id="0000017F64475580" class="l67d44" points="4.15,-10.8 4.15,-9.1 5.85,-9.1 5.85,-10.8"/>
<polygon id="0000017F64475510" class="l66d20" points="3.35,-11.6 3.35,-8.3 6.65,-8.3 6.65,-11.6"/>
<polygon id="0000017F64475200" class="l66d44" points="-0.85,-10.8 -0.85,-9.1 0.85,-9.1 0.85,-10.8"/>
<polygon id="0000017F64475820" class="l68d20" points="-1.45,-11.4 -1.45,-8.5 1.45,-8.5 1.45,-11.4"/>
<polygon id="0000017F64475270" class="l67d20" points="-1.65,-11.6 -1.65,-8.3 1.65,-8.3 1.65,-11.6"/>
<polygon id="0000017F64476000" class="l67d44" points="-0.85,-10.8 -0.85,-9.1 0.85,-9.1 0.85,-10.8"/>
<polygon id="0000017F64475F20" class="l66d20" points="-1.65,-11.6 -1.65,-8.3 1.65,-8.3 1.65,-11.6"/>
<polygon id="0000017F64476070" class="l68d20" points="-8.55,-11.6 -8.55,-8.3 8.55,-8.3 8.55,-11.6"/>
<polygon id="0000017F64475C80" class="l66d20" points="-8.55,-11.6 -8.55,-8.3 8.55,-8.3 8.55,-11.6"/>
<polygon id="0000017F64476380" class="l95d20" points="-1.85,-11.8 1.85,-11.8 1.85,-8.1 -1.85,-8.1"/>
<polygon id="0000017F64475E40" class="l95d20" points="3.15,-11.8 6.85,-11.8 6.85,-8.1 3.15,-8.1"/>
<polygon id="0000017F644764D0" class="l95d20" points="-6.85,-11.8 -3.15,-11.8 -3.15,-8.1 -6.85,-8.1"/>
<polygon id="0000017F64475DD0" class="l95d20" points="-1.85,-11.8 6.85,-11.8 6.85,-8.1 -1.85,-8.1"/>
<polygon id="0000017F64475C10" class="l95d20" points="-6.85,-11.8 1.85,-11.8 1.85,-8.1 -6.85,-8.1"/>
<polygon id="0000017F64476620" class="l95d20" points="-1.85,-11.8 6.85,-11.8 6.85,-8.1 -1.85,-8.1"/>
<polygon id="0000017F64475BA0" class="l95d20" points="-6.85,-11.8 1.85,-11.8 1.85,-8.1 -6.85,-8.1"/>
<polygon id="0000017F64476540" class="l67d20" points="8.55,3.2 11.85,3.2 11.85,6.95 8.55,6.95"/>
<polygon id="0000017F64476690" class="l67d44" points="9.35,5.25 9.35,6.95 11.05,6.95 11.05,5.25"/>
<polygon id="0000017F644762A0" class="l68d20" points="8.75,4.65 8.75,7.55 11.65,7.55 11.65,4.65"/>
<polygon id="0000017F64475B30" class="l67d20" points="9.35,5.25 9.35,6.95 11.05,6.95 11.05,5.25"/>
<polygon id="0000017F64475900" class="l66d20" points="6.75,-8.3 8.55,-8.3 8.55,-4.3 6.75,-4.3"/>
<polygon id="0000017F644760E0" class="l67d20" points="3.45,3.2 6.75,3.2 6.75,11.25 3.45,11.25"/>
<polygon id="0000017F64475AC0" class="l67d44" points="4.25,9.55 4.25,11.25 5.95,11.25 5.95,9.55"/>
<polygon id="0000017F64476460" class="l68d20" points="3.65,8.95 3.65,11.85 6.55,11.85 6.55,8.95"/>
<polygon id="0000017F64476150" class="l67d20" points="4.25,9.55 4.25,11.25 5.95,11.25 5.95,9.55"/>
<polygon id="0000017F64475A50" class="l66d20" points="1.65,-8.3 3.45,-8.3 3.45,-4.3 1.65,-4.3"/>
<polygon id="0000017F64476310" class="l67d20" points="-1.65,3.2 1.65,3.2 1.65,6.95 -1.65,6.95"/>
<polygon id="0000017F64475F90" class="l67d44" points="-0.85,5.25 -0.85,6.95 0.85,6.95 0.85,5.25"/>
<polygon id="0000017F644765B0" class="l68d20" points="-1.45,4.65 -1.45,7.55 1.45,7.55 1.45,4.65"/>
<polygon id="0000017F644759E0" class="l67d20" points="-0.85,5.25 -0.85,6.95 0.85,6.95 0.85,5.25"/>
<polygon id="0000017F64475D60" class="l66d20" points="-3.45,-8.3 -1.65,-8.3 -1.65,-4.3 -3.45,-4.3"/>
<polygon id="0000017F64FD31B0" class="l67d20" points="-6.75,3.2 -3.45,3.2 -3.45,11.25 -6.75,11.25"/>
<polygon id="0000017F64FD3840" class="l67d44" points="-5.95,9.55 -5.95,11.25 -4.25,11.25 -4.25,9.55"/>
<polygon id="0000017F64FD3680" class="l68d20" points="-6.55,8.95 -6.55,11.85 -3.65,11.85 -3.65,8.95"/>
<polygon id="0000017F64FD3610" class="l67d20" points="-5.95,9.55 -5.95,11.25 -4.25,11.25 -4.25,9.55"/>
<polygon id="0000017F64FD3920" class="l66d20" points="-8.55,-8.3 -6.75,-8.3 -6.75,-4.3 -8.55,-4.3"/>
<polygon id="0000017F64FD3A70" class="l67d20" points="-11.85,3.2 -8.55,3.2 -8.55,6.95 -11.85,6.95"/>
<polygon id="0000017F64FD3760" class="l67d20" points="22,-7.6 39.15,-7.6 39.15,-4.3 22,-4.3"/>
<polygon id="0000017F64FD3B50" class="l67d20" points="-39.15,-7.6 -25.3,-7.6 -25.3,-4.3 -39.15,-4.3"/>
<polygon id="0000017F64FD3E60" class="l65d20" points="39.15,21.25 -39.15,21.25 -39.15,-17.15 -35.05,-17.15 -35.05,17.15 35.05,17.15 35.05,-17.15 -35.05,-17.15 -39.15,-17.15 -39.15,-21.25 39.15,-21.25"/>
<polygon id="0000017F64FD38B0" class="l68d20" points="35.05,-21.25 39.15,-21.25 39.15,-17.15 35.05,-17.15"/>
<polygon id="0000017F64FD3220" class="l67d44" points="36.25,-20.05 36.25,-18.35 37.95,-18.35 37.95,-20.05"/>
<polygon id="0000017F64FD3530" class="l68d20" points="35.65,-20.65 35.65,-17.75 38.55,-17.75 38.55,-20.65"/>
<polygon id="0000017F64FD33E0" class="l67d20" points="36.25,-20.05 36.25,-18.35 37.95,-18.35 37.95,-20.05"/>
<polygon id="0000017F64FD37D0" class="l68d20" points="35.05,-21.25 35.05,-17.15 39.15,-17.15 39.15,-21.25"/>
<polygon id="0000017F64FD3300" class="l67d20" points="36.25,-20.05 36.25,-18.35 37.95,-18.35 37.95,-20.05"/>
<polygon id="0000017F64FD34C0" class="l67d20" points="35.05,-21.25 39.15,-21.25 39.15,-17.15 35.05,-17.15"/>
<polygon id="0000017F64FD3ED0" class="l68d20" points="-39.15,-21.25 -35.05,-21.25 -35.05,-17.15 -39.15,-17.15"/>
<polygon id="0000017F64FD35A0" class="l67d44" points="-37.95,-20.05 -37.95,-18.35 -36.25,-18.35 -36.25,-20.05"/>
<polygon id="0000017F64FD3AE0" class="l68d20" points="-38.55,-20.65 -38.55,-17.75 -35.65,-17.75 -35.65,-20.65"/>
<polygon id="0000017F64FD3D80" class="l67d20" points="-37.95,-20.05 -37.95,-18.35 -36.25,-18.35 -36.25,-20.05"/>
<polygon id="0000017F64FD36F0" class="l68d20" points="-39.15,-21.25 -39.15,-17.15 -35.05,-17.15 -35.05,-21.25"/>
<polygon id="0000017F64FD3BC0" class="l67d20" points="-37.95,-20.05 -37.95,-18.35 -36.25,-18.35 -36.25,-20.05"/>
<polygon id="0000017F64FD3CA0" class="l67d20" points="-39.15,-21.25 -35.05,-21.25 -35.05,-17.15 -39.15,-17.15"/>
<polygon id="0000017F64FD3F40" class="l68d20" points="35.05,17.15 39.15,17.15 39.15,21.25 35.05,21.25"/>
<polygon id="0000017F64FD4250" class="l67d44" points="36.25,18.35 36.25,20.05 37.95,20.05 37.95,18.35"/>
<polygon id="0000017F64FD4790" class="l68d20" points="35.65,17.75 35.65,20.65 38.55,20.65 38.55,17.75"/>
<polygon id="0000017F64FD4100" class="l67d20" points="36.25,18.35 36.25,20.05 37.95,20.05 37.95,18.35"/>
<polygon id="0000017F64FD46B0" class="l68d20" points="35.05,17.15 35.05,21.25 39.15,21.25 39.15,17.15"/>
<polygon id="0000017F64FD43A0" class="l67d20" points="36.25,18.35 36.25,20.05 37.95,20.05 37.95,18.35"/>
<polygon id="0000017F64FD4950" class="l67d20" points="35.05,17.15 39.15,17.15 39.15,21.25 35.05,21.25"/>
<polygon id="0000017F64FD4640" class="l68d20" points="-39.15,17.15 -35.05,17.15 -35.05,21.25 -39.15,21.25"/>
<polygon id="0000017F64FD45D0" class="l67d44" points="-37.95,18.35 -37.95,20.05 -36.25,20.05 -36.25,18.35"/>
<polygon id="0000017F64FD4CD0" class="l68d20" points="-38.55,17.75 -38.55,20.65 -35.65,20.65 -35.65,17.75"/>
<polygon id="0000017F64FD4B80" class="l67d20" points="-37.95,18.35 -37.95,20.05 -36.25,20.05 -36.25,18.35"/>
<polygon id="0000017F64FD4720" class="l68d20" points="-39.15,17.15 -39.15,21.25 -35.05,21.25 -35.05,17.15"/>
<polygon id="0000017F64FD4C60" class="l67d20" points="-37.95,18.35 -37.95,20.05 -36.25,20.05 -36.25,18.35"/>
<polygon id="0000017F64FD4AA0" class="l67d20" points="-39.15,17.15 -35.05,17.15 -35.05,21.25 -39.15,21.25"/>
<polygon id="0000017F64FD52F0" class="l66d44" points="-37.95,-14.45 -37.95,-12.75 -36.25,-12.75 -36.25,-14.45"/>
<polygon id="0000017F64FD5600" class="l67d20" points="-38.75,-15.25 -38.75,-11.95 -35.45,-11.95 -35.45,-15.25"/>
<polygon id="0000017F64FD4E20" class="l65d20" points="-39.15,-15.65 -39.15,-11.55 -35.05,-11.55 -35.05,-15.65"/>
<polygon id="0000017F64FD5830" class="l66d44" points="-37.95,12.75 -37.95,14.45 -36.25,14.45 -36.25,12.75"/>
<polygon id="0000017F64FD50C0" class="l67d20" points="-38.75,11.95 -38.75,15.25 -35.45,15.25 -35.45,11.95"/>
<polygon id="0000017F64FD5980" class="l65d20" points="-39.15,11.55 -39.15,15.65 -35.05,15.65 -35.05,11.55"/>
<polygon id="0000017F64FD4F70" class="l66d44" points="-37.95,9.35 -37.95,11.05 -36.25,11.05 -36.25,9.35"/>
<polygon id="0000017F64FD4E90" class="l67d20" points="-38.75,8.55 -38.75,11.85 -35.45,11.85 -35.45,8.55"/>
<polygon id="0000017F64FD5910" class="l65d20" points="-39.15,8.15 -39.15,12.25 -35.05,12.25 -35.05,8.15"/>
<polygon id="0000017F64FD58A0" class="l66d44" points="-37.95,5.95 -37.95,7.65 -36.25,7.65 -36.25,5.95"/>
<polygon id="0000017F64FD5360" class="l67d20" points="-38.75,5.15 -38.75,8.45 -35.45,8.45 -35.45,5.15"/>
<polygon id="0000017F64FD54B0" class="l65d20" points="-39.15,4.75 -39.15,8.85 -35.05,8.85 -35.05,4.75"/>
<polygon id="0000017F64FD5440" class="l66d44" points="-37.95,2.55 -37.95,4.25 -36.25,4.25 -36.25,2.55"/>
<polygon id="0000017F64FD59F0" class="l67d20" points="-38.75,1.75 -38.75,5.05 -35.45,5.05 -35.45,1.75"/>
<polygon id="0000017F64FD4DB0" class="l65d20" points="-39.15,1.35 -39.15,5.45 -35.05,5.45 -35.05,1.35"/>
<polygon id="0000017F64FD56E0" class="l66d44" points="-37.95,-0.85 -37.95,0.85 -36.25,0.85 -36.25,-0.85"/>
<polygon id="0000017F64FD5EC0" class="l67d20" points="-38.75,-1.65 -38.75,1.65 -35.45,1.65 -35.45,-1.65"/>
<polygon id="0000017F64FD5E50" class="l65d20" points="-39.15,-2.05 -39.15,2.05 -35.05,2.05 -35.05,-2.05"/>
<polygon id="0000017F64FD6240" class="l66d44" points="-37.95,-4.25 -37.95,-2.55 -36.25,-2.55 -36.25,-4.25"/>
<polygon id="0000017F64FD60F0" class="l67d20" points="-38.75,-5.05 -38.75,-1.75 -35.45,-1.75 -35.45,-5.05"/>
<polygon id="0000017F64FD61D0" class="l65d20" points="-39.15,-5.45 -39.15,-1.35 -35.05,-1.35 -35.05,-5.45"/>
<polygon id="0000017F64FD5C20" class="l66d44" points="-37.95,-7.65 -37.95,-5.95 -36.25,-5.95 -36.25,-7.65"/>
<polygon id="0000017F64FD67F0" class="l67d20" points="-38.75,-8.45 -38.75,-5.15 -35.45,-5.15 -35.45,-8.45"/>
<polygon id="0000017F64FD5D00" class="l65d20" points="-39.15,-8.85 -39.15,-4.75 -35.05,-4.75 -35.05,-8.85"/>
<polygon id="0000017F64FD6710" class="l66d44" points="-37.95,-11.05 -37.95,-9.35 -36.25,-9.35 -36.25,-11.05"/>
<polygon id="0000017F64FD5C90" class="l67d20" points="-38.75,-11.85 -38.75,-8.55 -35.45,-8.55 -35.45,-11.85"/>
<polygon id="0000017F64FD6550" class="l65d20" points="-39.15,-12.25 -39.15,-8.15 -35.05,-8.15 -35.05,-12.25"/>
<polygon id="0000017F64FD6390" class="l67d20" points="-39.15,-17.15 -39.15,17.15 -35.05,17.15 -35.05,-17.15"/>
<polygon id="0000017F64FD6780" class="l65d20" points="-39.15,-15.65 -39.15,15.65 -35.05,15.65 -35.05,-15.65"/>
<polygon id="0000017F64FD6010" class="l66d44" points="-28.35,-20.05 -28.35,-18.35 -26.65,-18.35 -26.65,-20.05"/>
<polygon id="0000017F64FD64E0" class="l68d20" points="-28.95,-20.65 -28.95,-17.75 -26.05,-17.75 -26.05,-20.65"/>
<polygon id="0000017F64FD5DE0" class="l67d20" points="-29.15,-20.85 -29.15,-17.55 -25.85,-17.55 -25.85,-20.85"/>
<polygon id="0000017F64FD65C0" class="l67d44" points="-28.35,-20.05 -28.35,-18.35 -26.65,-18.35 -26.65,-20.05"/>
<polygon id="0000017F64FD5FA0" class="l65d20" points="-29.55,-21.25 -29.55,-17.15 -25.45,-17.15 -25.45,-21.25"/>
<polygon id="0000017F64FD6080" class="l66d44" points="26.65,-20.05 26.65,-18.35 28.35,-18.35 28.35,-20.05"/>
<polygon id="0000017F64FD5BB0" class="l68d20" points="26.05,-20.65 26.05,-17.75 28.95,-17.75 28.95,-20.65"/>
<polygon id="0000017F64FD6320" class="l67d20" points="25.85,-20.85 25.85,-17.55 29.15,-17.55 29.15,-20.85"/>
<polygon id="0000017F64FD5D70" class="l67d44" points="26.65,-20.05 26.65,-18.35 28.35,-18.35 28.35,-20.05"/>
<polygon id="0000017F64FD66A0" class="l65d20" points="25.45,-21.25 25.45,-17.15 29.55,-17.15 29.55,-21.25"/>
<polygon id="0000017F64FD6160" class="l66d44" points="21.65,-20.05 21.65,-18.35 23.35,-18.35 23.35,-20.05"/>
<polygon id="0000017F64FD68D0" class="l68d20" points="21.05,-20.65 21.05,-17.75 23.95,-17.75 23.95,-20.65"/>
<polygon id="0000017F64FD6630" class="l67d20" points="20.85,-20.85 20.85,-17.55 24.15,-17.55 24.15,-20.85"/>
<polygon id="0000017F64FD6400" class="l67d44" points="21.65,-20.05 21.65,-18.35 23.35,-18.35 23.35,-20.05"/>
<polygon id="0000017F64FD6940" class="l65d20" points="20.45,-21.25 20.45,-17.15 24.55,-17.15 24.55,-21.25"/>
<polygon id="0000017F64FD5F30" class="l66d44" points="16.65,-20.05 16.65,-18.35 18.35,-18.35 18.35,-20.05"/>
<polygon id="0000017F64FD6470" class="l68d20" points="16.05,-20.65 16.05,-17.75 18.95,-17.75 18.95,-20.65"/>
<polygon id="0000017F64FD62B0" class="l67d20" points="15.85,-20.85 15.85,-17.55 19.15,-17.55 19.15,-20.85"/>
<polygon id="0000017F64FD7350" class="l67d44" points="16.65,-20.05 16.65,-18.35 18.35,-18.35 18.35,-20.05"/>
<polygon id="0000017F64FD6B70" class="l65d20" points="15.45,-21.25 15.45,-17.15 19.55,-17.15 19.55,-21.25"/>
<polygon id="0000017F64FD6E80" class="l66d44" points="11.65,-20.05 11.65,-18.35 13.35,-18.35 13.35,-20.05"/>
<polygon id="0000017F64FD6B00" class="l68d20" points="11.05,-20.65 11.05,-17.75 13.95,-17.75 13.95,-20.65"/>
<polygon id="0000017F64FD7200" class="l67d20" points="10.85,-20.85 10.85,-17.55 14.15,-17.55 14.15,-20.85"/>
<polygon id="0000017F64FD70B0" class="l67d44" points="11.65,-20.05 11.65,-18.35 13.35,-18.35 13.35,-20.05"/>
<polygon id="0000017F64FD6DA0" class="l65d20" points="10.45,-21.25 10.45,-17.15 14.55,-17.15 14.55,-21.25"/>
<polygon id="0000017F64FD6BE0" class="l66d44" points="6.65,-20.05 6.65,-18.35 8.35,-18.35 8.35,-20.05"/>
<polygon id="0000017F64FD7510" class="l68d20" points="6.05,-20.65 6.05,-17.75 8.95,-17.75 8.95,-20.65"/>
<polygon id="0000017F64FD6D30" class="l67d20" points="5.85,-20.85 5.85,-17.55 9.15,-17.55 9.15,-20.85"/>
<polygon id="0000017F64FD7660" class="l67d44" points="6.65,-20.05 6.65,-18.35 8.35,-18.35 8.35,-20.05"/>
<polygon id="0000017F64FD6E10" class="l65d20" points="5.45,-21.25 5.45,-17.15 9.55,-17.15 9.55,-21.25"/>
<polygon id="0000017F64FD7040" class="l66d44" points="1.65,-20.05 1.65,-18.35 3.35,-18.35 3.35,-20.05"/>
<polygon id="0000017F64FD7430" class="l68d20" points="1.05,-20.65 1.05,-17.75 3.95,-17.75 3.95,-20.65"/>
<polygon id="0000017F64FD7270" class="l67d20" points="0.85,-20.85 0.85,-17.55 4.15,-17.55 4.15,-20.85"/>
<polygon id="0000017F64FD69B0" class="l67d44" points="1.65,-20.05 1.65,-18.35 3.35,-18.35 3.35,-20.05"/>
<polygon id="0000017F64FD6CC0" class="l65d20" points="0.45,-21.25 0.45,-17.15 4.55,-17.15 4.55,-21.25"/>
<polygon id="0000017F64FD6F60" class="l66d44" points="-3.35,-20.05 -3.35,-18.35 -1.65,-18.35 -1.65,-20.05"/>
<polygon id="0000017F64FD73C0" class="l68d20" points="-3.95,-20.65 -3.95,-17.75 -1.05,-17.75 -1.05,-20.65"/>
<polygon id="0000017F64FD76D0" class="l67d20" points="-4.15,-20.85 -4.15,-17.55 -0.85,-17.55 -0.85,-20.85"/>
<polygon id="0000017F64FD6FD0" class="l67d44" points="-3.35,-20.05 -3.35,-18.35 -1.65,-18.35 -1.65,-20.05"/>
<polygon id="0000017F64FD7580" class="l65d20" points="-4.55,-21.25 -4.55,-17.15 -0.45,-17.15 -0.45,-21.25"/>
<polygon id="0000017F64FD74A0" class="l66d44" points="-8.35,-20.05 -8.35,-18.35 -6.65,-18.35 -6.65,-20.05"/>
<polygon id="0000017F64FD7190" class="l68d20" points="-8.95,-20.65 -8.95,-17.75 -6.05,-17.75 -6.05,-20.65"/>
<polygon id="0000017F64FD6EF0" class="l67d20" points="-9.15,-20.85 -9.15,-17.55 -5.85,-17.55 -5.85,-20.85"/>
<polygon id="0000017F64FD6C50" class="l67d44" points="-8.35,-20.05 -8.35,-18.35 -6.65,-18.35 -6.65,-20.05"/>
<polygon id="0000017F64FD6A90" class="l65d20" points="-9.55,-21.25 -9.55,-17.15 -5.45,-17.15 -5.45,-21.25"/>
<polygon id="0000017F64FD75F0" class="l66d44" points="-13.35,-20.05 -13.35,-18.35 -11.65,-18.35 -11.65,-20.05"/>
<polygon id="0000017F64FD7120" class="l68d20" points="-13.95,-20.65 -13.95,-17.75 -11.05,-17.75 -11.05,-20.65"/>
<polygon id="0000017F64FD72E0" class="l67d20" points="-14.15,-20.85 -14.15,-17.55 -10.85,-17.55 -10.85,-20.85"/>
<polygon id="0000017F64FD84D0" class="l67d44" points="-13.35,-20.05 -13.35,-18.35 -11.65,-18.35 -11.65,-20.05"/>
<polygon id="0000017F64FD82A0" class="l65d20" points="-14.55,-21.25 -14.55,-17.15 -10.45,-17.15 -10.45,-21.25"/>
<polygon id="0000017F64FD8540" class="l66d44" points="-18.35,-20.05 -18.35,-18.35 -16.65,-18.35 -16.65,-20.05"/>
<polygon id="0000017F64FD8310" class="l68d20" points="-18.95,-20.65 -18.95,-17.75 -16.05,-17.75 -16.05,-20.65"/>
<polygon id="0000017F64FD7820" class="l67d20" points="-19.15,-20.85 -19.15,-17.55 -15.85,-17.55 -15.85,-20.85"/>
<polygon id="0000017F64FD7900" class="l67d44" points="-18.35,-20.05 -18.35,-18.35 -16.65,-18.35 -16.65,-20.05"/>
<polygon id="0000017F64FD7970" class="l65d20" points="-19.55,-21.25 -19.55,-17.15 -15.45,-17.15 -15.45,-21.25"/>
<polygon id="0000017F64FD8380" class="l66d44" points="-23.35,-20.05 -23.35,-18.35 -21.65,-18.35 -21.65,-20.05"/>
<polygon id="0000017F64FD7C80" class="l68d20" points="-23.95,-20.65 -23.95,-17.75 -21.05,-17.75 -21.05,-20.65"/>
<polygon id="0000017F64FD7BA0" class="l67d20" points="-24.15,-20.85 -24.15,-17.55 -20.85,-17.55 -20.85,-20.85"/>
<polygon id="0000017F64FD8460" class="l67d44" points="-23.35,-20.05 -23.35,-18.35 -21.65,-18.35 -21.65,-20.05"/>
<polygon id="0000017F64FD7B30" class="l65d20" points="-24.55,-21.25 -24.55,-17.15 -20.45,-17.15 -20.45,-21.25"/>
<polygon id="0000017F64FD7F90" class="l67d20" points="-29.15,-20.85 -29.15,-17.55 29.15,-17.55 29.15,-20.85"/>
<polygon id="0000017F64FD7C10" class="l68d20" points="-35.05,-21.25 -35.05,-17.15 35.05,-17.15 35.05,-21.25"/>
<polygon id="0000017F64FD8150" class="l65d20" points="-29.55,-21.25 -29.55,-17.15 29.55,-17.15 29.55,-21.25"/>
<polygon id="0000017F64FD7AC0" class="l66d44" points="36.25,-14.45 36.25,-12.75 37.95,-12.75 37.95,-14.45"/>
<polygon id="0000017F64FD79E0" class="l67d20" points="35.45,-15.25 35.45,-11.95 38.75,-11.95 38.75,-15.25"/>
<polygon id="0000017F64FD80E0" class="l65d20" points="35.05,-15.65 35.05,-11.55 39.15,-11.55 39.15,-15.65"/>
<polygon id="0000017F64FD7890" class="l66d44" points="36.25,12.75 36.25,14.45 37.95,14.45 37.95,12.75"/>
<polygon id="0000017F64FD81C0" class="l67d20" points="35.45,11.95 35.45,15.25 38.75,15.25 38.75,11.95"/>
<polygon id="0000017F64FD8000" class="l65d20" points="35.05,11.55 35.05,15.65 39.15,15.65 39.15,11.55"/>
<polygon id="0000017F64FD7F20" class="l66d44" points="36.25,9.35 36.25,11.05 37.95,11.05 37.95,9.35"/>
<polygon id="0000017F64FD7D60" class="l67d20" points="35.45,8.55 35.45,11.85 38.75,11.85 38.75,8.55"/>
<polygon id="0000017F64FD7EB0" class="l65d20" points="35.05,8.15 35.05,12.25 39.15,12.25 39.15,8.15"/>
<polygon id="0000017F64FD7DD0" class="l66d44" points="36.25,5.95 36.25,7.65 37.95,7.65 37.95,5.95"/>
<polygon id="0000017F64FD7E40" class="l67d20" points="35.45,5.15 35.45,8.45 38.75,8.45 38.75,5.15"/>
<polygon id="0000017F64FD8230" class="l65d20" points="35.05,4.75 35.05,8.85 39.15,8.85 39.15,4.75"/>
<polygon id="0000017F64FD77B0" class="l66d44" points="36.25,2.55 36.25,4.25 37.95,4.25 37.95,2.55"/>
<polygon id="0000017F64FD7A50" class="l67d20" points="35.45,1.75 35.45,5.05 38.75,5.05 38.75,1.75"/>
<polygon id="0000017F64FD8EE0" class="l65d20" points="35.05,1.35 35.05,5.45 39.15,5.45 39.15,1.35"/>
<polygon id="0000017F64FD8620" class="l66d44" points="36.25,-0.85 36.25,0.85 37.95,0.85 37.95,-0.85"/>
<polygon id="0000017F64FD90A0" class="l67d20" points="35.45,-1.65 35.45,1.65 38.75,1.65 38.75,-1.65"/>
<polygon id="0000017F64FD88C0" class="l65d20" points="35.05,-2.05 35.05,2.05 39.15,2.05 39.15,-2.05"/>
<polygon id="0000017F64FD8D20" class="l66d44" points="36.25,-4.25 36.25,-2.55 37.95,-2.55 37.95,-4.25"/>
<polygon id="0000017F64FD9340" class="l67d20" points="35.45,-5.05 35.45,-1.75 38.75,-1.75 38.75,-5.05"/>
<polygon id="0000017F64FD92D0" class="l65d20" points="35.05,-5.45 35.05,-1.35 39.15,-1.35 39.15,-5.45"/>
<polygon id="0000017F64FD8F50" class="l66d44" points="36.25,-7.65 36.25,-5.95 37.95,-5.95 37.95,-7.65"/>
<polygon id="0000017F64FD89A0" class="l67d20" points="35.45,-8.45 35.45,-5.15 38.75,-5.15 38.75,-8.45"/>
<polygon id="0000017F64FD8A80" class="l65d20" points="35.05,-8.85 35.05,-4.75 39.15,-4.75 39.15,-8.85"/>
<polygon id="0000017F64FD9180" class="l66d44" points="36.25,-11.05 36.25,-9.35 37.95,-9.35 37.95,-11.05"/>
<polygon id="0000017F64FD8AF0" class="l67d20" points="35.45,-11.85 35.45,-8.55 38.75,-8.55 38.75,-11.85"/>
<polygon id="0000017F64FD8B60" class="l65d20" points="35.05,-12.25 35.05,-8.15 39.15,-8.15 39.15,-12.25"/>
<polygon id="0000017F64FD87E0" class="l67d20" points="35.05,-17.15 35.05,17.15 39.15,17.15 39.15,-17.15"/>
<polygon id="0000017F64FD85B0" class="l65d20" points="35.05,-15.65 35.05,15.65 39.15,15.65 39.15,-15.65"/>
<polygon id="0000017F64FD8E70" class="l66d44" points="-28.35,18.35 -28.35,20.05 -26.65,20.05 -26.65,18.35"/>
<polygon id="0000017F64FD8FC0" class="l68d20" points="-28.95,17.75 -28.95,20.65 -26.05,20.65 -26.05,17.75"/>
<polygon id="0000017F64FD9E30" class="l67d20" points="-29.15,17.55 -29.15,20.85 -25.85,20.85 -25.85,17.55"/>
<polygon id="0000017F64FD9F80" class="l67d44" points="-28.35,18.35 -28.35,20.05 -26.65,20.05 -26.65,18.35"/>
<polygon id="0000017F64FD9DC0" class="l65d20" points="-29.55,17.15 -29.55,21.25 -25.45,21.25 -25.45,17.15"/>
<polygon id="0000017F64FDA0D0" class="l66d44" points="26.65,18.35 26.65,20.05 28.35,20.05 28.35,18.35"/>
<polygon id="0000017F64FD9730" class="l68d20" points="26.05,17.75 26.05,20.65 28.95,20.65 28.95,17.75"/>
<polygon id="0000017F64FD98F0" class="l67d20" points="25.85,17.55 25.85,20.85 29.15,20.85 29.15,17.55"/>
<polygon id="0000017F64FD96C0" class="l67d44" points="26.65,18.35 26.65,20.05 28.35,20.05 28.35,18.35"/>
<polygon id="0000017F64FD9500" class="l65d20" points="25.45,17.15 25.45,21.25 29.55,21.25 29.55,17.15"/>
<polygon id="0000017F64FDA140" class="l66d44" points="21.65,18.35 21.65,20.05 23.35,20.05 23.35,18.35"/>
<polygon id="0000017F64FD9C00" class="l68d20" points="21.05,17.75 21.05,20.65 23.95,20.65 23.95,17.75"/>
<polygon id="0000017F64FD9AB0" class="l67d20" points="20.85,17.55 20.85,20.85 24.15,20.85 24.15,17.55"/>
<polygon id="0000017F64FE36E0" class="l67d44" points="21.65,18.35 21.65,20.05 23.35,20.05 23.35,18.35"/>
<polygon id="0000017F64FE3910" class="l65d20" points="20.45,17.15 20.45,21.25 24.55,21.25 24.55,17.15"/>
<polygon id="0000017F64FE38A0" class="l66d44" points="16.65,18.35 16.65,20.05 18.35,20.05 18.35,18.35"/>
<polygon id="0000017F64FE45C0" class="l68d20" points="16.05,17.75 16.05,20.65 18.95,20.65 18.95,17.75"/>
<polygon id="0000017F64FE3E50" class="l67d20" points="15.85,17.55 15.85,20.85 19.15,20.85 19.15,17.55"/>
<polygon id="0000017F64FE48D0" class="l67d44" points="16.65,18.35 16.65,20.05 18.35,20.05 18.35,18.35"/>
<polygon id="0000017F64FE3EC0" class="l65d20" points="15.45,17.15 15.45,21.25 19.55,21.25 19.55,17.15"/>
<polygon id="0000017F64FE3D00" class="l66d44" points="11.65,18.35 11.65,20.05 13.35,20.05 13.35,18.35"/>
<polygon id="0000017F64FE4DA0" class="l68d20" points="11.05,17.75 11.05,20.65 13.95,20.65 13.95,17.75"/>
<polygon id="0000017F64FE4B70" class="l67d20" points="10.85,17.55 10.85,20.85 14.15,20.85 14.15,17.55"/>
<polygon id="0000017F64FE4A90" class="l67d44" points="11.65,18.35 11.65,20.05 13.35,20.05 13.35,18.35"/>
<polygon id="0000017F64FE4A20" class="l65d20" points="10.45,17.15 10.45,21.25 14.55,21.25 14.55,17.15"/>
<polygon id="0000017F64FE4E10" class="l66d44" points="6.65,18.35 6.65,20.05 8.35,20.05 8.35,18.35"/>
<polygon id="0000017F64FE4CC0" class="l68d20" points="6.05,17.75 6.05,20.65 8.95,20.65 8.95,17.75"/>
<polygon id="0000017F64FE4F60" class="l67d20" points="5.85,17.55 5.85,20.85 9.15,20.85 9.15,17.55"/>
<polygon id="0000017F64FE4B00" class="l67d44" points="6.65,18.35 6.65,20.05 8.35,20.05 8.35,18.35"/>
<polygon id="0000017F64FE4EF0" class="l65d20" points="5.45,17.15 5.45,21.25 9.55,21.25 9.55,17.15"/>
<polygon id="0000017F64FD15B0" class="l66d44" points="1.65,18.35 1.65,20.05 3.35,20.05 3.35,18.35"/>
<polygon id="0000017F64FD1930" class="l68d20" points="1.05,17.75 1.05,20.65 3.95,20.65 3.95,17.75"/>
<polygon id="0000017F64FD2340" class="l67d20" points="0.85,17.55 0.85,20.85 4.15,20.85 4.15,17.55"/>
<polygon id="0000017F64FD1770" class="l67d44" points="1.65,18.35 1.65,20.05 3.35,20.05 3.35,18.35"/>
<polygon id="0000017F64FD1700" class="l65d20" points="0.45,17.15 0.45,21.25 4.55,21.25 4.55,17.15"/>
<polygon id="0000017F64FD1F50" class="l66d44" points="-3.35,18.35 -3.35,20.05 -1.65,20.05 -1.65,18.35"/>
<polygon id="0000017F64FD1A80" class="l68d20" points="-3.95,17.75 -3.95,20.65 -1.05,20.65 -1.05,17.75"/>
<polygon id="0000017F64FD21F0" class="l67d20" points="-4.15,17.55 -4.15,20.85 -0.85,20.85 -0.85,17.55"/>
<polygon id="0000017F64FD2030" class="l67d44" points="-3.35,18.35 -3.35,20.05 -1.65,20.05 -1.65,18.35"/>
<polygon id="0000017F64FD19A0" class="l65d20" points="-4.55,17.15 -4.55,21.25 -0.45,21.25 -0.45,17.15"/>
<polygon id="0000017F64FD18C0" class="l66d44" points="-8.35,18.35 -8.35,20.05 -6.65,20.05 -6.65,18.35"/>
<polygon id="0000017F64FD1B60" class="l68d20" points="-8.95,17.75 -8.95,20.65 -6.05,20.65 -6.05,17.75"/>
<polygon id="0000017F64FD2880" class="l67d20" points="-9.15,17.55 -9.15,20.85 -5.85,20.85 -5.85,17.55"/>
<polygon id="0000017F64FD2810" class="l67d44" points="-8.35,18.35 -8.35,20.05 -6.65,20.05 -6.65,18.35"/>
<polygon id="0000017F64FD2FF0" class="l65d20" points="-9.55,17.15 -9.55,21.25 -5.45,21.25 -5.45,17.15"/>
<polygon id="0000017F64FD28F0" class="l66d44" points="-13.35,18.35 -13.35,20.05 -11.65,20.05 -11.65,18.35"/>
<polygon id="0000017F64FD23B0" class="l68d20" points="-13.95,17.75 -13.95,20.65 -11.05,20.65 -11.05,17.75"/>
<polygon id="0000017F64FD2EA0" class="l67d20" points="-14.15,17.55 -14.15,20.85 -10.85,20.85 -10.85,17.55"/>
<polygon id="0000017F64FD2570" class="l67d44" points="-13.35,18.35 -13.35,20.05 -11.65,20.05 -11.65,18.35"/>
<polygon id="0000017F64FD25E0" class="l65d20" points="-14.55,17.15 -14.55,21.25 -10.45,21.25 -10.45,17.15"/>
<polygon id="0000017F64FD2B20" class="l66d44" points="-18.35,18.35 -18.35,20.05 -16.65,20.05 -16.65,18.35"/>
<polygon id="0000017F64FD26C0" class="l68d20" points="-18.95,17.75 -18.95,20.65 -16.05,20.65 -16.05,17.75"/>
<polygon id="0000017F64FD2730" class="l67d20" points="-19.15,17.55 -19.15,20.85 -15.85,20.85 -15.85,17.55"/>
<polygon id="0000017F64FD27A0" class="l67d44" points="-18.35,18.35 -18.35,20.05 -16.65,20.05 -16.65,18.35"/>
<polygon id="0000017F64FD2490" class="l65d20" points="-19.55,17.15 -19.55,21.25 -15.45,21.25 -15.45,17.15"/>
<polygon id="0000017F64FD2B90" class="l66d44" points="-23.35,18.35 -23.35,20.05 -21.65,20.05 -21.65,18.35"/>
<polygon id="0000017F64FD2AB0" class="l68d20" points="-23.95,17.75 -23.95,20.65 -21.05,20.65 -21.05,17.75"/>
<polygon id="0000017F64FD29D0" class="l67d20" points="-24.15,17.55 -24.15,20.85 -20.85,20.85 -20.85,17.55"/>
<polygon id="0000017F64FD2650" class="l67d44" points="-23.35,18.35 -23.35,20.05 -21.65,20.05 -21.65,18.35"/>
<polygon id="0000017F64FD2960" class="l65d20" points="-24.55,17.15 -24.55,21.25 -20.45,21.25 -20.45,17.15"/>
<polygon id="0000017F64FD2500" class="l67d20" points="-29.15,17.55 -29.15,20.85 29.15,20.85 29.15,17.55"/>
<polygon id="0000017F64FD2C70" class="l68d20" points="-35.05,17.15 -35.05,21.25 35.05,21.25 35.05,17.15"/>
<polygon id="0000017F64FD2C00" class="l65d20" points="-29.55,17.15 -29.55,21.25 29.55,21.25 29.55,17.15"/>
<polygon id="0000017F64FD2DC0" class="l94d20" points="40.45,22.55 -40.45,22.55 -40.45,-15.85 -33.75,-15.85 -33.75,15.85 33.75,15.85 33.75,-15.85 -33.75,-15.85 -40.45,-15.85 -40.45,-22.55 40.45,-22.55"/>
</g>
</defs>
<rect x="-50.895" y="-32.995" width="190.19" height="65.99" fill="#222222" stroke="none"/>
<g id="layout$1" transform="scale(1 -1)">
<use transform="translate(0 0)" xlink:href="#Unnamed_7013c8d7"/>
<use transform="translate(88.4 0)" xlink:href="#Unnamed_afd5309e"/>
<use transform="translate(0 0)" xlink:href="#c_route_2675221e$1"/>
</g>
</svg>
